SplineFontDB: 3.0
FontName: Essays1743
FullName: Essays 1743
FamilyName: Essays1743
Weight: Medium
Copyright: Copyright 2004-2011, John Stracke.  Based on a 1743 translation of the essays of Montaigne.
Version: 002.000
ItalicAngle: 0
UnderlinePosition: -100
UnderlineWidth: 50
Ascent: 759
Descent: 265
sfntRevision: 0x00020000
LayerCount: 2
Layer: 0 1 "Back"  1
Layer: 1 1 "Fore"  0
XUID: [1021 767 635942628 8352409]
FSType: 0
OS2Version: 2
OS2_WeightWidthSlopeOnly: 0
OS2_UseTypoMetrics: 1
CreationTime: 1168396738
ModificationTime: 1383422316
PfmFamily: 17
TTFWeight: 500
TTFWidth: 5
LineGap: 90
VLineGap: 0
Panose: 2 0 6 2 0 0 0 0 0 0
OS2TypoAscent: 0
OS2TypoAOffset: 1
OS2TypoDescent: 0
OS2TypoDOffset: 1
OS2TypoLinegap: 0
OS2WinAscent: 1
OS2WinAOffset: 1
OS2WinDescent: 0
OS2WinDOffset: 1
HheadAscent: 1
HheadAOffset: 1
HheadDescent: 0
HheadDOffset: 1
OS2SubXSize: 665
OS2SubYSize: 716
OS2SubXOff: 0
OS2SubYOff: 143
OS2SupXSize: 665
OS2SupYSize: 716
OS2SupXOff: 0
OS2SupYOff: 491
OS2StrikeYSize: 51
OS2StrikeYPos: 265
OS2Vendor: 'PfEd'
OS2CodePages: 00000093.00000000
OS2UnicodeRanges: a000007f.500080fb.00000000.00000000
Lookup: 1 0 0 "Proportional number lookup"  {"Proportional number lookup-1"  } ['pnum' ('DFLT' <'dflt' > 'latn' <'dflt' > ) ]
Lookup: 4 0 1 "'liga' Standard Ligatures in Latin lookup 0"  {"'liga' Standard Ligatures in Latin lookup 0 subtable"  } ['liga' ('latn' <'dflt' > ) ]
Lookup: 4 0 1 "'dlig' Discretionary Ligatures in Latin lookup 2"  {"'dlig' Discretionary Ligatures in Latin lookup 2-1"  } ['dlig' ('DFLT' <'dflt' > 'latn' <'dflt' > ) ]
Lookup: 4 0 0 "'frac' Diagonal Fractions lookup 1"  {"'frac' Diagonal Fractions lookup 1 subtable"  } ['frac' ('DFLT' <'dflt' > ) ]
Lookup: 258 0 0 "'kern' Horizontal Kerning in Latin lookup 0"  {"'kern' Horizontal Kerning in Latin lookup 0 subtable" [153,15,0] } ['kern' ('latn' <'dflt' > ) ]
MarkAttachClasses: 1
DEI: 91125
ShortTable: cvt  4
  36
  684
  34
  648
EndShort
ShortTable: maxp 16
  1
  0
  980
  472
  9
  323

StartChar: .notdef
Encoding: 65536 -1 0
Width: 374
Flags: W
HStem: 0 34<68 272> 648 34<68 272>
VStem: 34 34<34 648> 272 34<34 648>
LayerCount: 2
Fore
SplineSet
68 34 m 1,0,-1
 272 34 l 1,1,-1
 272 648 l 1,2,-1
 68 648 l 1,3,-1
 68 34 l 1,0,-1
34 0 m 1,4,-1
 34 682 l 1,5,-1
 306 682 l 1,6,-1
 306 0 l 1,7,-1
 34 0 l 1,4,-1
EndSplineSet
Validated: 1
EndChar

StartChar: exclam
Encoding: 33 33 4
Width: 301
GlyphClass: 2
Flags: W
HStem: 2 117<135.563 201.324> 716 20G<148.5 179.5>
VStem: 106 115<347.366 724.135>
LayerCount: 2
Fore
SplineSet
135 111 m 0,0,1
 153 119 153 119 173 119 c 128,-1,2
 193 119 193 119 206 103 c 128,-1,3
 219 87 219 87 219 64.5 c 128,-1,4
 219 42 219 42 199 22 c 128,-1,5
 179 2 179 2 156 2 c 0,6,7
 99 2 99 2 99 48 c 2,8,-1
 99 57 l 1,9,10
 104 96 104 96 135 111 c 0,0,1
117 319 m 2,11,-1
 118 361 l 2,12,13
 118 384.4 118 384.4 112 482.2 c 128,-1,14
 106 580 106 580 106 614.5 c 128,-1,15
 106 649 106 649 108 705 c 1,16,17
 133 736 133 736 164 736 c 128,-1,18
 195 736 195 736 220 714 c 1,19,20
 221 682 221 682 221 615 c 128,-1,21
 221 548 221 548 210 435 c 1,22,-1
 205 388.5 l 2,23,24
 203 370 203 370 200.5 357.5 c 0,25,26
 189.818 304.091 189.818 304.091 180 237 c 1,27,28
 159 214 159 214 141 214 c 0,29,30
 134 214 134 214 126 219 c 1,31,32
 117 279 117 279 117 319 c 2,11,-1
EndSplineSet
Validated: 1
EndChar

StartChar: numbersign
Encoding: 35 35 6
Width: 512
GlyphClass: 2
Flags: W
VStem: 79 129<247.344 305> 274 125<249 308>
LayerCount: 2
Fore
SplineSet
201 432 m 1,0,-1
 223 434 l 1,1,-1
 252 438 l 2,2,3
 273 441 273 441 283 442 c 1,4,5
 292 467 292 467 308 483.5 c 128,-1,6
 324 500 324 500 340 500 c 128,-1,7
 356 500 356 500 371 479.5 c 128,-1,8
 386 459 386 459 392 438 c 1,9,10
 425 433 425 433 445.5 414.5 c 128,-1,11
 466 396 466 396 466 377 c 128,-1,12
 466 358 466 358 450 341.5 c 128,-1,13
 434 325 434 325 399 316 c 1,14,15
 399 307 399 307 400 300 c 2,16,-1
 404 273 l 2,17,18
 407 252 407 252 408 243 c 1,19,20
 429 237 429 237 447.5 220.5 c 128,-1,21
 466 204 466 204 466 185 c 128,-1,22
 466 166 466 166 450 150 c 0,23,24
 433 133 433 133 402 125 c 1,25,26
 397 99 397 99 379 78 c 0,27,28
 361 58 361 58 342.5 58 c 128,-1,29
 324 58 324 58 308 74 c 0,30,31
 293 90 293 90 285 116 c 1,32,-1
 277 116 l 1,33,-1
 208 113 l 1,34,35
 201 93 201 93 190 82 c 1,36,37
 169 58 169 58 150.5 58 c 128,-1,38
 132 58 132 58 115.5 75 c 128,-1,39
 99 92 99 92 91 123 c 1,40,41
 61 132 61 132 43 148 c 128,-1,42
 25 164 25 164 25 181 c 128,-1,43
 25 198 25 198 44.5 213 c 128,-1,44
 64 228 64 228 82 232 c 1,45,-1
 82 248 l 1,46,-1
 79 319 l 1,47,48
 57 328 57 328 41 342 c 128,-1,49
 25 356 25 356 25 373 c 128,-1,50
 25 390 25 390 46 406 c 0,51,52
 67 421 67 421 86 425 c 1,53,54
 96 462 96 462 114 481 c 128,-1,55
 132 500 132 500 148 500 c 128,-1,56
 164 500 164 500 180 479.5 c 128,-1,57
 196 459 196 459 201 432 c 1,0,-1
208 302 m 1,58,-1
 216 241 l 1,59,-1
 274 249 l 1,60,61
 272 289 272 289 272 308 c 1,62,63
 228 306 228 306 208 305 c 1,64,-1
 208 302 l 1,58,-1
EndSplineSet
Validated: 1
EndChar

StartChar: dollar
Encoding: 36 36 7
Width: 314
GlyphClass: 2
Flags: W
HStem: 37 135<101.621 175.361> 523 149<114.027 182.751>
VStem: 16 82<431.509 509.088> 93 83<57.6245 121.997> 114 72<595 667.894> 207 95<191.414 286.062>
LayerCount: 2
Fore
SplineSet
176 110 m 2,0,-1
 178 52 l 2,1,2
 178 42 178 42 177 42 c 2,3,-1
 157.5 38.5 l 2,4,5
 149 37 149 37 141 37 c 0,6,7
 108 37 108 37 96 57 c 1,8,9
 92 77 92 77 92 95 c 2,10,-1
 93 121 l 1,11,-1
 93 122 l 1,12,13
 90 123 90 123 80.5 125 c 128,-1,14
 71 127 71 127 67.5 128 c 128,-1,15
 64 129 64 129 57 132 c 128,-1,16
 50 135 50 135 46.5 137.5 c 0,17,18
 36 145 36 145 30 154 c 0,19,20
 9 186 9 186 9 209 c 128,-1,21
 9 232 9 232 25 263 c 1,22,23
 29 273 29 273 37 273 c 128,-1,24
 45 273 45 273 61.5 247.5 c 128,-1,25
 78 222 78 222 99 197 c 128,-1,26
 120 172 120 172 140 172 c 2,27,-1
 144 172 l 1,28,29
 172 175 172 175 189 196 c 128,-1,30
 206 217 206 217 207 246 c 1,31,-1
 207 248 l 2,32,33
 207 265.333 207 265.333 199 274.667 c 128,-1,34
 191 284 191 284 188 287 c 128,-1,35
 185 290 185 290 174 298.5 c 128,-1,36
 163 307 163 307 161 309 c 0,37,38
 144 323 144 323 97 329.5 c 128,-1,39
 50 336 50 336 36 362 c 0,40,41
 16 400 16 400 16 426 c 0,42,43
 16 430 16 430 16.5 438.5 c 128,-1,44
 17 447 17 447 17 453 c 0,45,46
 18 493 18 493 40 519.5 c 128,-1,47
 62 546 62 546 104 572 c 0,48,49
 107.455 574.303 107.455 574.303 109.727 609.151 c 128,-1,50
 112 644 112 644 114 661 c 1,51,52
 147 672 147 672 156 672 c 0,53,54
 179 672 179 672 186 652 c 1,55,-1
 186 639 l 1,56,-1
 183 595 l 2,57,58
 183 585 183 585 190 584 c 0,59,60
 250 568 250 568 269 521 c 0,61,62
 276 504 276 504 276 490.5 c 128,-1,63
 276 477 276 477 265.5 456 c 128,-1,64
 255 435 255 435 251 435 c 128,-1,65
 247 435 247 435 240.5 448 c 0,66,67
 219 491 219 491 207 499 c 0,68,69
 171 523 171 523 160 523 c 128,-1,70
 149 523 149 523 136.5 519 c 128,-1,71
 124 515 124 515 111 500.5 c 128,-1,72
 98 486 98 486 98 473.5 c 128,-1,73
 98 461 98 461 99 458 c 0,74,75
 104 433 104 433 144 421.5 c 128,-1,76
 184 410 184 410 194 402 c 128,-1,77
 204 394 204 394 225 379 c 128,-1,78
 246 364 246 364 255 356 c 0,79,80
 282 332 282 332 292 302 c 128,-1,81
 302 272 302 272 302 242 c 128,-1,82
 302 212 302 212 283 184.5 c 128,-1,83
 264 157 264 157 247.5 146.5 c 128,-1,84
 231 136 231 136 218 132 c 128,-1,85
 205 128 205 128 178 122 c 0,86,87
 176 122 176 122 176 110 c 2,0,-1
EndSplineSet
Validated: 1
EndChar

StartChar: percent
Encoding: 37 37 8
Width: 793
GlyphClass: 2
Flags: W
HStem: 22 92<93.5936 156.75> 28 65<274.004 305.996> 43.5 80.5<34.6372 67.8112> 49 46<537.98 640.98> 259 43<536.183 639.504> 487 46<102.98 205.98> 676 74<705.095 756.254> 676 49<705.095 771.407> 697 43<101.183 204.504 559.006 611.453>
VStem: 32 43<560.17 670.57> 232 59<559.326 670.398> 467 43<122.17 232.57> 667 59<121.326 232.398>
LayerCount: 2
Fore
SplineSet
282 28 m 1,0,-1
 145 22 l 1,1,2
 108 22 108 22 68 28 c 1,3,4
 62 35 62 35 50.5 43.5 c 0,5,6
 26 61.6087 26 61.6087 26 80.3044 c 128,-1,7
 26 99 26 99 46.5 111.5 c 128,-1,8
 67 124 67 124 80 124 c 1,9,-1
 128 114 l 1,10,11
 138 114 138 114 145 122 c 2,12,-1
 333 348 l 2,13,14
 364 384 364 384 390.5 412 c 2,15,-1
 453 477 l 1,16,17
 501 530 501 530 535.5 585 c 128,-1,18
 570 640 570 640 612 686 c 1,19,20
 609 696 609 696 584 698.5 c 128,-1,21
 559 701 559 701 559 718 c 128,-1,22
 559 735 559 735 577 745 c 1,23,24
 619 745 619 745 649 747.5 c 128,-1,25
 679 750 679 750 686 750 c 128,-1,26
 693 750 693 750 765 725 c 1,27,28
 772 717 772 717 772 705 c 128,-1,29
 772 693 772 693 764.5 681.5 c 128,-1,30
 757 670 757 670 746 670 c 1,31,32
 715 676 l 1,33,34
 708 676 708 676 705 674 c 0,35,36
 629 592 629 592 577.5 519 c 128,-1,37
 526 446 526 446 503.5 417.5 c 2,38,-1
 412 303.5 l 2,39,40
 343 218 343 218 290 139 c 1,41,42
 289 135 289 135 281.5 124.5 c 128,-1,43
 274 114 274 114 274 107 c 0,44,45
 274 93 274 93 290 93 c 1,46,-1
 311 95 l 1,47,48
 326 95 326 95 326 79 c 0,49,50
 326 67 326 67 306 50.5 c 128,-1,51
 286 34 286 34 282 28 c 1,0,-1
544 68 m 1,52,53
 494 94 494 94 477 135 c 1,54,55
 467 163 467 163 467 186 c 128,-1,56
 467 209 467 209 484.5 243 c 128,-1,57
 502 277 502 277 532.5 289.5 c 128,-1,58
 563 302 563 302 581.5 302 c 128,-1,59
 600 302 600 302 634 293 c 1,60,61
 689 275 689 275 707.5 244 c 128,-1,62
 726 213 726 213 726 186.5 c 128,-1,63
 726 160 726 160 717 135 c 1,64,65
 699 78 699 78 652 59 c 0,66,67
 628 49 628 49 603 49 c 128,-1,68
 578 49 578 49 544 68 c 1,52,53
619 102 m 0,69,70
 653 119 653 119 664 155 c 0,71,72
 667 165 667 165 667 179.5 c 128,-1,73
 667 194 667 194 654 218.5 c 0,74,75
 632.51 259 632.51 259 586 259 c 0,76,77
 568 259 568 259 551 249 c 1,78,79
 526 236 526 236 515 200 c 0,80,81
 510 183 510 183 510 168.5 c 128,-1,82
 510 154 510 154 520 137 c 0,83,84
 537 107 537 107 575 98 c 0,85,86
 585 95 585 95 595.5 95 c 128,-1,87
 606 95 606 95 619 102 c 0,69,70
109 506 m 1,88,89
 59 532 59 532 42 573 c 1,90,91
 32 601 32 601 32 624 c 128,-1,92
 32 647 32 647 49.5 681 c 128,-1,93
 67 715 67 715 97.5 727.5 c 128,-1,94
 128 740 128 740 146.5 740 c 128,-1,95
 165 740 165 740 199 731 c 1,96,97
 254 713 254 713 272.5 682 c 128,-1,98
 291 651 291 651 291 624.5 c 128,-1,99
 291 598 291 598 282 573 c 1,100,101
 264 516 264 516 217 497 c 0,102,103
 193 487 193 487 168 487 c 128,-1,104
 143 487 143 487 109 506 c 1,88,89
184 540 m 0,105,106
 218 557 218 557 229 593 c 0,107,108
 232 604 232 604 232 618 c 128,-1,109
 232 632 232 632 219 656.5 c 0,110,111
 197.51 697 197.51 697 151 697 c 0,112,113
 133 697 133 697 116 687 c 1,114,115
 91 674 91 674 80 638 c 0,116,117
 75 621 75 621 75 606.5 c 128,-1,118
 75 592 75 592 85 575 c 0,119,120
 102 545 102 545 140 536 c 0,121,122
 150 533 150 533 160.5 533 c 128,-1,123
 171 533 171 533 184 540 c 0,105,106
EndSplineSet
Validated: 1
EndChar

StartChar: ampersand
Encoding: 38 38 9
Width: 943
GlyphClass: 2
Flags: W
HStem: -1 114<282.311 525.033> 280 91<472.071 565.017> 408 118<205.99 300.659> 460 36<705.863 771.875> 468 67<486.059 615.71> 637 98<229.344 316.904>
VStem: 56 96<215.361 354.43> 124 78<531.363 609.673> 407 61<373.846 449.103> 664 30<374.875 396.611> 782 99<512.629 625>
LayerCount: 2
Fore
SplineSet
711 360 m 1,0,-1
 722 241 l 1,1,2
 722 189 722 189 685 141 c 1,3,-1
 661.5 109 l 2,4,5
 615.578 47.7711 615.578 47.7711 583 32.5 c 0,6,7
 567 25 567 25 505.5 12 c 128,-1,8
 444 -1 444 -1 392 -1 c 128,-1,9
 340 -1 340 -1 278.956 13.5224 c 128,-1,10
 217.912 28.0448 217.912 28.0448 182.5 46 c 128,-1,11
 147 64 147 64 118 103 c 0,12,13
 56 188 56 188 56 260 c 0,14,15
 56 293 56 293 73 340.5 c 128,-1,16
 90 388 90 388 104.5 413.5 c 128,-1,17
 119 439 119 439 127 440 c 0,18,19
 152.984 443.248 152.984 443.248 169 468 c 1,20,21
 164 489 164 489 144 513.5 c 128,-1,22
 124 538 124 538 124 558 c 0,23,24
 125 608 125 608 141.5 642.5 c 128,-1,25
 158 677 158 677 206 706 c 128,-1,26
 254 735 254 735 291.5 735 c 128,-1,27
 329 735 329 735 347.5 717 c 128,-1,28
 366 699 366 699 366 681.5 c 128,-1,29
 366 664 366 664 353.5 646.5 c 128,-1,30
 341 629 341 629 322 629 c 1,31,-1
 273 637 l 1,32,33
 252 637 252 637 227 613 c 128,-1,34
 202 589 202 589 202 565 c 0,35,36
 202 526 202 526 257 526 c 2,37,-1
 268 526 l 2,38,39
 284 526 284 526 294 524.5 c 128,-1,40
 304 523 304 523 315.5 512.5 c 128,-1,41
 327 502 327 502 327 477.5 c 128,-1,42
 327 453 327 453 290 420 c 0,43,44
 276 407 276 407 248 407 c 2,45,-1
 218 408 l 1,46,47
 186 408 186 408 178 387 c 0,48,49
 152 321 152 321 152 285 c 128,-1,50
 152 249 152 249 186 195 c 0,51,52
 199 173.333 199 173.333 216.5 162.5 c 2,53,-1
 232.5 152.5 l 2,54,55
 238 149 238 149 252.5 144.5 c 128,-1,56
 267 140 267 140 271 138.5 c 128,-1,57
 275 137 275 137 294 132.5 c 128,-1,58
 313 128 313 128 341.5 120.5 c 128,-1,59
 370 113 370 113 408.5 113 c 128,-1,60
 447 113 447 113 496 126.5 c 128,-1,61
 545 140 545 140 575 156 c 128,-1,62
 605 172 605 172 628 207 c 0,63,64
 664 260 664 260 664 315 c 0,65,66
 664 345 664 345 655 378 c 0,67,68
 631.462 468 631.462 468 545 468 c 0,69,70
 511 468 511 468 489.5 449 c 128,-1,71
 468 430 468 430 468 412.5 c 128,-1,72
 468 395 468 395 478.5 383 c 128,-1,73
 489 371 489 371 502 371 c 128,-1,74
 515 371 515 371 538.5 380 c 128,-1,75
 562 389 562 389 574 389 c 128,-1,76
 586 389 586 389 592.5 378 c 128,-1,77
 599 367 599 367 599 356 c 0,78,79
 599 330 599 330 568.5 305 c 128,-1,80
 538 280 538 280 499.5 280 c 128,-1,81
 461 280 461 280 434 311 c 128,-1,82
 407 342 407 342 407 384.5 c 0,83,84
 407 434.5 407 434.5 438 481 c 0,85,86
 442 487 442 487 448 492 c 128,-1,87
 454 497 454 497 457.5 500.5 c 128,-1,88
 461 504 461 504 469.5 508 c 2,89,-1
 481 513.5 l 2,90,91
 493.333 519.667 493.333 519.667 501.667 521.333 c 0,92,93
 530 527 530 527 540 531 c 128,-1,94
 550 535 550 535 574 535 c 128,-1,95
 598 535 598 535 655.5 515.5 c 128,-1,96
 713 496 713 496 732.5 496 c 128,-1,97
 752 496 752 496 764 506 c 0,98,99
 782 521 782 521 782 538 c 0,100,101
 782 551 782 551 747.5 563.5 c 128,-1,102
 713 576 713 576 709 594 c 1,103,104
 707 608 707 608 707 616 c 0,105,106
 707 653 707 653 729 675.5 c 128,-1,107
 751 698 751 698 790 698 c 0,108,109
 810 698 810 698 828 692.5 c 128,-1,110
 846 687 846 687 863.5 665 c 128,-1,111
 881 643 881 643 881 607 c 0,112,113
 881 521 881 521 826 471 c 0,114,115
 811 457 811 457 785 457 c 1,116,-1
 742 460 l 1,117,118
 717 460 717 460 705.5 448 c 128,-1,119
 694 436 694 436 694 425 c 128,-1,120
 694 414 694 414 702.5 393.5 c 128,-1,121
 711 373 711 373 711 360 c 1,0,-1
EndSplineSet
Validated: 1
EndChar

StartChar: quotesingle
Encoding: 39 39 10
Width: 288
GlyphClass: 2
Flags: W
HStem: 733 20G<130.365 164.788>
VStem: 47 205<533.564 702.521> 116 76<293.082 506.269>
LayerCount: 2
Fore
SplineSet
116 328 m 2,0,-1
 118 439 l 2,1,2
 118 474 118 474 117 492 c 1,3,4
 85 511 85 511 75 524.5 c 128,-1,5
 65 538 65 538 56 563 c 128,-1,6
 47 588 47 588 47 611 c 128,-1,7
 47 634 47 634 53 651.5 c 128,-1,8
 59 669 59 669 62.5 682 c 128,-1,9
 66 695 66 695 68 699.5 c 2,10,-1
 75 715 l 2,11,12
 80 726 80 726 85.5 730.5 c 2,13,-1
 99 741.5 l 2,14,15
 113.154 753 113.154 753 147.577 753 c 128,-1,16
 182 753 182 753 217 717.5 c 128,-1,17
 252 682 252 682 252 633 c 0,18,19
 252 614 252 614 242 562 c 0,20,21
 239 544 239 544 213.5 508.5 c 128,-1,22
 188 473 188 473 188 425 c 1,23,-1
 192 345 l 1,24,25
 192 311 192 311 178 292.5 c 128,-1,26
 164 274 164 274 126 273 c 1,27,28
 116 283 116 283 116 328 c 2,0,-1
EndSplineSet
Validated: 1
EndChar

StartChar: parenleft
Encoding: 40 40 11
Width: 256
GlyphClass: 2
Flags: W
VStem: 33 77<32.7538 383.459> 138 110<-242.312 -186.021>
LayerCount: 2
Fore
SplineSet
138 -234 m 0,0,1
 100 -152 100 -152 82.5 -103.5 c 128,-1,2
 65 -55 65 -55 49 48.5 c 128,-1,3
 33 152 33 152 33 224.5 c 128,-1,4
 33 297 33 297 56 391.5 c 128,-1,5
 79 486 79 486 109 547.5 c 128,-1,6
 139 609 139 609 198 672 c 0,7,8
 201 675 201 675 207 675 c 128,-1,9
 213 675 213 675 221.5 666.5 c 128,-1,10
 230 658 230 658 230 652.5 c 128,-1,11
 230 647 230 647 229 645 c 0,12,13
 177 535 177 535 159 487 c 128,-1,14
 141 439 141 439 125.5 345.5 c 128,-1,15
 110 252 110 252 110 191 c 128,-1,16
 110 130 110 130 125 63.5 c 128,-1,17
 140 -3 140 -3 151 -28 c 128,-1,18
 162 -53 162 -53 190 -101 c 0,19,20
 248 -200.429 248 -200.429 248 -215.714 c 128,-1,21
 248 -231 248 -231 226.5 -242 c 128,-1,22
 205 -253 205 -253 176 -253 c 128,-1,23
 147 -253 147 -253 138 -234 c 0,0,1
EndSplineSet
Validated: 1
EndChar

StartChar: asterisk
Encoding: 42 42 13
Width: 534
GlyphClass: 2
Flags: W
HStem: 442 83<48.5352 196.373> 470 75<371.599 489.916> 470 67.5<371.599 498.685>
VStem: 242 80.5<269.253 412.874> 242 66<567.876 707.717>
LayerCount: 2
Fore
SplineSet
310 681 m 2,0,-1
 308 628 l 1,1,2
 308 595 308 595 317 567 c 1,3,4
 320 572 320 572 333 592.5 c 128,-1,5
 346 613 346 613 357 628 c 128,-1,6
 368 643 368 643 385.5 658 c 128,-1,7
 403 673 403 673 417.5 673 c 128,-1,8
 432 673 432 673 446 662.5 c 128,-1,9
 460 652 460 652 460 639 c 0,10,11
 460 607 460 607 371 549 c 1,12,13
 390 545 390 545 431 545 c 128,-1,14
 472 545 472 545 490.5 537.5 c 128,-1,15
 509 530 509 530 509 507.5 c 128,-1,16
 509 485 509 485 499 477.5 c 128,-1,17
 489 470 489 470 469 470 c 2,18,-1
 412 472 l 2,19,20
 388 472 388 472 365 468 c 1,21,22
 377 447 377 447 400 423 c 128,-1,23
 423 399 423 399 437.5 381 c 128,-1,24
 452 363 452 363 452 350 c 128,-1,25
 452 337 452 337 439.5 326.5 c 128,-1,26
 427 316 427 316 417 316 c 128,-1,27
 407 316 407 316 397 331.5 c 128,-1,28
 387 347 387 347 369.5 372 c 128,-1,29
 352 397 352 397 329 414 c 1,30,31
 324 378 324 378 322.5 338 c 128,-1,32
 321 298 321 298 318 284 c 0,33,34
 313 261 313 261 284.5 261 c 128,-1,35
 256 261 256 261 247.5 269 c 128,-1,36
 239 277 239 277 239 296 c 2,37,-1
 242 366 l 2,38,39
 242 387 242 387 239 414 c 1,40,41
 223 402 223 402 207 372 c 0,42,43
 190 340 190 340 176 320 c 0,44,45
 161 298 161 298 142 298 c 0,46,47
 124 298 124 298 104.5 312 c 128,-1,48
 85 326 85 326 85 341 c 128,-1,49
 85 356 85 356 110 375 c 2,50,-1
 168 416 l 2,51,52
 201 439 201 439 212 459 c 1,53,54
 200 458 200 458 155.5 450 c 128,-1,55
 111 442 111 442 89 442 c 0,56,57
 31 442 31 442 31 487 c 0,58,59
 31 510 31 510 48 517.5 c 128,-1,60
 65 525 65 525 98 525 c 2,61,-1
 148 524 l 2,62,63
 177 524 177 524 197 528 c 1,64,65
 180 547 180 547 151.5 565.5 c 128,-1,66
 123 584 123 584 106 597.5 c 128,-1,67
 89 611 89 611 89 623.5 c 128,-1,68
 89 636 89 636 101.5 649.5 c 128,-1,69
 114 663 114 663 126 663 c 0,70,71
 139 663 139 663 148 658 c 0,72,73
 163 650 163 650 190 621 c 2,74,-1
 242 564 l 1,75,-1
 242 583 l 1,76,-1
 238 680 l 2,77,78
 238 701 238 701 246 708.5 c 128,-1,79
 254 716 254 716 278 717 c 1,80,-1
 279 717 l 2,81,82
 297 717 297 717 303.5 708 c 128,-1,83
 310 699 310 699 310 681 c 2,0,-1
EndSplineSet
Validated: 1
EndChar

StartChar: plus
Encoding: 43 43 14
Width: 346
GlyphClass: 2
Flags: W
HStem: 67 294<125.481 201.529>
VStem: 24 295<169.004 252.539>
LayerCount: 2
Fore
SplineSet
100 270 m 1,0,1
 102 306 102 306 117 328 c 0,2,3
 139.5 361 139.5 361 163.25 361 c 128,-1,4
 187 361 187 361 202 346 c 1,5,6
 225 326 225 326 227 283 c 1,7,8
 274 283 274 283 296.5 261 c 128,-1,9
 319 239 319 239 319 213 c 0,10,11
 319 185.692 319 185.692 295 167.846 c 128,-1,12
 271 150 271 150 238 148 c 1,13,-1
 235.5 128 l 2,14,15
 232.537 104.298 232.537 104.298 226.269 96.1492 c 128,-1,16
 220 88 220 88 205 77.5 c 128,-1,17
 190 67 190 67 175 67 c 128,-1,18
 160 67 160 67 148 71 c 128,-1,19
 136 75 136 75 121.5 94 c 128,-1,20
 107 113 107 113 105 145 c 1,21,22
 66 148 66 148 45 169 c 128,-1,23
 24 190 24 190 24 204.5 c 128,-1,24
 24 219 24 219 28 230.5 c 128,-1,25
 32 242 32 242 50.5 256 c 128,-1,26
 69 270 69 270 100 270 c 1,0,1
EndSplineSet
Validated: 1
EndChar

StartChar: comma
Encoding: 44 44 15
Width: 322
GlyphClass: 2
Flags: W
HStem: -183 78<72.2617 139.98>
VStem: 153 117<-64.1125 67>
LayerCount: 2
Fore
SplineSet
72 76 m 0,0,1
 72 127 72 127 98 151.5 c 128,-1,2
 124 176 124 176 149 176 c 128,-1,3
 174 176 174 176 208 162 c 128,-1,4
 242 148 242 148 258 108 c 0,5,6
 270 80 270 80 270 54 c 128,-1,7
 270 28 270 28 262.5 -10 c 128,-1,8
 255 -48 255 -48 241.5 -79.5 c 128,-1,9
 228 -111 228 -111 202 -139 c 128,-1,10
 176 -167 176 -167 161 -175 c 128,-1,11
 146 -183 146 -183 120 -183 c 0,12,13
 65 -183 65 -183 65 -146 c 0,14,15
 65 -120.529 65 -120.529 109 -105 c 0,16,17
 126 -99 126 -99 139.5 -83.5 c 128,-1,18
 153 -68 153 -68 153 -45.5 c 128,-1,19
 153 -23 153 -23 141.5 -11 c 128,-1,20
 130 1 130 1 116 4 c 0,21,22
 78.4211 12.0526 78.4211 12.0526 75.2105 34.5263 c 128,-1,23
 72 57 72 57 72 76 c 0,0,1
EndSplineSet
Validated: 1
EndChar

StartChar: hyphen
Encoding: 45 45 16
Width: 346
GlyphClass: 2
Flags: W
HStem: 144 126<49.2588 229.113> 147 136<114.125 296.307>
VStem: 24 295<168.765 251.778>
LayerCount: 2
Fore
SplineSet
192 147 m 1,0,-1
 123 144 l 1,1,2
 61 144 61 144 33 183 c 0,3,4
 24 196 24 196 24 212 c 0,5,6
 24 229 24 229 38 244 c 0,7,8
 61 271 61 271 109 271 c 0,9,10
 112 271 112 271 114 270 c 1,11,-1
 122 270 l 1,12,13
 153 272 153 272 156 273 c 0,14,15
 186 283 186 283 230.5 283 c 128,-1,16
 275 283 275 283 297 261.5 c 128,-1,17
 319 240 319 240 319 218.5 c 128,-1,18
 319 197 319 197 310 184 c 128,-1,19
 301 171 301 171 292.5 164 c 128,-1,20
 284 157 284 157 269 153.5 c 128,-1,21
 254 150 254 150 248 149 c 0,22,23
 234 147 234 147 192 147 c 1,0,-1
EndSplineSet
Validated: 1
EndChar

StartChar: period
Encoding: 46 46 17
Width: 303
GlyphClass: 2
Flags: W
HStem: 10 176<92.1545 187.438>
VStem: 65 153<33.7964 152.766>
LayerCount: 2
Fore
SplineSet
203 42 m 0,0,1
 178 10 178 10 134.045 10 c 128,-1,2
 90.0909 10 90.0909 10 77.5455 40 c 128,-1,3
 65 70 65 70 65 95 c 128,-1,4
 65 120 65 120 77 141 c 1,5,6
 100 186 100 186 140 186 c 128,-1,7
 180 186 180 186 203 141 c 1,8,9
 218 114 218 114 218 88 c 128,-1,10
 218 62 218 62 203 42 c 0,0,1
EndSplineSet
Validated: 1
EndChar

StartChar: slash
Encoding: 47 47 18
Width: 793
GlyphClass: 2
Flags: W
HStem: 22 92<93.5936 156.75> 28 65<274.004 305.996> 43.5 80.5<34.6372 67.8112> 676 74<705.095 756.254> 676 49<705.095 771.407> 698.5 46.5<559.391 611.453>
LayerCount: 2
Fore
SplineSet
282 28 m 1,0,-1
 145 22 l 1,1,2
 108 22 108 22 68 28 c 1,3,4
 62 35 62 35 50.5 43.5 c 0,5,6
 26 61.6087 26 61.6087 26 80.3044 c 128,-1,7
 26 99 26 99 46.5 111.5 c 128,-1,8
 67 124 67 124 80 124 c 1,9,-1
 128 114 l 1,10,11
 138 114 138 114 145 122 c 2,12,-1
 333 348 l 2,13,14
 364 384 364 384 390.5 412 c 2,15,-1
 453 477 l 1,16,17
 501 530 501 530 535.5 585 c 128,-1,18
 570 640 570 640 612 686 c 1,19,20
 609 696 609 696 584 698.5 c 128,-1,21
 559 701 559 701 559 718 c 128,-1,22
 559 735 559 735 577 745 c 1,23,24
 619 745 619 745 649 747.5 c 128,-1,25
 679 750 679 750 686 750 c 128,-1,26
 693 750 693 750 765 725 c 1,27,28
 772 717 772 717 772 705 c 128,-1,29
 772 693 772 693 764.5 681.5 c 128,-1,30
 757 670 757 670 746 670 c 1,31,32
 715 676 l 1,33,34
 708 676 708 676 705 674 c 0,35,36
 629 592 629 592 577.5 519 c 128,-1,37
 526 446 526 446 503.5 417.5 c 2,38,-1
 412 303.5 l 2,39,40
 343 218 343 218 290 139 c 1,41,42
 289 135 289 135 281.5 124.5 c 128,-1,43
 274 114 274 114 274 107 c 0,44,45
 274 93 274 93 290 93 c 1,46,-1
 311 95 l 1,47,48
 326 95 326 95 326 79 c 0,49,50
 326 67 326 67 306 50.5 c 128,-1,51
 286 34 286 34 282 28 c 1,0,-1
EndSplineSet
Validated: 1
EndChar

StartChar: zero
Encoding: 48 48 19
Width: 560
GlyphClass: 2
Flags: W
HStem: -5 92<205.029 340.385> 415 86<185.774 344.931>
VStem: 23 86<165.838 330.349> 422 118<168.7 329.317>
LayerCount: 2
Fore
SplineSet
474 74 m 128,-1,1
 444 38 444 38 392.5 16.5 c 128,-1,2
 341 -5 341 -5 292 -5 c 128,-1,3
 243 -5 243 -5 184 28 c 128,-1,4
 125 61 125 61 93 91 c 128,-1,5
 61 121 61 121 42 170.5 c 128,-1,6
 23 220 23 220 23 269 c 128,-1,7
 23 318 23 318 48.1752 367.665 c 128,-1,8
 73.3504 417.33 73.3504 417.33 99 441.5 c 128,-1,9
 124.83 465.84 124.83 465.84 167.915 483.42 c 128,-1,10
 211 501 211 501 252.5 501 c 128,-1,11
 294 501 294 501 354 483.5 c 128,-1,12
 414 466 414 466 447.374 445.577 c 128,-1,13
 480.749 425.154 480.749 425.154 510.374 375.077 c 128,-1,14
 540 325 540 325 540 273 c 128,-1,15
 540 221 540 221 522 165.5 c 128,-1,0
 504 110 504 110 474 74 c 128,-1,1
326 101 m 0,16,17
 396 137 396 137 416 207 c 0,18,19
 422 230 422 230 422 257.5 c 128,-1,20
 422 285 422 285 403 322.5 c 128,-1,21
 384 360 384 360 369.5 375 c 128,-1,22
 355 390 355 390 324.5 402.5 c 128,-1,23
 294 415 294 415 261 415 c 128,-1,24
 228 415 228 415 191 396 c 0,25,26
 139 369 139 369 119 297 c 0,27,28
 109 262 109 262 109 234 c 128,-1,29
 109 206 109 206 127.5 172 c 128,-1,30
 146 138 146 138 172 121 c 128,-1,31
 198 104 198 104 228 95.5 c 128,-1,32
 258 87 258 87 278 87 c 128,-1,33
 298 87 298 87 326 101 c 0,16,17
EndSplineSet
Validated: 1
Substitution2: "Proportional number lookup-1" uniE010
EndChar

StartChar: one
Encoding: 49 49 20
Width: 560
GlyphClass: 2
Flags: W
HStem: 15 78<152.562 212.842 372.064 395.874> 418 101<162.451 215.811 371.06 395.906>
VStem: 157 249<420.687 513.618> 216 156<90.4688 417.156>
LayerCount: 2
Fore
SplineSet
199 418 m 1,0,-1
 180 415 l 1,1,2
 169 415 169 415 163 434 c 128,-1,3
 157 453 157 453 157 467 c 0,4,5
 157 502 157 502 180 519 c 1,6,-1
 378 519 l 1,7,8
 406 495 406 495 406 460 c 0,9,10
 406 442 406 442 396 420 c 0,11,12
 393 414 393 414 388 416.5 c 0,13,14
 372.826 424.087 372.826 424.087 371 404 c 1,15,-1
 372 226 l 1,16,-1
 372 96 l 1,17,18
 374 90 374 90 383 90 c 128,-1,19
 392 90 392 90 396 87 c 1,20,21
 404 77 404 77 411.5 54 c 128,-1,22
 419 31 419 31 419 19 c 1,23,24
 203 15 203 15 161 15 c 0,25,26
 145 15 145 15 145 34.5 c 128,-1,27
 145 54 145 54 153.5 73.5 c 128,-1,28
 162 93 162 93 175 93 c 1,29,-1
 197 90 l 1,30,31
 208 90 208 90 213 102 c 1,32,33
 216 231 216 231 216 244 c 2,34,-1
 216 405 l 1,35,36
 210 418 210 418 199 418 c 1,0,-1
EndSplineSet
Validated: 1
Substitution2: "Proportional number lookup-1" uniE011
EndChar

StartChar: two
Encoding: 50 50 21
Width: 560
GlyphClass: 2
Flags: W
HStem: 25 95<281.647 378.359> 437 84<220.915 346.5>
VStem: 316 115<307.049 423.323> 377 102<128 169.812>
LayerCount: 2
Fore
SplineSet
238 17 m 2,0,-1
 92 22 l 2,1,2
 82 22 82 22 82 35 c 128,-1,3
 82 48 82 48 92 64 c 0,4,5
 131 127 131 127 199 190 c 128,-1,6
 267 253 267 253 299 315 c 0,7,8
 316 349 316 349 316 374 c 128,-1,9
 316 399 316 399 299 418 c 128,-1,10
 282 437 282 437 259 437 c 128,-1,11
 236 437 236 437 211.5 428.5 c 128,-1,12
 187 420 187 420 175 407.5 c 128,-1,13
 163 395 163 395 147 373.5 c 128,-1,14
 131 352 131 352 110 334 c 1,15,16
 92 364 92 364 92 373 c 128,-1,17
 92 382 92 382 116 418 c 128,-1,18
 140 454 140 454 158.829 469.36 c 128,-1,19
 177.658 484.721 177.658 484.721 232.829 502.86 c 128,-1,20
 288 521 288 521 327 521 c 128,-1,21
 366 521 366 521 398.5 489.5 c 128,-1,22
 431 458 431 458 431 408 c 0,23,24
 431 380 431 380 418 332 c 128,-1,25
 405 284 405 284 359 241 c 128,-1,26
 313 198 313 198 299 176 c 1,27,28
 292 152 292 152 292 150 c 2,29,-1
 292 149 l 2,30,31
 292 146 292 146 281 120 c 1,32,-1
 377 120 l 1,33,34
 380 123 380 123 380 128 c 2,35,-1
 377 154 l 1,36,37
 377 164 377 164 383 170 c 1,38,39
 413 183 413 183 434 183 c 128,-1,40
 455 183 455 183 479 166 c 1,41,42
 462.742 90.1291 462.742 90.1291 452 77 c 0,43,44
 450 74 450 74 437 60.5 c 128,-1,45
 424 47 424 47 407 25 c 1,46,47
 246 17 246 17 238 17 c 2,0,-1
EndSplineSet
Validated: 1
Substitution2: "Proportional number lookup-1" uniE012
EndChar

StartChar: three
Encoding: 51 51 22
Width: 560
GlyphClass: 2
Flags: W
HStem: -253 101<176.75 285.755> 394 130<228.148 322>
VStem: 90 125<-151.446 -101.159> 313 111<324.226 449> 353 104<-79.4322 84.369>
LayerCount: 2
Fore
SplineSet
215 -121 m 2,0,-1
 215 -124 l 2,1,2
 215 -152 215 -152 245.5 -152 c 128,-1,3
 276 -152 276 -152 314 -105 c 0,4,5
 353 -58 353 -58 353 31 c 0,6,7
 353 64 353 64 333 84 c 128,-1,8
 313 104 313 104 271 104 c 128,-1,9
 229 104 229 104 204 86.5 c 128,-1,10
 179 69 179 69 144 66 c 1,11,12
 128 77 128 77 128 97.5 c 128,-1,13
 128 118 128 118 144 156 c 1,14,15
 176 191 176 191 222 234 c 128,-1,16
 268 277 268 277 290.5 300.5 c 128,-1,17
 313 324 313 324 313 339.5 c 128,-1,18
 313 355 313 355 295 374.5 c 128,-1,19
 277 394 277 394 251.5 394 c 128,-1,20
 226 394 226 394 209 382.5 c 128,-1,21
 192 371 192 371 184 356 c 0,22,23
 162 314 162 314 126 300 c 0,24,25
 123 299 123 299 121 299 c 0,26,27
 112 299 112 299 112 315.5 c 128,-1,28
 112 332 112 332 115 348.5 c 128,-1,29
 118 365 118 365 127 392 c 0,30,31
 147 450 147 450 217 495 c 0,32,33
 262 524 262 524 302 524 c 128,-1,34
 342 524 342 524 396 498 c 1,35,36
 424 471 424 471 424 427 c 0,37,38
 424 405 424 405 415.5 364 c 128,-1,39
 407 323 407 323 374 281 c 128,-1,40
 341 239 341 239 333 219 c 1,41,42
 339 207 339 207 356 207 c 2,43,-1
 381 208 l 1,44,45
 421 208 421 208 439 149.5 c 128,-1,46
 457 91 457 91 457 32 c 128,-1,47
 457 -27 457 -27 435.5 -80 c 128,-1,48
 414 -133 414 -133 393.5 -160 c 128,-1,49
 373 -187 373 -187 336 -207 c 0,50,51
 248 -253 248 -253 200.5 -253 c 128,-1,52
 153 -253 153 -253 121.5 -226 c 128,-1,53
 90 -199 90 -199 90 -161 c 128,-1,54
 90 -123 90 -123 117 -96 c 1,55,56
 134 -94 134 -94 151 -94 c 1,57,-1
 186 -97 l 1,58,-1
 207 -96 l 1,59,60
 215 -102 215 -102 215 -121 c 2,0,-1
EndSplineSet
Validated: 1
Substitution2: "Proportional number lookup-1" uniE013
EndChar

StartChar: four
Encoding: 52 52 23
Width: 560
GlyphClass: 2
Flags: W
HStem: 9 124<368.627 514.187> 18 87<100.001 169> 31 76<161.511 238.169 339.284 442.375>
VStem: 240 97<-213.875 24>
LayerCount: 2
Fore
SplineSet
239 -129 m 2,0,-1
 240 -47 l 2,1,2
 240 -19 240 -19 237 30 c 1,3,4
 224 31 224 31 198.5 31 c 128,-1,5
 173 31 173 31 142 24.5 c 128,-1,6
 111 18 111 18 90.5 18 c 128,-1,7
 70 18 70 18 18 30 c 0,8,9
 3 34 3 34 3 49 c 128,-1,10
 3 64 3 64 9 84 c 1,11,-1
 92 221 l 2,12,13
 130 285 130 285 138 300.5 c 128,-1,14
 146 316 146 316 171.5 352 c 128,-1,15
 197 388 197 388 218.5 414 c 2,16,-1
 303 516 l 1,17,18
 311 520 311 520 324.5 520 c 128,-1,19
 338 520 338 520 348 507 c 1,20,21
 357 420 357 420 357 394.5 c 128,-1,22
 357 369 357 369 339 114 c 1,23,24
 348 113 348 113 368 113 c 128,-1,25
 388 113 388 113 418 123 c 128,-1,26
 448 133 448 133 478 133 c 128,-1,27
 508 133 508 133 548 131 c 1,28,29
 557 117 557 117 557 102 c 0,30,31
 557 70 557 70 523.5 39.5 c 128,-1,32
 490 9 490 9 462 9 c 0,33,34
 454 9 454 9 422 17 c 128,-1,35
 390 25 390 25 356 25 c 1,36,-1
 336 24 l 1,37,-1
 339 -131 l 2,38,39
 339 -163 339 -163 337 -195 c 1,40,41
 313 -222 313 -222 287 -222 c 128,-1,42
 261 -222 261 -222 240 -204 c 1,43,44
 239 -173 239 -173 239 -129 c 2,0,-1
201 286 m 1,45,-1
 195 285 l 1,46,-1
 105 141 l 1,47,48
 100 121 100 121 100 115.5 c 128,-1,49
 100 110 100 110 105 105 c 1,50,-1
 169 107 l 2,51,52
 161 107 161 107 161 108 c 0,53,54
 177 110 177 110 240 114 c 1,55,-1
 240 249 l 1,56,57
 222 286 222 286 201 286 c 1,45,-1
EndSplineSet
Validated: 1
Substitution2: "Proportional number lookup-1" uniE014
EndChar

StartChar: five
Encoding: 53 53 24
Width: 560
GlyphClass: 2
Flags: W
HStem: -260 97<167.804 291.375> -228 137<56.5682 140.863> 126 56<211.582 368.659> 126 36<218.321 318.981>
VStem: 372 129<-50.7874 85.48> 406 131<462.898 523.531>
LayerCount: 2
Fore
SplineSet
193 162 m 1,0,1
 316.636 182 316.636 182 351.318 182 c 128,-1,2
 386 182 386 182 425.5 169.5 c 128,-1,3
 465 157 465 157 481 126 c 0,4,5
 501 85 501 85 501 37.5 c 128,-1,6
 501 -10 501 -10 466 -78.5 c 128,-1,7
 431 -147 431 -147 387 -182 c 128,-1,8
 343 -217 343 -217 289.5 -238.5 c 128,-1,9
 236 -260 236 -260 209.5 -260 c 128,-1,10
 183 -260 183 -260 145.5 -250.5 c 128,-1,11
 108 -241 108 -241 83.5 -228 c 128,-1,12
 59 -215 59 -215 43 -186 c 0,13,14
 34 -171 34 -171 34 -152 c 128,-1,15
 34 -133 34 -133 53.5 -112 c 128,-1,16
 73 -91 73 -91 96 -91 c 128,-1,17
 119 -91 119 -91 130 -100 c 128,-1,18
 141 -109 141 -109 145 -120.5 c 0,19,20
 156.215 -152.742 156.215 -152.742 179 -158 c 0,21,22
 204 -163 204 -163 222 -163 c 0,23,24
 272 -163 272 -163 308 -131 c 0,25,26
 372 -74.1111 372 -74.1111 372 8 c 0,27,28
 372 62 372 62 335 106 c 0,29,30
 318 126 318 126 296.5 126 c 128,-1,31
 275 126 275 126 244.5 119 c 128,-1,32
 214 112 214 112 181 77.5 c 128,-1,33
 148 43 148 43 119 40 c 1,34,-1
 113 40 l 2,35,36
 94 40 94 40 89 52 c 1,37,-1
 114 165 l 2,38,39
 146 314 146 314 161 354.5 c 128,-1,40
 176 395 176 395 232 489 c 2,41,-1
 259 534 l 1,42,43
 262 535 262 535 268 535 c 0,44,45
 285 535 285 535 305.5 504.5 c 128,-1,46
 326 474 326 474 346 467.5 c 128,-1,47
 366 461 366 461 371 461 c 0,48,49
 406 461 406 461 406 507 c 2,50,-1
 406 525 l 2,51,52
 406 569 406 569 435 569 c 0,53,54
 457 569 457 569 497 539.5 c 128,-1,55
 537 510 537 510 537 461 c 0,56,57
 537 438 537 438 526.5 408.5 c 128,-1,58
 516 379 516 379 506 362 c 2,59,-1
 495 344 l 1,60,61
 433 349 433 349 402 349 c 1,62,-1
 365 347 l 2,63,64
 349 347 349 347 309 352 c 1,65,66
 303 358 303 358 303 368 c 1,67,-1
 310 404 l 1,68,69
 310 420 310 420 294 420 c 1,70,-1
 264 418 l 1,71,-1
 259 418 l 1,72,73
 252 387 252 387 246.5 359 c 128,-1,74
 241 331 241 331 238.5 319.5 c 2,75,-1
 233.5 297 l 2,76,77
 228.222 273.778 228.222 273.778 224.611 264.389 c 128,-1,78
 221 255 221 255 217.5 244 c 2,79,-1
 193 162 l 1,0,1
EndSplineSet
Validated: 1
Substitution2: "Proportional number lookup-1" uniE015
EndChar

StartChar: six
Encoding: 54 54 25
Width: 560
GlyphClass: 2
Flags: W
HStem: 8 74<197.668 352.453> 408 60<245.169 358.853> 727 20G<375 424.5>
VStem: 19 116<169.869 338.5> 411 123<158.76 343.005>
LayerCount: 2
Fore
SplineSet
346 19 m 1,0,1
 289 8 289 8 254.5 8 c 128,-1,2
 220 8 220 8 170.5 29.5 c 128,-1,3
 121 51 121 51 88.6607 79.8566 c 128,-1,4
 56.3214 108.713 56.3214 108.713 44 158 c 0,5,6
 19 258 19 258 19 316 c 128,-1,7
 19 374 19 374 38 440 c 128,-1,8
 57 506 57 506 85 549.5 c 128,-1,9
 113 593 113 593 166 639 c 1,10,11
 233 695 233 695 285.5 720.5 c 128,-1,12
 338 746 338 746 412 747 c 0,13,14
 437 747 437 747 450.5 742.5 c 128,-1,15
 464 738 464 738 478 718 c 1,16,17
 440 689 440 689 398 670 c 128,-1,18
 356 651 356 651 332 630 c 2,19,-1
 303 606 l 2,20,21
 280 587 280 587 274.5 581.5 c 2,22,-1
 253 560.5 l 2,23,24
 237 545 237 545 230 534 c 2,25,-1
 212 504.5 l 2,26,27
 189 465.818 189 465.818 189 451.409 c 128,-1,28
 189 437 189 437 204 430 c 1,29,30
 227 438 227 438 248 447 c 2,31,-1
 277.5 459.5 l 2,32,33
 298.143 468 298.143 468 316 468 c 0,34,35
 427 468 427 468 482 393 c 1,36,37
 534 319 534 319 534 252 c 0,38,39
 534 206 534 206 515 165 c 128,-1,40
 496 124 496 124 478.5 104 c 128,-1,41
 461 84 461 84 425 56.5 c 128,-1,42
 389 29 389 29 346 19 c 1,0,1
411 241 m 0,43,44
 411 303 411 303 399 336 c 128,-1,45
 387 369 387 369 355 388.5 c 128,-1,46
 323 408 323 408 285.5 408 c 128,-1,47
 248 408 248 408 206 386 c 0,48,49
 135 348 135 348 135 238 c 0,50,51
 135 172 135 172 182 118 c 0,52,53
 213 82 213 82 288 82 c 0,54,55
 328 82 328 82 356 107 c 0,56,57
 411 156 411 156 411 241 c 0,43,44
EndSplineSet
Validated: 1
Substitution2: "Proportional number lookup-1" uniE016
EndChar

StartChar: seven
Encoding: 55 55 26
Width: 560
GlyphClass: 2
Flags: W
HStem: 598 114<218.315 304.24>
LayerCount: 2
Fore
SplineSet
90 -18 m 1,0,1
 142 138 142 138 179 210 c 128,-1,2
 216 282 216 282 230 317 c 128,-1,3
 244 352 244 352 268 395 c 128,-1,4
 292 438 292 438 304 473.5 c 128,-1,5
 316 509 316 509 316 556 c 1,6,7
 301 598 301 598 244 598 c 0,8,9
 201.375 598 201.375 598 180 579 c 2,10,-1
 148 551.5 l 2,11,12
 125 532 125 532 100 514 c 1,13,14
 56 514 56 514 46 544 c 1,15,16
 67 646 67 646 78.5 670.5 c 128,-1,17
 90 695 90 695 142 745 c 1,18,19
 160 755 160 755 177.5 755 c 128,-1,20
 195 755 195 755 214 741 c 0,21,22
 218 738 218 738 218 727.5 c 128,-1,23
 218 717 218 717 226 712 c 1,24,-1
 532 712 l 1,25,-1
 366.5 372 l 2,26,27
 347 332 347 332 312.5 251 c 1,28,-1
 224 36 l 1,29,30
 220 32 220 32 210.5 19 c 0,31,32
 191.303 -7.26971 191.303 -7.26971 173.651 -9.13486 c 128,-1,33
 156 -11 156 -11 145.5 -12.5 c 128,-1,34
 135 -14 135 -14 133 -15 c 0,35,36
 127 -18 127 -18 115.5 -18 c 2,37,-1
 90 -18 l 1,0,1
EndSplineSet
Validated: 1
Substitution2: "Proportional number lookup-1" uniE017
EndChar

StartChar: eight
Encoding: 56 56 27
Width: 560
GlyphClass: 2
Flags: W
HStem: -2 85<197.164 323.199> 297 135<193.587 328.012> 636 90<189.448 320.339>
VStem: 74 80<470.177 599.862> 92 64<124.934 261.203> 365 123<122.318 262.2 479.715 594.21>
LayerCount: 2
Fore
SplineSet
193 358 m 1,0,1
 159 379 159 379 146 388.5 c 0,2,3
 113.111 412.535 113.111 412.535 95 456 c 1,4,5
 74 513 74 513 74 558 c 128,-1,6
 74 603 74 603 103 654 c 0,7,8
 118 680 118 680 140 692 c 128,-1,9
 162 704 162 704 203 715 c 128,-1,10
 244 726 244 726 285 726 c 128,-1,11
 326 726 326 726 371 707 c 128,-1,12
 416 688 416 688 436.5 670.5 c 128,-1,13
 456.973 653.023 456.973 653.023 471.486 623.012 c 128,-1,14
 486 593 486 593 486 570 c 128,-1,15
 486 547 486 547 484 534.5 c 128,-1,16
 482 522 482 522 479.5 512.5 c 128,-1,17
 477 503 477 503 472.5 493.5 c 128,-1,18
 468 484 468 484 465 478.5 c 128,-1,19
 462 473 462 473 456 466.5 c 2,20,-1
 433 444 l 2,21,22
 419 430 419 430 396 415.5 c 2,23,-1
 358.5 392.5 l 2,24,25
 344 384 344 384 344 379.5 c 128,-1,26
 344 375 344 375 347.5 371 c 128,-1,27
 351 367 351 367 358 361.5 c 128,-1,28
 365 356 365 356 367 354 c 0,29,30
 381 339 381 339 419 322.5 c 128,-1,31
 457 306 457 306 470 282 c 0,32,33
 488 247 488 247 488 214 c 128,-1,34
 488 181 488 181 474 132.5 c 128,-1,35
 460 84 460 84 449.5 64 c 128,-1,36
 439.084 44.1604 439.084 44.1604 415 30 c 0,37,38
 361 -2 361 -2 308.5 -2 c 128,-1,39
 256 -2 256 -2 193.5 20 c 128,-1,40
 131 42 131 42 107 96 c 0,41,42
 92 130 92 130 92 166.5 c 128,-1,43
 92 203 92 203 113 258 c 0,44,45
 122.121 282.104 122.121 282.104 154 309.5 c 128,-1,46
 186 337 186 337 193 358 c 1,0,1
326 610 m 128,-1,48
 290 636 290 636 253.5 636 c 128,-1,49
 217 636 217 636 193 616.5 c 0,50,51
 154 584.812 154 584.812 154 538 c 0,52,53
 154 515 154 515 167.5 485.5 c 128,-1,54
 181 456 181 456 210 444 c 128,-1,55
 239 432 239 432 266.5 432 c 128,-1,56
 294 432 294 432 325 450 c 0,57,58
 343 460 343 460 352.5 488.5 c 128,-1,59
 362 517 362 517 362 534 c 0,60,47
 362 584 362 584 326 610 c 128,-1,48
319 98 m 0,61,62
 345 113 345 113 357 158 c 0,63,64
 365 185 365 185 365 204.5 c 128,-1,65
 365 224 365 224 355 244 c 0,66,67
 341 273 341 273 307 285 c 128,-1,68
 273 297 273 297 251.5 297 c 128,-1,69
 230 297 230 297 205 286 c 1,70,71
 177 272 177 272 166.5 243.5 c 128,-1,72
 156 215 156 215 156 191 c 128,-1,73
 156 167 156 167 171 137 c 128,-1,74
 186 107 186 107 215.5 95 c 128,-1,75
 245 83 245 83 268.5 83 c 128,-1,76
 292 83 292 83 319 98 c 0,61,62
EndSplineSet
Validated: 1
Substitution2: "Proportional number lookup-1" uniE018
EndChar

StartChar: nine
Encoding: 57 57 28
Width: 560
GlyphClass: 2
Flags: W
HStem: 6 63<202.757 345.797> 386 90<204.323 350.358>
VStem: 53 98<129.52 321.384> 414 93<124.091 306.838>
LayerCount: 2
Fore
SplineSet
362 32 m 2,0,1
 358 32 358 32 312 19 c 128,-1,2
 266 6.00001 266 6.00001 237.5 6 c 128,-1,3
 209 6 209 6 169 22.5 c 128,-1,4
 129 39 129 39 104 78 c 0,5,6
 53 154 53 154 53 227 c 0,7,8
 53 258 53 258 64 305.5 c 0,9,10
 87.6225 407.506 87.6225 407.506 180 450 c 0,11,12
 237 476 237 476 291.5 476 c 128,-1,13
 346 476 346 476 410 439 c 0,14,15
 445 419 445 419 460 391 c 128,-1,16
 475 363 475 363 491 307 c 128,-1,17
 507 251 507 251 507 196 c 1,18,19
 503.974 183.55 503.974 183.55 484 36 c 0,20,21
 479.97 0.77269 479.97 0.77269 456.485 -45.6137 c 128,-1,22
 433 -92 433 -92 395 -134 c 128,-1,23
 357 -176 357 -176 322 -200.36 c 128,-1,24
 287 -224.72 287 -224.72 245 -240.26 c 128,-1,25
 203 -255.8 203 -255.8 184.5 -257.9 c 128,-1,26
 166 -260 166 -260 118 -260 c 1,27,28
 99 -251.6 99 -251.6 99 -233.12 c 0,29,30
 99 -227.24 99 -227.24 100 -224.72 c 1,31,32
 140 -186.08 140 -186.08 189.5 -162.14 c 128,-1,33
 239 -138.2 239 -138.2 252.5 -126.86 c 2,34,-1
 282 -102.08 l 2,35,36
 298 -88.6396 298 -88.6396 301 -85.7002 c 2,37,-1
 316 -71.4199 l 2,38,39
 328.094 -59.906 328.094 -59.906 330.5 -55.46 c 128,-1,40
 333 -50.8398 333 -50.8398 341 -39.5 c 128,-1,41
 349 -28.1602 349 -28.1602 351.053 -18.2001 c 128,-1,42
 353.106 -8.23992 353.106 -8.23992 359.302 7.38004 c 128,-1,43
 365.498 23 365.498 23 366 32 c 1,44,-1
 362 32 l 2,0,1
396 132 m 0,45,46
 414 176 414 176 414 218.5 c 128,-1,47
 414 261 414 261 384 324 c 0,48,49
 366.913 360.033 366.913 360.033 332.5 373 c 128,-1,50
 298 386 298 386 271.5 386 c 128,-1,51
 245 386 245 386 216.5 372 c 128,-1,52
 188 358 188 358 172 318 c 1,53,54
 151 260 151 260 151 218.5 c 128,-1,55
 151 177 151 177 168.5 136.5 c 128,-1,56
 186 96 186 96 217.5 82.5 c 128,-1,57
 249 69 249 69 277.5 69 c 128,-1,58
 306 69 306 69 344.5 85 c 128,-1,59
 383 101 383 101 396 132 c 0,45,46
EndSplineSet
Validated: 1
Substitution2: "Proportional number lookup-1" uniE019
EndChar

StartChar: less
Encoding: 60 60 31
Width: 372
GlyphClass: 2
Flags: W
HStem: 372 54.5<265.028 334.024> 373 62<245.656 334.281>
VStem: 16 320
LayerCount: 2
Fore
SplineSet
309 372 m 2,0,-1
 289 373 l 2,1,2
 281 373 281 373 278 371 c 2,3,-1
 174.5 306.5 l 2,4,5
 146 288 146 288 116 263 c 1,6,7
 134 236 134 236 161.5 215 c 128,-1,8
 189 194 189 194 231 169 c 128,-1,9
 273 144 273 144 301 122 c 1,10,11
 314 99 314 99 314 94 c 128,-1,12
 314 89 314 89 307 83 c 1,13,14
 268 69 268 69 198 69 c 0,15,16
 169 69 169 69 142.5 93 c 128,-1,17
 116 117 116 117 103 146 c 0,18,19
 102 150 102 150 59 194 c 128,-1,20
 16 238 16 238 16 256 c 0,21,22
 16 264 16 264 23 268 c 1,23,24
 52 303 52 303 126 360 c 0,25,26
 129 362 129 362 154.5 388 c 128,-1,27
 180 414 180 414 205.5 424.5 c 128,-1,28
 231 435 231 435 264 435 c 128,-1,29
 297 435 297 435 316.5 426.5 c 128,-1,30
 336 418 336 418 336 406.5 c 128,-1,31
 336 395 336 395 329 383.5 c 128,-1,32
 322 372 322 372 309 372 c 2,0,-1
EndSplineSet
Validated: 1
EndChar

StartChar: question
Encoding: 63 63 34
Width: 474
GlyphClass: 2
Flags: W
HStem: 33 145<128.398 228.586> 635.5 114.5<133.861 185.952 187.047 213.008> 732 20G<177.75 195.25>
VStem: 95 157<67.0957 153.926> 131 86<248.863 391.852> 303 53<482 584.533>
LayerCount: 2
Fore
SplineSet
120 163.5 m 128,-1,1
 145 178 145 178 178.5 178 c 128,-1,2
 212 178 212 178 232 151.5 c 128,-1,3
 252 125 252 125 252 99 c 0,4,5
 252 33 252 33 178 33 c 0,6,7
 152 33 152 33 133 51 c 1,8,9
 95 84 95 84 95 116.5 c 128,-1,0
 95 149 95 149 120 163.5 c 128,-1,1
217 355 m 1,10,-1
 214 273 l 1,11,12
 214 245 214 245 217 228 c 1,13,14
 209 221 209 221 191.5 221 c 128,-1,15
 174 221 174 221 154 246 c 1,16,17
 131 338 131 338 131 382 c 128,-1,18
 131 426 131 426 136 489 c 1,19,20
 182 504 182 504 211 504 c 1,21,-1
 250 502 l 2,22,23
 269 502 269 502 289 507 c 1,24,25
 303 521 303 521 303 535 c 128,-1,26
 303 549 303 549 296 565 c 128,-1,27
 289 581 289 581 272 590.5 c 128,-1,28
 255 600 255 600 230 607.5 c 128,-1,29
 205 615 205 615 192.5 622.5 c 128,-1,30
 180 630 180 630 162.5 635.5 c 128,-1,31
 145 641 145 641 133.5 648 c 0,32,33
 114 659.87 114 659.87 114 695.935 c 128,-1,34
 114 732 114 732 145 750 c 1,35,36
 169 752 169 752 186.5 752 c 128,-1,37
 204 752 204 752 223.5 744 c 128,-1,38
 243 736 243 736 280 714 c 1,39,40
 284 707 284 707 299 684.5 c 128,-1,41
 314 662 314 662 317.5 655 c 2,42,-1
 329.5 631.5 l 2,43,44
 342.958 605.375 342.958 605.375 347 569 c 1,45,-1
 352 538 l 2,46,47
 356 513 356 513 356 501 c 0,48,49
 356 463 356 463 325 432 c 0,50,51
 310 417 310 417 271.5 406.5 c 128,-1,52
 233 396 233 396 217 372 c 1,53,-1
 217 355 l 1,10,-1
EndSplineSet
Validated: 1
EndChar

StartChar: at
Encoding: 64 64 35
Width: 527
GlyphClass: 2
Flags: W
HStem: 61 59<166.469 358.037> 86 45<291.096 414.75> 173 54<399.445 435.039> 494 42<251.825 315.842> 585 66<208.507 375.07>
VStem: 17 71<186.7 402.591> 158 70<227.82 313.706> 168 76<406.345 486.981> 340 53<259.646 334.201 391.35 488.639> 464 44<262.795 464.898>
LayerCount: 2
Fore
SplineSet
406 173 m 1,0,-1
 387 172 l 1,1,2
 359 172 359 172 340 204 c 0,3,4
 333 214 333 214 324.5 214 c 128,-1,5
 316 214 316 214 304 202 c 0,6,7
 267 167 267 167 224 167 c 0,8,9
 182 167 182 167 168 203 c 0,10,11
 158 230 158 230 158 252 c 0,12,13
 158 332 158 332 269 375 c 0,14,15
 274 377 274 377 295 378.5 c 128,-1,16
 316 380 316 380 325 391 c 128,-1,17
 334 402 334 402 334 440 c 0,18,19
 333 476 333 476 316 490 c 0,20,21
 311 494 311 494 299 494 c 0,22,23
 253 494 253 494 246 459 c 0,24,25
 244 449 244 449 244 440 c 0,26,27
 244 413 244 413 231.5 404 c 128,-1,28
 219 395 219 395 203 395 c 128,-1,29
 187 395 187 395 177.5 406 c 128,-1,30
 168 417 168 417 168 433 c 0,31,32
 168 480 168 480 195 502.5 c 128,-1,33
 222 525 222 525 245 530.5 c 128,-1,34
 268 536 268 536 309 536 c 2,35,-1
 311 536 l 2,36,37
 323 536 323 536 335 533.5 c 128,-1,38
 347 531 347 531 365.5 514.5 c 128,-1,39
 384 498 384 498 388.5 473.5 c 128,-1,40
 393 449 393 449 393 386 c 0,41,42
 393 227 393 227 409.5 227 c 128,-1,43
 426 227 426 227 445 268 c 128,-1,44
 464 309 464 309 464 340 c 128,-1,45
 464 371 464 371 456.5 403.5 c 128,-1,46
 449 436 449 436 447.5 449.5 c 128,-1,47
 446 463 446 463 416 514 c 0,48,49
 386 564 386 564 369.5 574.5 c 128,-1,50
 353 585 353 585 314 585 c 0,51,52
 213 585 213 585 168 531 c 0,53,54
 149 508 149 508 118 426 c 0,55,56
 88 343 88 343 88 274 c 0,57,58
 88 187 88 187 144.5 153.5 c 128,-1,59
 201 120 201 120 290 120 c 0,60,61
 325 120 325 120 371 125.5 c 128,-1,62
 417 131 417 131 424 131 c 128,-1,63
 431 131 431 131 431 128 c 0,64,65
 431 110 431 110 366 86 c 0,66,67
 300 61 300 61 245.5 61 c 128,-1,68
 191 61 191 61 169.5 63 c 128,-1,69
 148 65 148 65 121 78.5 c 128,-1,70
 94 92 94 92 71 120 c 0,71,72
 17 187 17 187 17 264 c 0,73,74
 17 284 17 284 29.5 381.5 c 128,-1,75
 42 479 42 479 67 528 c 0,76,77
 130 651 130 651 321 651 c 0,78,79
 399 651 399 651 418 640 c 0,80,81
 453 618 453 618 480.5 540 c 128,-1,82
 508 462 508 462 508 375 c 0,83,84
 508 255 508 255 452 182 c 0,85,86
 444 172 444 172 430 172 c 2,87,-1
 410 173 l 1,88,-1
 406 173 l 1,0,-1
340 308 m 2,89,90
 340 325 340 325 333 334.5 c 128,-1,91
 326 344 326 344 309.5 344 c 128,-1,92
 293 344 293 344 260.5 322 c 128,-1,93
 228 300 228 300 228 280 c 0,94,95
 228 237 228 237 252 227 c 1,96,97
 261 226 261 226 268 230 c 128,-1,98
 275 234 275 234 280 235.5 c 128,-1,99
 285 237 285 237 295.5 241 c 128,-1,100
 306 245 306 245 323 263.5 c 128,-1,101
 340 282 340 282 340 306 c 2,102,-1
 340 308 l 2,89,90
EndSplineSet
Validated: 1
EndChar

StartChar: A
Encoding: 65 65 36
Width: 765
GlyphClass: 2
Flags: W
HStem: 0 111<435.504 535.469> 4 125<242.5 298.466> 14 121<84 136.811> 257 62<325.204 485.372>
VStem: 10 299<23.3469 108.562>
LayerCount: 2
Fore
SplineSet
84 140 m 1,0,-1
 120 135 l 1,1,2
 131 135 131 135 137 140 c 1,3,4
 152 162 152 162 179 250 c 2,5,-1
 188 279 l 1,6,-1
 229 390 l 2,7,8
 285 543 285 543 360 689 c 1,9,10
 412 716 412 716 432 716 c 128,-1,11
 452 716 452 716 472 705 c 1,12,13
 502 660 502 660 510.5 635.5 c 128,-1,14
 519 611 519 611 527 585 c 2,15,-1
 540 543 l 1,16,17
 565 472 565 472 598 333 c 0,18,19
 629 202 629 202 651 142 c 1,20,21
 663 125 663 125 698 114 c 0,22,23
 734 102 734 102 745.5 81.5 c 128,-1,24
 757 61 757 61 757 44 c 0,25,26
 757 28 757 28 745 14 c 0,27,28
 742 11 742 11 736.5 12 c 128,-1,29
 731 13 731 13 728 11 c 1,30,31
 677 0 677 0 528 0 c 2,32,-1
 444 0 l 2,33,34
 419 0 419 0 419 35.5 c 128,-1,35
 419 71 419 71 444 100 c 0,36,37
 454 111 454 111 459.5 111 c 128,-1,38
 465 111 465 111 477.5 107.5 c 128,-1,39
 490 104 490 104 504.5 104 c 128,-1,40
 519 104 519 104 536 108 c 1,41,42
 540 115 540 115 542.5 116 c 128,-1,43
 545 117 545 117 546 118 c 0,44,45
 548 120 548 120 548 135 c 128,-1,46
 548 150 548 150 546 177 c 128,-1,47
 544 204 544 204 543.5 207.5 c 128,-1,48
 543 211 543 211 540 220 c 0,49,50
 536 230 536 230 532 235 c 0,51,52
 517 254 517 254 486 258 c 1,53,54
 466 256 466 256 432 256 c 2,55,-1
 359 257 l 2,56,57
 320 257 320 257 276 253 c 1,58,59
 253 234 253 234 249 216.5 c 128,-1,60
 245 199 245 199 244 190.5 c 128,-1,61
 243 182 243 182 243 162.5 c 128,-1,62
 243 143 243 143 242 134 c 1,63,64
 251 129 251 129 260 129 c 1,65,-1
 290 134 l 1,66,67
 299 134 299 134 307 125 c 1,68,69
 309 83 309 83 309 58 c 0,70,71
 309 34 309 34 299 23 c 0,72,73
 282 4 282 4 253 4 c 0,74,75
 242 4 242 4 215 9 c 128,-1,76
 188 14 188 14 172 14 c 2,77,-1
 165 14 l 2,78,79
 130 14 130 14 85 11 c 0,80,81
 82 10 82 10 75.5 7 c 128,-1,82
 69 4 69 4 61 4 c 128,-1,83
 53 4 53 4 34 18 c 1,84,85
 31 23 31 23 24 30 c 0,86,87
 10 46 10 46 10 57 c 0,88,89
 10 102 10 102 65 135 c 0,90,91
 75 140 75 140 84 140 c 1,0,-1
398 566 m 1,92,93
 393 553 393 553 373.5 479.5 c 128,-1,94
 354 406 354 406 324 336 c 1,95,96
 355 319 355 319 383.5 319 c 128,-1,97
 412 319 412 319 496 327 c 1,98,-1
 496 335 l 2,99,100
 496 364 496 364 481 396 c 128,-1,101
 466 428 466 428 461 440 c 128,-1,102
 456 452 456 452 447 485.5 c 128,-1,103
 438 519 438 519 427.5 537.5 c 128,-1,104
 417 556 417 556 398 566 c 1,92,93
EndSplineSet
Validated: 1
EndChar

StartChar: B
Encoding: 66 66 37
Width: 631
GlyphClass: 2
Flags: W
HStem: -9 92<69.8929 158.687> 0 94<28.5762 69.1102> 1 75<289.529 420.61> 344 73<301.499 392.176> 666 68<40.6719 81.9532> 676 76<71.0992 194.298>
VStem: 159 108<98.611 337.875> 475 130<136.004 294.616 476.447 628.463>
LayerCount: 2
Fore
SplineSet
141 255 m 1,0,-1
 168 663 l 1,1,2
 155 676 155 676 147.5 676 c 128,-1,3
 140 676 140 676 120 669 c 128,-1,4
 100 662 100 662 82.5 662 c 128,-1,5
 65 662 65 662 48 666 c 1,6,7
 38 677 38 677 38 697 c 128,-1,8
 38 717 38 717 57 734 c 1,9,10
 126 752 126 752 173.5 752 c 128,-1,11
 221 752 221 752 268.5 746 c 128,-1,12
 316 740 316 740 355 736.5 c 128,-1,13
 394 733 394 733 413.5 730 c 128,-1,14
 433 727 433 727 461.5 720 c 128,-1,15
 490 713 490 713 513.5 699.5 c 128,-1,16
 537 686 537 686 560 666 c 128,-1,17
 583 646 583 646 591.5 622.5 c 0,18,19
 604 587.941 604 587.941 604 542.471 c 0,20,21
 604 484 604 484 560.5 440.5 c 0,22,23
 554 434 554 434 549 428 c 128,-1,24
 544 422 544 422 532.5 417.5 c 128,-1,25
 521 413 521 413 514 410 c 128,-1,26
 507 407 507 407 483 399 c 128,-1,27
 459 391 459 391 441 384 c 1,28,29
 468 365 468 365 496.5 355.5 c 128,-1,30
 525 346 525 346 543.5 337.5 c 128,-1,31
 562 329 562 329 577 307 c 0,32,33
 605 269 605 269 605 217 c 0,34,35
 605 206 605 206 602 172.5 c 128,-1,36
 599 139 599 139 595.5 119.5 c 128,-1,37
 592 100 592 100 579.055 75.603 c 128,-1,38
 566.109 51.206 566.109 51.206 543 34 c 0,39,40
 491 -5 491 -5 419 -5 c 1,41,-1
 299 1 l 2,42,43
 280 1 280 1 270 0 c 2,44,-1
 144 -9 l 1,45,46
 98 -9 98 -9 31 0 c 1,47,48
 18 16 18 16 18 35 c 0,49,50
 18 69 18 69 48 94 c 1,51,52
 57 98 57 98 69.5 98 c 128,-1,53
 82 98 82 98 104 90.5 c 128,-1,54
 126 83 126 83 137.5 83 c 128,-1,55
 149 83 149 83 159 94 c 1,56,-1
 159 112 l 2,57,58
 159 158 159 158 150 196.5 c 128,-1,59
 141 235 141 235 141 255 c 1,0,-1
301 666 m 1,60,61
 293 575 293 575 293 537.5 c 128,-1,62
 293 500 293 500 301 430 c 1,63,64
 317 417 317 417 330.5 417 c 0,65,66
 351.5 417 351.5 417 375.75 430.227 c 128,-1,67
 400 443.455 400 443.455 410 448 c 0,68,69
 454 468 454 468 466 496 c 1,70,71
 480 524 480 524 480 552 c 128,-1,72
 480 580 480 580 467.5 605 c 128,-1,73
 455 630 455 630 438 642.5 c 128,-1,74
 421 655 421 655 393.5 665 c 128,-1,75
 366 675 366 675 347.5 675 c 128,-1,76
 329 675 329 675 301 666 c 1,60,61
349 76 m 0,77,78
 409.878 76 409.878 76 442.439 120.5 c 128,-1,79
 475 165 475 165 475 213.5 c 128,-1,80
 475 262 475 262 452 295.5 c 128,-1,81
 429 329 429 329 387 334 c 1,82,-1
 352.5 339.5 l 2,83,84
 324 344 324 344 312 344 c 0,85,86
 277 344 277 344 276 317 c 0,87,88
 267 195 267 195 267 172 c 2,89,-1
 267 145 l 1,90,91
 268 115 268 115 292.5 95.5 c 128,-1,92
 317 76 317 76 349 76 c 0,77,78
EndSplineSet
Validated: 1
EndChar

StartChar: C
Encoding: 67 67 38
Width: 691
GlyphClass: 2
Flags: W
HStem: 0 95<320.161 524.236> 684 71<326.012 489.781>
VStem: 8 154<255.986 466.357> 601 75<497.724 563.25>
LayerCount: 2
Fore
SplineSet
391 755 m 1,0,-1
 430 754 l 2,1,2
 485 753 485 753 532 734 c 1,3,4
 618.043 705.319 618.043 705.319 642.5 677 c 0,5,6
 652 666 652 666 664 640.5 c 128,-1,7
 676 615 676 615 676 576 c 128,-1,8
 676 537 676 537 634 455 c 1,9,10
 609 472 609 472 601 508 c 128,-1,11
 593 544 593 544 585 554.5 c 2,12,-1
 556 594.5 l 2,13,14
 535 624 535 624 527 633 c 128,-1,15
 519 642 519 642 498.5 656.5 c 0,16,17
 459.621 684 459.621 684 402.81 684 c 128,-1,18
 346 684 346 684 284 634 c 1,19,20
 226 589 226 589 199.5 535.5 c 128,-1,21
 173 482 173 482 165 404 c 0,22,23
 162 380 162 380 162 359 c 0,24,25
 162 268 162 268 225 191 c 0,26,27
 261 146 261 146 302 125 c 128,-1,28
 343 104 343 104 404 97 c 0,29,30
 420 95 420 95 428 95 c 0,31,32
 468 95 468 95 530 119.5 c 128,-1,33
 592 144 592 144 617 148 c 1,34,-1
 620 148 l 2,35,36
 633 148 633 148 633 125 c 128,-1,37
 633 102 633 102 617 81 c 128,-1,38
 601 60 601 60 586.5 47 c 128,-1,39
 572 34 572 34 553 26 c 128,-1,40
 534 18 534 18 521 13 c 128,-1,41
 508 8 508 8 481.5 5.5 c 2,42,-1
 444.5 2 l 2,43,44
 423.5 -1.86265e-08 423.5 -1.86265e-08 358 0 c 2,45,-1
 343 0 l 2,46,47
 276 0 276 0 215.5 32.5 c 128,-1,48
 155 65 155 65 119 99 c 128,-1,49
 83 133 83 133 45.5 198.5 c 128,-1,50
 8 264 8 264 8 331 c 0,51,52
 8 415.488 8 415.488 32 470.744 c 128,-1,53
 56 526 56 526 99.5 585 c 128,-1,54
 143 644 143 644 182 676 c 128,-1,55
 221 708 221 708 275 731.5 c 128,-1,56
 329 755 329 755 391 755 c 1,0,-1
EndSplineSet
Validated: 1
EndChar

StartChar: D
Encoding: 68 68 39
Width: 750
GlyphClass: 2
Flags: W
HStem: 0 74<250.022 408.752> 694 56<69.4375 144.749 262.129 399.154>
VStem: 134 108<93.158 597.774> 145 114<384.562 684.039> 600 127<278.474 504.812>
LayerCount: 2
Fore
SplineSet
33 93 m 1,0,-1
 98 85 l 1,1,2
 122 85 122 85 134 100 c 1,3,4
 138 223 138 223 138.5 352 c 128,-1,5
 139 481 139 481 145 686 c 1,6,7
 137 694 137 694 126.5 694 c 128,-1,8
 116 694 116 694 101 690.5 c 128,-1,9
 86 687 86 687 76 677 c 128,-1,10
 66 667 66 667 56 667 c 2,11,-1
 50 667 l 2,12,13
 9 667 9 667 5 688 c 1,14,-1
 5 691 l 2,15,16
 5 717 5 717 60 740 c 1,17,18
 81 750 81 750 107 750 c 1,19,-1
 154 748 l 1,20,-1
 251 749 l 1,21,22
 380 749 380 749 506 707 c 0,23,24
 560.878 688.707 560.878 688.707 606.439 648.354 c 128,-1,25
 652 608 652 608 677 571 c 128,-1,26
 702 534 702 534 714.5 486.5 c 128,-1,27
 727 439 727 439 727 402.5 c 128,-1,28
 727 366 727 366 709 295.5 c 128,-1,29
 691 225 691 225 675 187.5 c 128,-1,30
 659.07 150.164 659.07 150.164 623.951 112.032 c 128,-1,31
 588.831 73.9003 588.831 73.9003 556 54.5 c 128,-1,32
 523 35 523 35 468.5 17 c 128,-1,33
 414 -1 414 -1 347 -1 c 2,34,-1
 276 0 l 1,35,-1
 214 0 l 2,36,37
 113 0 113 0 0 14 c 1,38,39
 -8 23 -8 23 -8 43 c 128,-1,40
 -8 63 -8 63 0 82 c 1,41,42
 14 93 14 93 33 93 c 1,0,-1
259 669 m 1,43,44
 248 431 248 431 247 322 c 128,-1,45
 246 213 246 213 242 111 c 1,46,-1
 242 110 l 2,47,48
 242 98 242 98 249.5 93 c 0,49,50
 266.214 81.8571 266.214 81.8571 282.607 79.9286 c 128,-1,51
 299 78 299 78 308 76 c 128,-1,52
 317 74 317 74 337 74 c 128,-1,53
 357 74 357 74 405.726 94.6645 c 128,-1,54
 454.451 115.329 454.451 115.329 483.5 136.5 c 128,-1,55
 512.729 157.802 512.729 157.802 542.935 200.111 c 128,-1,56
 573.142 242.42 573.142 242.42 586.571 282.21 c 128,-1,57
 600 322 600 322 600 377 c 2,58,-1
 600 384 l 1,59,60
 599 445 599 445 584 488.5 c 128,-1,61
 569 532 569 532 536 575.5 c 128,-1,62
 503 619 503 619 472.5 639.5 c 128,-1,63
 442 660 442 660 389 675.5 c 128,-1,64
 336 691 336 691 310 691 c 128,-1,65
 284 691 284 691 259 669 c 1,43,44
EndSplineSet
Validated: 1
EndChar

StartChar: E
Encoding: 69 69 40
Width: 648
GlyphClass: 2
Flags: W
HStem: 0 61<6.7019 80.2471> 0 52<54.7529 100.775 242.367 500.382> 322 59<249.359 374.16> 642 103<63.0938 122 247.22 376.362> 651 95<247.22 450.813>
VStem: 125 122<390.967 641.766> 393 76<208.252 272.389 387.379 501> 413 60<230.953 301.5>
LayerCount: 2
Fore
SplineSet
392 456 m 1,0,1
 392 505 392 505 437.5 505 c 0,2,3
 454 505 454 505 469 489 c 1,4,5
 469 436 469 436 473 199 c 1,6,7
 444 187 444 187 431.5 187 c 128,-1,8
 419 187 419 187 401 208 c 1,9,10
 399 216 399 216 399 230.5 c 128,-1,11
 399 245 399 245 406 257 c 128,-1,12
 413 269 413 269 413 272.5 c 128,-1,13
 413 276 413 276 409.5 283.5 c 128,-1,14
 406 291 406 291 400 295.5 c 128,-1,15
 394 300 394 300 390.5 301.5 c 128,-1,16
 387 303 387 303 375.5 306 c 128,-1,17
 364 309 364 309 344 315.5 c 128,-1,18
 324 322 324 322 308 322 c 0,19,20
 253.5 322 253.5 322 239 293 c 1,21,22
 227 233 227 233 224.5 200 c 128,-1,23
 222 167 222 167 222 97 c 1,24,25
 232 75 232 75 256 69 c 0,26,27
 312 55 312 55 365.5 55 c 128,-1,28
 419 55 419 55 503 61 c 1,29,30
 534.901 77.7901 534.901 77.7901 545.083 114.154 c 128,-1,31
 555.265 150.518 555.265 150.518 589 191 c 1,32,33
 608.185 169.074 608.185 169.074 610.593 157.037 c 2,34,-1
 613.5 142.5 l 2,35,36
 614 140 614 140 614 130 c 2,37,-1
 614 117 l 1,38,39
 615 104 615 104 615 81 c 0,40,41
 615 25 615 25 583 0 c 1,42,-1
 37 0 l 1,43,44
 0 12 0 12 0 31 c 0,45,46
 0 43.5 0 43.5 6.5 46.75 c 128,-1,47
 13 50 13 50 14.5 51 c 128,-1,48
 16 52 16 52 20 53.5 c 128,-1,49
 24 55 24 55 25.5 56 c 128,-1,50
 27 57 27 57 31.5 58 c 128,-1,51
 36 59 36 59 38 60 c 128,-1,52
 40 61 40 61 46 61 c 1,53,-1
 89 52 l 1,54,55
 99 52 99 52 100 62 c 0,56,57
 125 312 125 312 125 425 c 128,-1,58
 125 538 125 538 122 642 c 1,59,60
 86.4 642 86.4 642 79.2 638 c 128,-1,61
 72 634 72 634 69 632.5 c 128,-1,62
 66 631 66 631 63 631 c 128,-1,63
 60 631 60 631 51 634 c 1,64,65
 17 651 17 651 17 674 c 2,66,-1
 17 677 l 1,67,68
 19 704 19 704 38.5 718.5 c 128,-1,69
 58 733 58 733 94 745 c 1,70,-1
 194 745 l 1,71,-1
 405 746 l 2,72,73
 471 746 471 746 572 728 c 1,74,75
 573 711 573 711 573.5 694 c 128,-1,76
 574 677 574 677 574.5 668.5 c 128,-1,77
 575 660 575 660 575 651 c 128,-1,78
 575 642 575 642 575.5 637.5 c 128,-1,79
 576 633 576 633 576.5 629 c 128,-1,80
 577 625 577 625 578.5 621 c 128,-1,81
 580 617 580 617 581.5 613.5 c 128,-1,82
 583 610 583 610 585.5 603 c 2,83,-1
 590.5 588.5 l 2,84,85
 593 581 593 581 605.5 569 c 128,-1,86
 618 557 618 557 618 553.5 c 2,87,-1
 618 550 l 1,88,-1
 617 548 l 1,89,90
 568 532 568 532 551.5 532 c 128,-1,91
 535 532 535 532 516 533.9 c 128,-1,92
 497 535.8 497 535.8 464 538 c 1,93,94
 461 542 461 542 461 544.5 c 128,-1,95
 461 547 461 547 471.5 556.5 c 128,-1,96
 482 566 482 566 482 577 c 128,-1,97
 482 588 482 588 478.5 602.5 c 2,98,-1
 474 621 l 2,99,100
 473 625 473 625 466.5 629 c 128,-1,101
 460 633 460 633 452 644 c 1,102,103
 414 651 414 651 377.5 651 c 128,-1,104
 341 651 341 651 314 646 c 128,-1,105
 287 641 287 641 281 641 c 2,106,-1
 266 642 l 2,107,108
 254 642 254 642 247 634 c 1,109,110
 246 588 246 588 246 520 c 128,-1,111
 246 452 246 452 247 395 c 1,112,113
 323 381 323 381 335.5 381 c 128,-1,114
 348 381 348 381 375 387 c 1,115,116
 393 399 393 399 393 429 c 1,117,-1
 392 456 l 1,0,1
EndSplineSet
Validated: 1
EndChar

StartChar: F
Encoding: 70 70 41
Width: 648
GlyphClass: 2
Flags: W
HStem: 0 61<6.7019 80.2471 230.996 380.88> 0 52<54.7529 100.775> 322 59<249.359 374.16> 642 103<63.0938 122 247.22 376.362> 651 95<247.22 450.813>
VStem: 125 122<390.967 641.766> 393 76<208.252 272.389 387.379 497.651> 413 60<230.953 301.5>
LayerCount: 2
Fore
SplineSet
393 429 m 1,0,-1
 392 456 l 1,1,2
 392 487 392 487 410 498 c 0,3,4
 421 505 421 505 437.5 505 c 128,-1,5
 454 505 454 505 469 489 c 1,6,7
 469 436 469 436 473 199 c 1,8,9
 444 187 444 187 431.5 187 c 128,-1,10
 419 187 419 187 401 208 c 1,11,12
 399 216 399 216 399 230.5 c 128,-1,13
 399 245 399 245 406 257 c 128,-1,14
 413 269 413 269 413 272.5 c 128,-1,15
 413 276 413 276 409.5 283.5 c 128,-1,16
 406 291 406 291 400 295.5 c 128,-1,17
 394 300 394 300 390.5 301.5 c 128,-1,18
 387 303 387 303 375.5 306 c 128,-1,19
 364 309 364 309 344 315.5 c 128,-1,20
 324 322 324 322 308 322 c 128,-1,21
 292 322 292 322 270 316.5 c 128,-1,22
 248 311 248 311 239 293 c 1,23,24
 227 233 227 233 224.5 200 c 128,-1,25
 222 167 222 167 222 97 c 1,26,27
 232 75 232 75 256 69 c 0,28,29
 301 58 301 58 307 58 c 128,-1,30
 313 58 313 58 329.5 63 c 128,-1,31
 346 68 346 68 382 70 c 1,32,33
 391 75 391 75 398 75 c 0,34,35
 409 75 409 75 409 62 c 0,36,37
 409 40 409 40 397 10 c 2,38,-1
 393 0 l 1,39,-1
 37 0 l 1,40,41
 0 12 0 12 0 31 c 0,42,43
 0 43.5 0 43.5 6.5 46.75 c 128,-1,44
 13 50 13 50 14.5 51 c 128,-1,45
 16 52 16 52 20 53.5 c 128,-1,46
 24 55 24 55 25.5 56 c 128,-1,47
 27 57 27 57 31.5 58 c 128,-1,48
 36 59 36 59 38 60 c 128,-1,49
 40 61 40 61 46 61 c 1,50,-1
 89 52 l 1,51,52
 99 52 99 52 100 62 c 0,53,54
 125 312 125 312 125 425 c 128,-1,55
 125 538 125 538 122 642 c 1,56,57
 86.4 642 86.4 642 79.2 638 c 128,-1,58
 72 634 72 634 69 632.5 c 128,-1,59
 66 631 66 631 63 631 c 128,-1,60
 60 631 60 631 51 634 c 1,61,62
 17 651 17 651 17 674 c 2,63,-1
 17 677 l 1,64,65
 19 704 19 704 38.5 718.5 c 128,-1,66
 58 733 58 733 94 745 c 1,67,-1
 194 745 l 1,68,-1
 405 746 l 2,69,70
 471 746 471 746 572 728 c 1,71,72
 573 711 573 711 573.5 694 c 128,-1,73
 574 677 574 677 574.5 668.5 c 128,-1,74
 575 660 575 660 575 651 c 128,-1,75
 575 642 575 642 575.5 637.5 c 128,-1,76
 576 633 576 633 576.5 629 c 128,-1,77
 577 625 577 625 578.5 621 c 128,-1,78
 580 617 580 617 581.5 613.5 c 128,-1,79
 583 610 583 610 585.5 603 c 128,-1,80
 588 596 588 596 590.5 588.5 c 128,-1,81
 593 581 593 581 605.5 569 c 128,-1,82
 618 557 618 557 618 551 c 2,83,-1
 618 550 l 1,84,-1
 617 548 l 1,85,86
 568 532 568 532 551.5 532 c 128,-1,87
 535 532 535 532 525 533 c 0,88,89
 497 535.8 497 535.8 464 538 c 1,90,91
 461 542 461 542 461 544.5 c 128,-1,92
 461 547 461 547 471.5 556.5 c 128,-1,93
 482 566 482 566 482 577 c 128,-1,94
 482 588 482 588 481 592 c 2,95,-1
 474 621 l 2,96,97
 473 625 473 625 466.5 629 c 128,-1,98
 460 633 460 633 452 644 c 1,99,100
 414 651 414 651 377.5 651 c 128,-1,101
 341 651 341 651 314 646 c 128,-1,102
 287 641 287 641 281 641 c 2,103,-1
 266 642 l 2,104,105
 254 642 254 642 247 634 c 1,106,107
 246 588 246 588 246 520 c 128,-1,108
 246 452 246 452 247 395 c 1,109,110
 323 381 323 381 335.5 381 c 128,-1,111
 348 381 348 381 375 387 c 1,112,113
 393 399 393 399 393 429 c 1,0,-1
EndSplineSet
Validated: 1
EndChar

StartChar: G
Encoding: 71 71 42
Width: 776
GlyphClass: 2
Flags: W
HStem: -1 94<325.851 542.956> 313.5 44.5<458.832 565.326> 680 74<322.621 527.782>
VStem: 8 155<256.474 466.92> 575 136<120.94 302.344>
LayerCount: 2
Fore
SplineSet
704 292 m 2,0,-1
 711 163 l 1,1,2
 711 131 711 131 703 119 c 0,3,4
 651.398 45.5658 651.398 45.5658 554.5 23.5 c 0,5,6
 474.573 5.29876 474.573 5.29876 358 0 c 2,7,-1
 339 -1 l 1,8,9
 279 -1 279 -1 217 32 c 128,-1,10
 155 65 155 65 119 99 c 128,-1,11
 83 133 83 133 45.5 198.5 c 128,-1,12
 8 264 8 264 8 331 c 0,13,14
 8 415.488 8 415.488 32 470.744 c 128,-1,15
 56 526 56 526 99.5 585 c 128,-1,16
 143 644 143 644 182 676 c 128,-1,17
 221 708 221 708 282 734 c 1,18,19
 324.857 754 324.857 754 398.5 754 c 2,20,-1
 449 754 l 2,21,22
 515 754 515 754 563 742.5 c 128,-1,23
 611 731 611 731 635.5 717 c 128,-1,24
 660 703 660 703 709 669 c 1,25,26
 724 623 724 623 724 588.5 c 128,-1,27
 724 554 724 554 685 474 c 1,28,29
 660 491 660 491 653 526.5 c 128,-1,30
 646 562 646 562 633 576 c 0,31,32
 589 623 589 623 550 646 c 0,33,34
 492.348 680 492.348 680 417.674 680 c 128,-1,35
 343 680 343 680 284.456 634.411 c 128,-1,36
 225.911 588.821 225.911 588.821 199.5 535.5 c 0,37,38
 163 461.811 163 461.811 163 364.906 c 128,-1,39
 163 268 163 268 225 191 c 0,40,41
 261.195 145.902 261.195 145.902 302 125.5 c 128,-1,42
 343 105 343 105 390.5 99 c 128,-1,43
 438 93 438 93 453 93 c 0,44,45
 524 93 524 93 575 137 c 1,46,-1
 577 236 l 2,47,48
 577 237 577 237 569 282 c 0,49,50
 565 301 565 301 543 305.5 c 128,-1,51
 521 310 521 310 495 313.5 c 128,-1,52
 469 317 469 317 458.5 332.5 c 128,-1,53
 448 348 448 348 458 358 c 1,54,55
 494 361 494 361 581 363.5 c 128,-1,56
 668 366 668 366 748 375 c 1,57,58
 757 366 757 366 757 352 c 128,-1,59
 757 338 757 338 745 324 c 0,60,61
 741 320 741 320 734 320 c 2,62,-1
 713 323 l 2,63,64
 706 323 706 323 705 315.5 c 128,-1,65
 704 308 704 308 704 292 c 2,0,-1
EndSplineSet
Validated: 1
EndChar

StartChar: H
Encoding: 72 72 43
Width: 810
GlyphClass: 2
Flags: W
HStem: 0 83<513.831 582.499> 11 76<261.187 361.68> 380 55<259 603.611> 674.5 67.5<532.802 616.203> 680 65<43.7999 136.684 293.72 366.336> 680 54<331.533 368.202> 731 20G<637.75 673.25>
VStem: 118 140<96.5585 370.688 435 491.75> 137 121<436.355 676.633> 261 1<215.003 217.188> 611 100<93.0789 371.064 435 655.748>
LayerCount: 2
Fore
SplineSet
104 682 m 1,0,-1
 75 680 l 1,1,2
 53 680 53 680 43.5 693 c 128,-1,3
 34 706 34 706 34 720 c 128,-1,4
 34 734 34 734 46 745 c 1,5,6
 190 743 190 743 221 740 c 2,7,-1
 232 740 l 2,8,9
 252 738 252 738 370 734 c 1,10,11
 378 726 378 726 378 713 c 128,-1,12
 378 700 378 700 368.5 690 c 128,-1,13
 359 680 359 680 343 680 c 1,14,-1
 288 688 l 1,15,16
 272 688 272 688 263 679 c 1,17,18
 258 603 258 603 258 561 c 2,19,-1
 259 435 l 1,20,-1
 609 435 l 1,21,22
 611 473 611 473 611 528 c 2,23,-1
 611 568 l 2,24,25
 611 617 611 617 617 657 c 1,26,27
 607 672 607 672 574.5 674.5 c 128,-1,28
 542 677 542 677 532.5 690.5 c 128,-1,29
 523 704 523 704 523 719 c 128,-1,30
 523 734 523 734 532 742 c 1,31,32
 620 751 620 751 655.5 751 c 128,-1,33
 691 751 691 751 786 736 c 1,34,35
 792 728 792 728 792 721 c 128,-1,36
 792 714 792 714 785 700 c 128,-1,37
 778 686 778 686 748.5 675 c 128,-1,38
 719 664 719 664 711 649 c 1,39,-1
 711 119 l 1,40,41
 716 107 716 107 732.5 93.5 c 128,-1,42
 749 80 749 80 753.5 69.5 c 128,-1,43
 758 59 758 59 759 50 c 0,44,45
 760 40 760 40 760 28.5 c 128,-1,46
 760 17 760 17 761 9 c 1,47,48
 641 -2 641 -2 635 -2 c 128,-1,49
 629 -2 629 -2 616 -2 c 0,50,51
 577 0 577 0 498 0 c 1,52,53
 500 9 500 9 501 24 c 0,54,55
 503 55 503 55 513.5 67.5 c 128,-1,56
 524 80 524 80 545.5 83 c 128,-1,57
 567 86 567 86 583 90.5 c 128,-1,58
 599 95 599 95 600.5 116 c 128,-1,59
 602 137 602 137 603.5 154.5 c 128,-1,60
 605 172 605 172 606 177 c 0,61,62
 608 187 608 187 608 192 c 2,63,-1
 606 370 l 1,64,65
 529 375 529 375 524 377.5 c 128,-1,66
 519 380 519 380 495.5 380 c 128,-1,67
 472 380 472 380 253 375 c 1,68,69
 262 236 262 236 262 225.5 c 128,-1,70
 262 215 262 215 261 215 c 0,71,72
 260 220 260 220 259 220 c 128,-1,73
 258 220 258 220 258 188.5 c 128,-1,74
 258 157 258 157 260 111 c 1,75,76
 272 93 272 93 312 90.5 c 128,-1,77
 352 88 352 88 362 68 c 0,78,79
 367 56 367 56 367 43 c 128,-1,80
 367 30 367 30 350 17 c 1,81,82
 246 15 246 15 215 13 c 128,-1,83
 184 11 184 11 173 11 c 128,-1,84
 162 11 162 11 26 26 c 1,85,86
 10 39 10 39 10 54 c 128,-1,87
 10 69 10 69 17 78 c 128,-1,88
 24 87 24 87 39 87 c 1,89,-1
 97 76 l 1,90,91
 111 76 111 76 119 85 c 1,92,93
 118 120 118 120 118 181.5 c 128,-1,94
 118 243 118 243 126 357 c 128,-1,95
 134 471 134 471 137 668 c 1,96,97
 127 682 127 682 104 682 c 1,0,-1
EndSplineSet
Validated: 1
EndChar

StartChar: I
Encoding: 73 73 44
Width: 389
GlyphClass: 2
Flags: W
HStem: 11 65<44.3469 134.718 260.316 360.263> 682 63<43.7999 136.684>
VStem: 131 126<80.6494 643.834>
LayerCount: 2
Fore
SplineSet
104 682 m 1,0,-1
 75 680 l 1,1,2
 53 680 53 680 43.5 693 c 128,-1,3
 34 706 34 706 34 720 c 128,-1,4
 34 734 34 734 46 745 c 1,5,6
 190.42 743.048 190.42 743.048 221 740.5 c 2,7,-1
 232.5 739.5 l 2,8,9
 251.683 737.756 251.683 737.756 370 734 c 1,10,11
 374 730 374 730 374 719 c 1,12,-1
 367 684 l 1,13,14
 358 669 358 669 343.5 669 c 128,-1,15
 329 669 329 669 304 675.5 c 128,-1,16
 279 682 279 682 266.5 682 c 128,-1,17
 254 682 254 682 245 678 c 1,18,19
 257 494 257 494 257 348 c 2,20,-1
 257 285 l 2,21,22
 257 177 257 177 260 94 c 1,23,24
 270 79 270 79 293 79 c 1,25,-1
 333 82 l 1,26,27
 353 82 353 82 360.5 70.5 c 128,-1,28
 368 59 368 59 368 44.5 c 128,-1,29
 368 30 368 30 350 17 c 1,30,31
 245.824 15.2637 245.824 15.2637 214.912 13.1319 c 128,-1,32
 184 11 184 11 173 11 c 128,-1,33
 162 11 162 11 26 26 c 1,34,35
 10 39 10 39 10 54 c 0,36,37
 10 89 10 89 44 89 c 0,38,39
 55 89 55 89 79 82.5 c 128,-1,40
 103 76 103 76 114.5 76 c 128,-1,41
 126 76 126 76 135 85 c 1,42,43
 131 240 131 240 131 298 c 2,44,-1
 137 668 l 1,45,46
 127 682 127 682 104 682 c 1,0,-1
EndSplineSet
Validated: 1
EndChar

StartChar: J
Encoding: 74 74 45
Width: 379
GlyphClass: 2
Flags: W
HStem: -245 73<69.5 171.984> 688 61<112.59 192.234>
VStem: 196 97<-134.469 674.171>
LayerCount: 2
Fore
SplineSet
133 -172 m 1,0,1
 154.182 -168.974 154.182 -168.974 172.591 -148.987 c 128,-1,2
 191 -129 191 -129 192 -96 c 0,3,4
 196 61 196 61 196 133.5 c 128,-1,5
 196 206 196 206 195 359 c 2,6,-1
 193 671 l 1,7,8
 184 685 184 685 155 688 c 0,9,10
 108 692.862 108 692.862 108 730 c 0,11,12
 108 737 108 737 110 749 c 1,13,14
 153 763 153 763 193.5 763 c 128,-1,15
 234 763 234 763 264 760 c 1,16,-1
 281 759 l 1,17,-1
 303 760 l 1,18,19
 343 760 343 760 360 738 c 0,20,21
 369 727 369 727 360.5 709.5 c 128,-1,22
 352 692 352 692 323.5 678.5 c 128,-1,23
 295 665 295 665 286 647 c 1,24,25
 293 429 293 429 293 277 c 2,26,27
 292 -54 l 2,28,29
 292 -95 292 -95 283 -112.5 c 0,30,31
 269.123 -139.483 269.123 -139.483 257.5 -152 c 2,32,-1
 246.5 -163.5 l 2,33,34
 242 -168 242 -168 232 -176.5 c 2,35,-1
 217 -189 l 1,36,37
 197 -207 197 -207 186 -215 c 128,-1,38
 175 -223 175 -223 147 -234 c 128,-1,39
 119 -245 119 -245 86 -245 c 128,-1,40
 53 -245 53 -245 36 -233 c 0,41,42
 7 -212 7 -212 7 -187 c 128,-1,43
 7 -162 7 -162 25 -140.5 c 128,-1,44
 43 -119 43 -119 55.5 -119 c 128,-1,45
 68 -119 68 -119 81.5 -137.5 c 0,46,47
 106.676 -172 106.676 -172 133 -172 c 1,0,1
EndSplineSet
Validated: 1
EndChar

StartChar: K
Encoding: 75 75 46
Width: 725
GlyphClass: 2
Flags: W
HStem: 10 88<642.461 703.188> 10 78<617.219 661.539> 10 66<216.252 299.75 339.669 424.201> 10 52<367.799 454.322> 330 45<229.228 265.237> 659 83<40.0312 89.84 249.283 330.215> 673 67<74.1877 110.997 233.219 302.201 375.117 454.549> 748 1<510.5 514>
VStem: 111 123<403.427 666.25> 131 79<84.75 285.255> 369 141<685.695 747>
LayerCount: 2
Fore
SplineSet
47 92 m 1,0,-1
 115 84 l 1,1,2
 126 84 126 84 131 85 c 1,3,4
 118 301 118 301 111 657 c 0,5,6
 111 668 111 668 99 668 c 1,7,-1
 54 660 l 1,8,9
 31 660 31 660 31 690.5 c 128,-1,10
 31 721 31 721 63 742 c 1,11,12
 146 741 l 1,13,14
 174.5 740 l 1,15,-1
 180 740 l 1,16,-1
 319 742 l 1,17,18
 335 727 335 727 335 704 c 128,-1,19
 335 681 335 681 319 666 c 0,20,21
 312 659 312 659 302.5 659 c 128,-1,22
 293 659 293 659 275.5 666 c 128,-1,23
 258 673 258 673 249 673 c 128,-1,24
 240 673 240 673 233 666 c 1,25,-1
 234 597 l 2,26,27
 234 551 234 551 230.5 515 c 128,-1,28
 227 479 227 479 225 401 c 1,29,30
 235 375 235 375 249 375 c 2,31,-1
 250 375 l 1,32,33
 288 428 288 428 297 441.5 c 0,34,35
 319.429 475.143 319.429 475.143 344.5 506 c 2,36,-1
 455 649 l 1,37,38
 451 667 451 667 412.5 670 c 0,39,40
 369 673.39 369 673.39 369 698 c 0,41,42
 369 715 369 715 382.5 725.5 c 128,-1,43
 396 736 396 736 421 747 c 1,44,-1
 513 749 l 1,45,-1
 514 749 l 1,46,47
 514 748 514 748 512 748 c 128,-1,48
 510 748 510 748 510 746 c 128,-1,49
 510 744 510 744 583 739 c 0,50,51
 586 738 586 738 595 733.5 c 128,-1,52
 604 729 604 729 607.5 727.5 c 128,-1,53
 611 726 611 726 616.5 722 c 0,54,55
 626 715.091 626 715.091 626 703 c 2,56,-1
 626 700 l 1,57,58
 625 686 625 686 613.5 680 c 128,-1,59
 602 674 602 674 584.5 669.5 c 128,-1,60
 567 665 567 665 558 657 c 2,61,-1
 510.5 616 l 1,62,63
 472.525 581.7 472.525 581.7 454.263 557.35 c 2,64,-1
 333 404 l 1,65,-1
 396.5 347.5 l 2,66,67
 440.166 308.313 440.166 308.313 476.5 262.5 c 2,68,-1
 617 91 l 1,69,70
 624 88 624 88 630 88 c 1,71,-1
 674 98 l 1,72,73
 684 98 684 98 691 91 c 0,74,75
 711 71 711 71 711 50 c 128,-1,76
 711 29 711 29 694 10 c 1,77,-1
 350 10 l 1,78,79
 337 23 337 23 337 39 c 128,-1,80
 337 55 337 55 347.5 65.5 c 128,-1,81
 358 76 358 76 367.5 76 c 128,-1,82
 377 76 377 76 396 69 c 128,-1,83
 415 62 415 62 424.5 62 c 128,-1,84
 434 62 434 62 445 71 c 128,-1,85
 456 80 456 80 456 95 c 128,-1,86
 456 110 456 110 452 128 c 1,87,-1
 366.5 231.5 l 2,88,89
 359 241 359 241 339.5 262.5 c 2,90,-1
 276 330 l 1,91,-1
 270 330 l 2,92,93
 238 330 238 330 216 287 c 1,94,95
 210 231 210 231 210 196 c 128,-1,96
 210 161 210 161 216 82 c 1,97,98
 224 73 224 73 239 73 c 1,99,-1
 279 77 l 1,100,101
 305 77 305 77 305 51 c 0,102,103
 305 30 305 30 284 17 c 1,104,105
 214 17 214 17 171 21.5 c 128,-1,106
 128 26 128 26 11 26 c 1,107,108
 1 36 1 36 1 51 c 128,-1,109
 1 66 1 66 13 79 c 128,-1,110
 25 92 25 92 47 92 c 1,0,-1
EndSplineSet
Validated: 1
EndChar

StartChar: L
Encoding: 76 76 47
Width: 708
GlyphClass: 2
Flags: W
HStem: -2 50<329 499.648> 14 71<36.3826 155.435> 633 98<358.313 437.822> 719 20G<253.25 257.75>
VStem: 192 137<68.8438 407.738> 201 127<197.262 614.321> 552 99<121.892 195.043 195.954 244.425> 558 112<78.6248 195.043>
LayerCount: 2
Fore
SplineSet
192 125 m 1,0,-1
 201 480 l 1,1,2
 201 541 201 541 200 577 c 1,3,4
 189 607 189 607 168.5 624.5 c 128,-1,5
 148 642 148 642 105 663 c 1,6,7
 99 680 99 680 99 698.5 c 128,-1,8
 99 717 99 717 114 731 c 1,9,10
 207.774 734.677 207.774 734.677 229.387 736.839 c 128,-1,11
 251 739 251 739 255.5 739 c 128,-1,12
 260 739 260 739 272 738 c 0,13,14
 310.909 734.758 310.909 734.758 418 731 c 1,15,16
 445 709 445 709 445 684.5 c 0,17,18
 445 633 445 633 408 633 c 1,19,-1
 382 635 l 1,20,21
 368 635 368 635 358 629 c 0,22,23
 333 611 333 611 326 586 c 1,24,25
 328 503 328 503 328 403 c 2,26,-1
 327 227 l 2,27,28
 327 130 327 130 329 48 c 1,29,-1
 394 48 l 2,30,31
 437 48 437 48 468.5 55 c 128,-1,32
 500 62 500 62 558 88 c 1,33,-1
 558 96 l 2,34,35
 558 120 558 120 552 150.5 c 128,-1,36
 546 181 546 181 546 195.5 c 128,-1,37
 546 210 546 210 549.5 229.5 c 128,-1,38
 553 249 553 249 579 249 c 1,39,-1
 636 244 l 2,40,41
 646 244 646 244 651 245 c 1,42,43
 670 149 670 149 670 121 c 128,-1,44
 670 93 670 93 660 0 c 1,45,46
 624 11 624 11 600 14 c 1,47,48
 549 11 549 11 483.5 6.5 c 0,49,50
 359.778 -2 359.778 -2 280.889 -2 c 128,-1,51
 202 -2 202 -2 41 14 c 1,52,53
 26 30 26 30 26 38 c 128,-1,54
 26 46 26 46 49 85 c 1,55,-1
 57 85 l 2,56,57
 81 85 81 85 109.5 76.5 c 128,-1,58
 138 68 138 68 156 68 c 128,-1,59
 174 68 174 68 192 74 c 1,60,-1
 192 125 l 1,0,-1
EndSplineSet
Validated: 1
EndChar

StartChar: M
Encoding: 77 77 48
Width: 861
GlyphClass: 2
Flags: W
HStem: 26 69<30.3701 87.5005> 28 97<174.306 244.095 754.303 805> 28 84<609.375 690.748> 665 96<762.006 826.29> 665 77<762.006 832.996> 668.5 65.5<28.0088 87.3102>
VStem: 88 86<126.625 635.262> 694 68<411.631 609> 700 52<126.559 478.635>
LayerCount: 2
Fore
SplineSet
84 286 m 2,0,-1
 88 657 l 1,1,2
 80 668 80 668 52.5 668.5 c 128,-1,3
 25 669 25 669 20 683 c 0,4,5
 19 686 19 686 19 691 c 0,6,7
 19 714 19 714 60 734 c 1,8,9
 108 746 108 746 142.5 746 c 128,-1,10
 177 746 177 746 250 726 c 1,11,12
 296 613 296 613 321 535.5 c 128,-1,13
 346 458 346 458 367 405 c 128,-1,14
 388 352 388 352 447 239 c 1,15,-1
 708 745 l 1,16,17
 736 761 736 761 754.5 761 c 128,-1,18
 773 761 773 761 828 742 c 1,19,20
 846 721 846 721 846 704.5 c 128,-1,21
 846 688 846 688 833 679 c 1,22,-1
 833 678 l 2,23,24
 833 665 833 665 815 665 c 1,25,-1
 787 667 l 1,26,27
 762 667 762 667 762 648 c 0,28,29
 752 305 752 305 752 260 c 128,-1,30
 752 215 752 215 754 135 c 1,31,32
 760 127 760 127 779.5 125 c 0,33,34
 813 121.564 813 121.564 813 87 c 1,35,-1
 805 28 l 1,36,37
 754 21 754 21 720 21 c 1,38,-1
 609 28 l 1,39,-1
 609 37 l 1,40,-1
 607 73 l 1,41,42
 607 112 607 112 645 112 c 2,43,-1
 665 112 l 2,44,45
 683 112 683 112 691 122 c 1,46,47
 700 195 700 195 700 264 c 1,48,-1
 694 552 l 1,49,-1
 694 609 l 1,50,51
 626 460 626 460 570 302.5 c 128,-1,52
 514 145 514 145 492 95.5 c 128,-1,53
 470 46 470 46 467 40.5 c 128,-1,54
 464 35 464 35 462 32 c 0,55,56
 456.667 24 456.667 24 447 24 c 2,57,-1
 442 24 l 2,58,59
 421 24 421 24 395 58 c 1,60,61
 357 156 357 156 323.5 257.5 c 128,-1,62
 290 359 290 359 258.5 436.5 c 128,-1,63
 227 514 227 514 162 640 c 1,64,65
 177 488 177 488 177 386 c 1,66,-1
 174 194 l 1,67,-1
 174 145 l 1,68,69
 182 130 182 130 212.5 120.5 c 0,70,71
 253 107.885 253 107.885 253 79 c 0,72,73
 253 71 253 71 248 56.5 c 128,-1,74
 243 42 243 42 242 34 c 1,75,76
 206 33 206 33 165.5 29 c 128,-1,77
 125 25 125 25 85 25 c 2,78,-1
 37 26 l 1,79,80
 36 34 36 34 30 49 c 128,-1,81
 24 64 24 64 24 71 c 128,-1,82
 24 78 24 78 29 86.5 c 128,-1,83
 34 95 34 95 50 95 c 2,84,-1
 68 94 l 2,85,86
 82 94 82 94 88 102 c 1,87,88
 84 207 84 207 84 286 c 2,0,-1
EndSplineSet
Validated: 1
EndChar

StartChar: N
Encoding: 78 78 49
Width: 793
GlyphClass: 2
Flags: W
HStem: 26 74<31.7391 133.016> 34 68<200.015 248.161> 662 72<26.6235 133.664> 676 76<553.139 648.436 708 778.453> 688 64<574.831 649>
VStem: 130 81<169.255 579.638> 134 65<102.003 376.316> 631 77<250 424.421> 649 54<513.579 680>
LayerCount: 2
Fore
SplineSet
110 665 m 1,0,-1
 62 662 l 1,1,2
 27 662 27 662 20 683 c 0,3,4
 18 689 18 689 18 692 c 0,5,6
 18 715 18 715 60 734 c 1,7,8
 108 746 108 746 142.5 746 c 128,-1,9
 177 746 177 746 250 726 c 1,10,-1
 480 450 l 1,11,-1
 548 362.5 l 1,12,-1
 631 250 l 1,13,-1
 649 688 l 1,14,15
 631 688 631 688 608 682 c 128,-1,16
 585 676 585 676 574.5 676 c 128,-1,17
 564 676 564 676 555 685 c 128,-1,18
 546 694 546 694 546 702 c 1,19,-1
 555 737 l 1,20,21
 555 742 555 742 552 748 c 1,22,23
 614 752 614 752 648 752 c 128,-1,24
 682 752 682 752 777 746 c 0,25,26
 789 746 789 746 789 726.5 c 128,-1,27
 789 707 789 707 768 686 c 0,28,29
 758 677 758 677 748 677 c 2,30,-1
 708 680 l 1,31,32
 703 581 703 581 703 493 c 1,33,-1
 708 258 l 1,34,35
 708 181 708 181 703 97 c 0,36,37
 702 96 702 96 696.5 86 c 128,-1,38
 691 76 691 76 687 71 c 0,39,40
 674.889 55.8611 674.889 55.8611 660 54 c 1,41,-1
 656 54 l 2,42,43
 634 54 634 54 609 88 c 1,44,-1
 202 583 l 1,45,46
 211 475 211 475 211 419.5 c 128,-1,47
 211 364 211 364 205 283 c 128,-1,48
 199 202 199 202 199 142 c 2,49,-1
 199 114 l 1,50,51
 203 102 203 102 221 102 c 2,52,-1
 231 102 l 2,53,54
 254 102 254 102 254 79 c 0,55,56
 254 72 254 72 248.5 57 c 128,-1,57
 243 42 243 42 242 34 c 1,58,59
 207 33 207 33 155 29.5 c 128,-1,60
 103 26 103 26 67 26 c 2,61,-1
 37 26 l 1,62,63
 36 34 36 34 30 49 c 128,-1,64
 24 64 24 64 24 71 c 128,-1,65
 24 78 24 78 31.5 89 c 128,-1,66
 39 100 39 100 66 100 c 1,67,68
 116 96 l 2,69,70
 128 96 128 96 134 102 c 1,71,72
 130 207 130 207 130 286 c 2,73,-1
 134 657 l 1,74,75
 129 665 129 665 110 665 c 1,0,-1
EndSplineSet
Validated: 1
EndChar

StartChar: O
Encoding: 79 79 50
Width: 765
GlyphClass: 2
Flags: W
HStem: -9 90<326.972 499.181> 678 65<350.86 518.696>
VStem: 37 165<213.293 498.756> 646 106<280.624 537.09>
LayerCount: 2
Fore
SplineSet
430 743 m 2,0,1
 518 743 518 743 582.864 711.566 c 128,-1,2
 647.728 680.132 647.728 680.132 699.864 606.066 c 128,-1,3
 752 532 752 532 752 437 c 0,4,5
 752 384 752 384 740.474 324.942 c 128,-1,6
 728.949 265.883 728.949 265.883 716 236.5 c 128,-1,7
 703 207 703 207 692 190 c 128,-1,8
 681 173 681 173 658.5 141.5 c 2,9,-1
 626 95 l 1,10,11
 557 -9 557 -9 419 -9 c 0,12,13
 330 -9 330 -9 265 24 c 0,14,15
 146.385 84.9106 146.385 84.9106 101.5 139.5 c 0,16,17
 58.3333 192 58.3333 192 47 260 c 1,18,19
 37 328 37 328 37 373 c 0,20,21
 37 490 37 490 104 578.5 c 128,-1,22
 171 667 171 667 246.5 705 c 128,-1,23
 322 743 322 743 426 743 c 2,24,-1
 430 743 l 2,0,1
205 376 m 2,25,-1
 202 310 l 1,26,27
 202 246 202 246 227.5 200 c 128,-1,28
 253 154 253 154 280 131.5 c 128,-1,29
 307 109 307 109 348.5 95 c 128,-1,30
 390 81 390 81 425 81 c 128,-1,31
 460 81 460 81 502.5 104.5 c 128,-1,32
 545 128 545 128 567.5 161.5 c 128,-1,33
 590 195 590 195 618 265.5 c 128,-1,34
 646 336 646 336 646 401 c 0,35,36
 646 432 646 432 638.5 478 c 128,-1,37
 631 524 631 524 615.069 558.352 c 128,-1,38
 599.137 592.704 599.137 592.704 563 624 c 0,39,40
 501 678 501 678 441 678 c 0,41,42
 350.543 678 350.543 678 289.5 606 c 0,43,44
 262.366 573.996 262.366 573.996 245.183 545.498 c 128,-1,45
 228 517 228 517 219.5 488 c 128,-1,46
 211 459 211 459 209 439.5 c 128,-1,47
 207 420 207 420 205 376 c 2,25,-1
EndSplineSet
Validated: 1
EndChar

StartChar: P
Encoding: 80 80 51
Width: 631
GlyphClass: 2
Flags: W
HStem: -8 91<69.7968 117.658> 0 98<51.2814 101.843 244.44 344.353> 334 80<236.438 329.326> 658 76<32.2461 123.839> 672 70<237.027 354.758>
VStem: 120 116<113.315 333.959> 125 103<429.149 659.169> 416 151<479.449 563>
LayerCount: 2
Fore
SplineSet
320 333 m 2,0,-1
 266 334 l 2,1,2
 246 334 246 334 236 333 c 1,3,4
 237 216 237 216 244 110 c 1,5,6
 258 105 258 105 281 104 c 128,-1,7
 304 103 304 103 319.5 98 c 128,-1,8
 335 93 335 93 343 78.5 c 128,-1,9
 351 64 351 64 351 49 c 0,10,11
 351 20 351 20 326 0 c 1,12,-1
 142 -8 l 1,13,14
 93 -8 93 -8 34 0 c 1,15,16
 21 16 21 16 21 35 c 0,17,18
 21 69 21 69 51 94 c 1,19,20
 60 98 60 98 69.5 98 c 128,-1,21
 79 98 79 98 88 90.5 c 128,-1,22
 97 83 97 83 102 83 c 128,-1,23
 107 83 107 83 118 94 c 1,24,-1
 120 273 l 1,25,26
 125 356 125 356 125 508 c 2,27,-1
 124 663 l 1,28,29
 119 658 119 658 95 658 c 128,-1,30
 71 658 71 658 31 666 c 1,31,32
 21 677 21 677 21 697 c 128,-1,33
 21 717 21 717 40 734 c 1,34,35
 90 735 90 735 160.5 738 c 128,-1,36
 231 741 231 741 279 742 c 1,37,-1
 305 742 l 2,38,39
 375 742 375 742 425.5 725.5 c 128,-1,40
 476 709 476 709 523 666 c 0,41,42
 561 630 561 630 566 563 c 1,43,-1
 567 545 l 1,44,45
 567 502 567 502 539.5 459.5 c 128,-1,46
 512 417 512 417 480.5 392 c 128,-1,47
 449 367 449 367 406.5 350 c 128,-1,48
 364 333 364 333 320 333 c 2,0,-1
236 662 m 1,49,50
 228 571 228 571 228 533.5 c 128,-1,51
 228 496 228 496 236 427 c 1,52,53
 250 414 250 414 265 414 c 128,-1,54
 280 414 280 414 292 418.5 c 128,-1,55
 304 423 304 423 321 432 c 128,-1,56
 338 441 338 441 345 444 c 0,57,58
 389 463 389 463 402.5 493 c 128,-1,59
 416 523 416 523 416 548 c 128,-1,60
 416 573 416 573 403.5 599.5 c 128,-1,61
 391 626 391 626 373.5 639 c 128,-1,62
 356 652 356 652 327 662 c 128,-1,63
 298 672 298 672 283.5 672 c 128,-1,64
 269 672 269 672 236 662 c 1,49,50
EndSplineSet
Validated: 1
EndChar

StartChar: Q
Encoding: 81 81 52
Width: 765
GlyphClass: 2
Flags: W
HStem: -242 71<929.334 1126.46> 704 49<341 435.43>
VStem: 6 122<254.797 511.752> 574 100<291.745 545.708>
LayerCount: 2
Fore
SplineSet
1186 -163 m 1,0,-1
 1188 -182 l 2,1,2
 1188 -189 1188 -189 1178.5 -199.5 c 128,-1,3
 1169 -210 1169 -210 1153.5 -218 c 128,-1,4
 1138 -226 1138 -226 1126 -228 c 128,-1,5
 1114 -230 1114 -230 1090 -232 c 0,6,7
 1067 -234 1067 -234 1044.5 -238 c 128,-1,8
 1022 -242 1022 -242 999 -242 c 0,9,10
 975 -242 975 -242 937 -235 c 0,11,12
 855 -220 855 -220 783 -188 c 2,13,-1
 704 -153 l 2,14,15
 652 -129 652 -129 612 -111.5 c 128,-1,16
 572 -94 572 -94 502 -57 c 2,17,-1
 383 6 l 2,18,19
 334 33 334 33 319 37 c 0,20,21
 252 55 252 55 214 76 c 0,22,23
 185 93 185 93 148 118 c 0,24,25
 120 137 120 137 88 166 c 0,26,27
 27 221 27 221 15 309 c 0,28,29
 6 375 6 375 6 411 c 0,30,31
 6 454 6 454 20 491 c 0,32,33
 33 529 33 529 65 574 c 0,34,35
 128 663 128 663 199 706 c 0,36,37
 270 751 270 751 369 753 c 1,38,-1
 376 753 l 2,39,40
 529 753 529 753 621 619 c 0,41,42
 674 542 674 542 674 448 c 0,43,44
 674 404 674 404 657 306 c 1,45,46
 646 249 646 249 616 200 c 0,47,48
 603 179 603 179 585 152 c 2,49,-1
 554 104 l 2,50,51
 524 58 524 58 503 51 c 0,52,53
 500 50 500 50 500 46 c 0,54,55
 500 36 500 36 546 15 c 1,56,-1
 686 -43 l 2,57,58
 723 -59 723 -59 781 -86 c 2,59,-1
 872 -128 l 1,60,61
 960 -167 960 -167 1064 -171 c 1,62,-1
 1065 -171 l 2,63,64
 1087 -171 1087 -171 1132 -146 c 128,-1,65
 1177 -121 1177 -121 1184 -121 c 128,-1,66
 1191 -121 1191 -121 1191 -129 c 1,67,-1
 1186 -163 l 1,0,-1
355 704 m 1,68,-1
 341 703 l 1,69,70
 285 698 285 698 251 672 c 0,71,72
 215 645 215 645 182 600 c 128,-1,73
 149 555 149 555 140 518 c 0,74,75
 128 470 128 470 128 376.5 c 128,-1,76
 128 283 128 283 175 204 c 0,77,78
 199 164 199 164 225.5 141 c 128,-1,79
 252 118 252 118 290.5 105 c 128,-1,80
 329 92 329 92 363.5 92 c 128,-1,81
 398 92 398 92 428.5 109 c 128,-1,82
 459 126 459 126 475 141 c 0,83,84
 505 169 505 169 524 217 c 2,85,-1
 543 266 l 1,86,87
 574 350 574 350 574 408 c 0,88,89
 574 434 574 434 566.5 483 c 128,-1,90
 559 532 559 532 544 566 c 128,-1,91
 529 600 529 600 494 634.5 c 128,-1,92
 459 669 459 669 427.5 686.5 c 128,-1,93
 396 704 396 704 355 704 c 1,68,-1
EndSplineSet
Validated: 1
EndChar

StartChar: R
Encoding: 82 82 53
Width: 759
GlyphClass: 2
Flags: W
HStem: 13 78<99.2812 146.689> 26 80<81.2812 131.327 311.233 374.727> 343 68<290.469 367.251> 666 76<62.2461 152.202> 678 73<238.592 409.668>
VStem: 147 126<114.16 338.885> 150 115<123.822 342.589> 155 127<427.15 665.199> 472 141<476.761 572>
LayerCount: 2
Fore
SplineSet
612 572 m 1,0,-1
 613 554 l 1,1,2
 613 510 613 510 586 469 c 1,3,4
 541 404 541 404 469 372 c 1,5,-1
 468 371 l 1,6,7
 468 366 468 366 508.5 324.5 c 128,-1,8
 549 283 549 283 618.5 202.5 c 128,-1,9
 688 122 688 122 742 40 c 1,10,11
 703 11 703 11 669 11 c 128,-1,12
 635 11 635 11 580 31 c 1,13,14
 545 74 545 74 487.5 156.5 c 1,15,-1
 391.5 290.5 l 1,16,17
 353 342 353 342 341 342 c 2,18,-1
 300 343 l 2,19,20
 289 343 289 343 265 341 c 1,21,22
 266 274 266 274 273 119 c 1,23,24
 287 114 287 114 310.5 113 c 128,-1,25
 334 112 334 112 350 106.5 c 128,-1,26
 366 101 366 101 374 85 c 0,27,28
 380 75 380 75 380 60.5 c 128,-1,29
 380 46 380 46 356 26 c 1,30,31
 335 24 335 24 303 20.5 c 0,32,33
 234.429 13 234.429 13 189.714 13 c 128,-1,34
 145 13 145 13 64 26 c 1,35,36
 51 40 51 40 51 58.5 c 128,-1,37
 51 77 51 77 81 102 c 1,38,39
 90 106 90 106 99 106 c 128,-1,40
 108 106 108 106 117 98.5 c 128,-1,41
 126 91 126 91 131.5 91 c 128,-1,42
 137 91 137 91 147 102 c 1,43,-1
 150 282 l 1,44,45
 155 370 155 370 155 529 c 1,46,-1
 154 671 l 1,47,48
 149 666 149 666 125 666 c 128,-1,49
 101 666 101 666 61 674 c 1,50,51
 50 687 50 687 50 706 c 128,-1,52
 50 725 50 725 69 742 c 1,53,54
 113 743 113 743 184 747 c 128,-1,55
 255 751 255 751 327 751 c 128,-1,56
 399 751 399 751 456.5 737 c 128,-1,57
 514 723 514 723 569 674 c 0,58,59
 606 641 606 641 612 572 c 1,0,-1
290 668 m 1,60,61
 282 578 282 578 282 536 c 128,-1,62
 282 494 282 494 290 425 c 1,63,64
 305 411 305 411 319.5 411 c 0,65,66
 342.333 411 342.333 411 361 419 c 2,67,-1
 380.5 427.5 l 2,68,69
 393 433 393 433 407.5 439 c 0,70,71
 442.967 453.676 442.967 453.676 456 483 c 1,72,73
 472 515 472 515 472 546.5 c 128,-1,74
 472 578 472 578 454.5 613.5 c 128,-1,75
 437 649 437 649 382 668 c 0,76,77
 352 678 352 678 336.5 678 c 128,-1,78
 321 678 321 678 290 668 c 1,60,61
EndSplineSet
Validated: 1
EndChar

StartChar: S
Encoding: 83 83 54
Width: 460
GlyphClass: 2
Flags: W
HStem: -4 68<160.589 323.633> 694 42<163.412 269.301>
VStem: 19 103<485.931 637.436> 359 79<127.588 270>
LayerCount: 2
Fore
SplineSet
5 159 m 2,0,-1
 8 252 l 1,1,2
 18 263 18 263 29 263 c 128,-1,3
 40 263 40 263 60 253 c 1,4,5
 86 238 86 238 97.5 206.5 c 128,-1,6
 109 175 109 175 119.5 142 c 128,-1,7
 130 109 130 109 160 86.5 c 128,-1,8
 190 64 190 64 238 64 c 0,9,10
 292.933 64 292.933 64 313.467 75 c 128,-1,11
 334 86 334 86 341 100 c 1,12,13
 359 130 359 130 359 170.5 c 128,-1,14
 359 211 359 211 324 262 c 0,15,16
 306 288 306 288 281 301 c 128,-1,17
 256 314 256 314 220 324.5 c 128,-1,18
 184 335 184 335 166 345 c 128,-1,19
 148 355 148 355 124.5 363 c 128,-1,20
 101 371 101 371 85 380 c 128,-1,21
 69 389 69 389 58 407 c 0,22,23
 19 468 19 468 19 523.5 c 128,-1,24
 19 579 19 579 36 624.5 c 128,-1,25
 53 670 53 670 73.5 689.5 c 128,-1,26
 94 709 94 709 128.5 722.5 c 128,-1,27
 163 736 163 736 190.5 736 c 128,-1,28
 218 736 218 736 267.502 725.432 c 128,-1,29
 317.004 714.864 317.004 714.864 335.002 712.432 c 128,-1,30
 353 710 353 710 361.5 708 c 0,31,32
 388.352 701.682 388.352 701.682 401 680 c 1,33,34
 401 614 401 614 398.5 588.5 c 128,-1,35
 396 563 396 563 384 501 c 1,36,37
 374 499 374 499 371 499 c 0,38,39
 335.2 499 335.2 499 323.5 570.5 c 0,40,41
 319 598 319 598 306.5 628 c 128,-1,42
 294.015 657.964 294.015 657.964 273 671 c 0,43,44
 236 694 236 694 212 694 c 128,-1,45
 188 694 188 694 171 680 c 0,46,47
 122 640 122 640 122 574 c 0,48,49
 122 528 122 528 145 484 c 0,50,51
 155 464 155 464 171.5 454.5 c 128,-1,52
 188 445 188 445 214.5 438 c 128,-1,53
 241 431 241 431 258.5 422.5 c 128,-1,54
 276 414 276 414 308 406 c 128,-1,55
 340 398 340 398 363 387 c 128,-1,56
 386 376 386 376 401 353 c 0,57,58
 438 298 438 298 438 242 c 128,-1,59
 438 186 438 186 417.38 131.378 c 128,-1,60
 396.761 76.7554 396.761 76.7554 373.5 53 c 128,-1,61
 350.251 29.2559 350.251 29.2559 311.625 12.6279 c 128,-1,62
 273 -4 273 -4 236 -4 c 128,-1,63
 199 -4 199 -4 131 12 c 1,64,-1
 114 17 l 2,65,66
 107 19 107 19 101 20.5 c 128,-1,67
 95 22 95 22 88.5 25.5 c 128,-1,68
 82 29 82 29 78 30.5 c 128,-1,69
 74 32 74 32 65.5 38 c 128,-1,70
 57 44 57 44 52.5 46.5 c 128,-1,71
 48 49 48 49 34 58.5 c 2,72,-1
 11 74 l 1,73,74
 5 131 5 131 5 159 c 2,0,-1
EndSplineSet
Validated: 1
EndChar

StartChar: T
Encoding: 84 84 55
Width: 853
GlyphClass: 2
Flags: MW
LayerCount: 2
Fore
SplineSet
507 85 m 1,0,-1
 540 88 l 1,1,2
 555 88 555 88 563.5 76 c 128,-1,3
 572 64 572 64 572 40.5 c 128,-1,4
 572 17 572 17 552 0 c 1,5,6
 422.692 0 422.692 0 356.346 7.5 c 128,-1,7
 290 15 290 15 216 28 c 1,8,9
 200 44 200 44 200 60.5 c 128,-1,10
 200 77 200 77 208 88 c 0,11,12
 223 109 223 109 253 109 c 1,13,-1
 312 104 l 2,14,15
 322 104 322 104 327 105 c 1,16,-1
 326 157 l 1,17,18
 326 253 326 253 338 381 c 128,-1,19
 350 509 350 509 350 563.5 c 128,-1,20
 350 618 350 618 347 668 c 1,21,22
 329 669 329 669 290 673.5 c 128,-1,23
 251 678 251 678 217 678 c 1,24,-1
 185 677 l 1,25,26
 151 657 151 657 143.5 630 c 128,-1,27
 136 603 136 603 126 557.5 c 128,-1,28
 116 512 116 512 82 464 c 1,29,30
 76 459 76 459 68 459 c 0,31,32
 45 459 45 459 25 521 c 1,33,34
 46 614.545 46 614.545 46 627.273 c 0,35,36
 46 647 46 647 67 717 c 1,37,38
 80.25 730.25 80.25 730.25 89.625 732.125 c 128,-1,39
 99 734 99 734 109.5 735 c 128,-1,40
 120 736 120 736 140.5 739.5 c 128,-1,41
 161 743 161 743 201.5 743 c 128,-1,42
 242 743 242 743 314 735.5 c 128,-1,43
 386 728 386 728 431 728 c 128,-1,44
 476 728 476 728 542.5 737 c 128,-1,45
 609 746 609 746 643.5 746 c 0,46,47
 729 746 729 746 757 720 c 1,48,-1
 779.5 696.5 l 2,49,50
 782 694 782 694 787.5 683 c 128,-1,51
 793 672 793 672 793.5 663 c 0,52,53
 794.494 645.11 794.494 645.11 842 532 c 1,54,55
 837 513 837 513 823.5 500.5 c 128,-1,56
 810 488 810 488 797.5 488 c 128,-1,57
 785 488 785 488 782 489 c 1,58,59
 749 535 749 535 733.5 581 c 128,-1,60
 718 627 718 627 706.5 650 c 128,-1,61
 695 673 695 673 663 687 c 1,62,63
 587 669 587 669 475 662 c 1,64,65
 475 550 475 550 483 364.5 c 128,-1,66
 491 179 491 179 492 97 c 0,67,68
 492 85 492 85 507 85 c 1,0,-1
EndSplineSet
Validated: 1
EndChar

StartChar: U
Encoding: 85 85 56
Width: 802
GlyphClass: 2
Flags: W
HStem: -14 102<340.674 512.526> 628 103<33.0745 110.18> 661 76<538.837 622.064 740.541 774.972> 672 68<248.672 346.443 713.157 753.003>
VStem: 114 138<213.888 660.996> 128 137<174.094 271.892 277.119 383.904 387.086 663> 621 89<200.387 666.625>
LayerCount: 2
Fore
SplineSet
708 511 m 2,0,-1
 710 355 l 1,1,2
 710 244 710 244 699 111 c 1,3,4
 682 77 682 77 656 59 c 128,-1,5
 630 41 630 41 586 26 c 1,6,7
 478 -14 478 -14 403 -14 c 128,-1,8
 328 -14 328 -14 250 11 c 0,9,10
 223 20 223 20 203.5 36 c 128,-1,11
 184 52 184 52 162 76 c 128,-1,12
 140 100 140 100 122 114 c 1,13,14
 114 191 114 191 114 274.5 c 128,-1,15
 114 358 114 358 121 479.5 c 128,-1,16
 128 601 128 601 128 644 c 2,17,-1
 128 663 l 1,18,19
 125 661 125 661 110.5 650.5 c 128,-1,20
 96 640 96 640 76 634 c 128,-1,21
 56 628 56 628 45.5 628 c 128,-1,22
 35 628 35 628 25.5 637.5 c 128,-1,23
 16 647 16 647 16 662 c 128,-1,24
 16 677 16 677 26.5 698.5 c 128,-1,25
 37 720 37 720 68 731 c 1,26,27
 172.605 735.184 172.605 735.184 202.303 737.592 c 128,-1,28
 232 740 232 740 240 740 c 128,-1,29
 248 740 248 740 375 722 c 1,30,31
 401 701 401 701 401 676 c 0,32,33
 401 665 401 665 393 654 c 1,34,35
 384 644 384 644 371 644 c 128,-1,36
 358 644 358 644 329 658 c 128,-1,37
 300 672 300 672 288 672 c 128,-1,38
 276 672 276 672 265 663 c 1,39,40
 263 599 263 599 257.5 517.5 c 128,-1,41
 252 436 252 436 252 385.5 c 128,-1,42
 252 335 252 335 270 210 c 1,43,44
 292 158 292 158 319.5 128 c 0,45,46
 356.167 88 356.167 88 424 88 c 0,47,48
 527 88 527 88 606 196 c 1,49,50
 621 337 621 337 621 398 c 2,51,-1
 621 466 l 2,52,53
 621 537 621 537 626 657 c 1,54,55
 619 667 619 667 602 667 c 1,56,-1
 555 661 l 1,57,58
 529 661 529 661 529 688.5 c 128,-1,59
 529 716 529 716 566 737 c 1,60,-1
 662 739 l 2,61,62
 669 739 669 739 674 738.5 c 128,-1,63
 679 738 679 738 700.5 737 c 128,-1,64
 722 736 722 736 754 734 c 1,65,66
 784 713 784 713 784 690 c 0,67,68
 784 682 784 682 779 674 c 128,-1,69
 774 666 774 666 764 666 c 1,70,-1
 728 672 l 1,71,72
 718 672 718 672 713 666 c 1,73,74
 708 587 708 587 708 511 c 2,0,-1
EndSplineSet
Validated: 1
EndChar

StartChar: V
Encoding: 86 86 57
Width: 682
GlyphClass: 2
Flags: W
HStem: 16 225<287.25 371.5> 679 61<31.1924 92.4689> 710 38<249.097 304.747> 721 34<192.003 251.266>
VStem: 559 96<695 738.5>
LayerCount: 2
Fore
SplineSet
506 707 m 1,0,1
 461 707 461 707 461 735 c 0,2,3
 461 748 461 748 472 757 c 1,4,5
 564 755 564 755 651 748 c 1,6,7
 655 743 655 743 655 734 c 128,-1,8
 655 725 655 725 638 707 c 128,-1,9
 621 689 621 689 617 680 c 0,10,11
 563.701 561.423 563.701 561.423 492.85 377.212 c 128,-1,12
 422 193 422 193 350 40 c 0,13,14
 339 16 339 16 304.5 16 c 128,-1,15
 270 16 270 16 265 40 c 2,16,-1
 212.5 260 l 1,17,18
 175.4 408.4 175.4 408.4 94 660 c 0,19,20
 89 674 89 674 63 679 c 128,-1,21
 37 684 37 684 31 697 c 0,22,23
 27 707 27 707 27 718 c 128,-1,24
 27 729 27 729 40 740 c 1,25,26
 165 755 165 755 178.5 755 c 128,-1,27
 192 755 192 755 296 748 c 1,28,29
 313 735 313 735 305 722.5 c 128,-1,30
 297 710 297 710 276 710 c 1,31,-1
 205 721 l 1,32,33
 192 721 192 721 192 711 c 0,34,35
 192 707 192 707 193 705 c 0,36,37
 221 601 221 601 263 503.5 c 128,-1,38
 305 406 305 406 347 256 c 0,39,40
 352 241 352 241 365 241 c 128,-1,41
 378 241 378 241 381 247 c 0,42,43
 459 431 459 431 509 562 c 128,-1,44
 559 693 559 693 559 697 c 0,45,46
 559 708 559 708 536 708 c 2,47,-1
 506 707 l 1,0,1
EndSplineSet
Validated: 1
EndChar

StartChar: W
Encoding: 87 87 58
Width: 1041
GlyphClass: 2
Flags: W
HStem: 680 60<28.6172 137.125 395.651 460.746> 710 38<249.097 304.747> 721 34<192.003 251.266>
VStem: 925 97<696 738.5>
LayerCount: 2
Fore
SplineSet
463 739 m 1,0,-1
 582 742 l 1,1,2
 625 742 625 742 700 737 c 1,3,4
 717 724 717 724 708 711 c 0,5,6
 704 705 704 705 686 695.5 c 128,-1,7
 668 686 668 686 656 685 c 128,-1,8
 644 684 644 684 629.5 667.5 c 128,-1,9
 615 651 615 651 609 636 c 2,10,-1
 603 620 l 1,11,12
 655 469 655 469 714 256 c 0,13,14
 719 241 719 241 732 241 c 128,-1,15
 745 241 745 241 748 247 c 2,16,-1
 834.5 455 l 1,17,-1
 858.5 516 l 2,18,19
 865 532 865 532 888 593.5 c 2,20,-1
 924 691 l 2,21,22
 925 694 925 694 925 698 c 0,23,24
 925 708 925 708 902 708 c 2,25,-1
 873 707 l 1,26,27
 828 707 828 707 828 735 c 0,28,29
 828 748 828 748 839 757 c 1,30,31
 931 755 931 755 1018 748 c 1,32,33
 1022 743 1022 743 1022 734 c 128,-1,34
 1022 725 1022 725 1005 707 c 128,-1,35
 988 689 988 689 984 680 c 0,36,37
 928.015 555.667 928.015 555.667 857.508 372.834 c 128,-1,38
 787 190 787 190 717 40 c 0,39,40
 711 28 711 28 693 28 c 128,-1,41
 675 28 675 28 672 40 c 0,42,43
 632.426 198.298 632.426 198.298 590.213 336.149 c 128,-1,44
 548 474 548 474 543 492 c 1,45,46
 465 287 465 287 350 40 c 0,47,48
 344 28 344 28 328 28 c 128,-1,49
 312 28 312 28 309 40 c 2,50,-1
 256.5 260 l 1,51,52
 219.4 408.4 219.4 408.4 138 660 c 0,53,54
 132 680 132 680 99 680 c 2,55,-1
 73 680 l 2,56,57
 27 680 27 680 27 713 c 0,58,59
 27 729 27 729 40 740 c 1,60,61
 165 755 165 755 178.5 755 c 128,-1,62
 192 755 192 755 296 748 c 1,63,64
 313 735 313 735 305 722.5 c 128,-1,65
 297 710 297 710 276 710 c 1,66,-1
 205 721 l 1,67,68
 192 721 192 721 192 711 c 0,69,70
 192 707 192 707 193 705 c 0,71,72
 221 601 221 601 263 503.5 c 128,-1,73
 305 406 305 406 347 256 c 0,74,75
 352 241 352 241 365 241 c 128,-1,76
 378 241 378 241 381 247 c 0,77,78
 447 403 447 403 501 543 c 1,79,-1
 461 660 l 1,80,81
 453 670 453 670 428.5 676.5 c 0,82,83
 394 685.653 394 685.653 394 713 c 0,84,85
 394 729 394 729 407 740 c 1,86,-1
 463 739 l 1,0,-1
EndSplineSet
Validated: 1
EndChar

StartChar: X
Encoding: 88 88 59
Width: 793
GlyphClass: 2
Flags: W
HStem: 22 92<82.2518 156.375> 23 109<677.687 776.56> 28 65<274.004 304.704> 31 77<506 530.939> 676 49<705.095 771.829> 696 49<254.079 371.128 560.099 611.453>
LayerCount: 2
Fore
SplineSet
506 31 m 1,0,-1
 500 81 l 1,1,2
 500 90 500 90 503 100 c 0,3,4
 505 105 505 105 518.5 108 c 128,-1,5
 532 111 532 111 532 123 c 2,6,-1
 532 128 l 1,7,-1
 484 220.5 l 2,8,9
 466.923 253.231 466.923 253.231 438 293 c 0,10,11
 432 302 432 302 417 302 c 128,-1,12
 402 302 402 302 395 293 c 0,13,14
 356.765 242.529 356.765 242.529 353.382 235.765 c 128,-1,15
 350 229 350 229 334.5 205.5 c 2,16,-1
 290 139 l 1,17,18
 289 135 289 135 281.5 124.5 c 128,-1,19
 274 114 274 114 274 109 c 0,20,21
 274 93 274 93 290 93 c 1,22,-1
 311 95 l 1,23,24
 326 95 326 95 326 79 c 0,25,26
 326 68 326 68 306.5 52 c 128,-1,27
 287 36 287 36 282 28 c 1,28,-1
 145 22 l 1,29,30
 108 22 108 22 68 28 c 1,31,32
 62 35 62 35 50.5 43.5 c 0,33,34
 26 61.6087 26 61.6087 26 76.3044 c 128,-1,35
 26 91 26 91 33 99.5 c 0,36,37
 41.4307 109.737 41.4307 109.737 57.7153 117.369 c 128,-1,38
 74 125 74 125 82 125 c 128,-1,39
 90 125 90 125 105.5 119.5 c 128,-1,40
 121 114 121 114 129.5 114 c 128,-1,41
 138 114 138 114 145 122 c 2,42,-1
 236 231 l 2,43,44
 255 253 255 253 286.5 282.5 c 128,-1,45
 318 312 318 312 358 353 c 0,46,47
 368 363 368 363 368 375.5 c 128,-1,48
 368 388 368 388 358 412 c 1,49,-1
 297 486 l 2,50,51
 270.463 518.224 270.463 518.224 269.731 522.612 c 128,-1,52
 269 527 269 527 244 561.5 c 2,53,-1
 172 658 l 1,54,55
 164 662 164 662 152 662 c 1,56,-1
 78 651 l 1,57,58
 57 651 57 651 43 660 c 0,59,60
 16 676 16 676 16 695 c 0,61,62
 16 720.5 16 720.5 46 729.5 c 0,63,64
 51 731 51 731 62 733.5 c 128,-1,65
 73 736 73 736 77 737 c 0,66,67
 215 745 215 745 257.5 745 c 128,-1,68
 300 745 300 745 378 728 c 1,69,70
 389 719 389 719 389 709 c 128,-1,71
 389 699 389 699 383 691 c 128,-1,72
 377 683 377 683 367 683 c 128,-1,73
 357 683 357 683 337.5 689.5 c 128,-1,74
 318 696 318 696 308 696 c 128,-1,75
 298 696 298 696 293 686 c 1,76,77
 324 631 324 631 371.5 575.5 c 128,-1,78
 419 520 419 520 441 489 c 1,79,80
 489 541 489 541 529.5 590.5 c 128,-1,81
 570 640 570 640 612 686 c 1,82,83
 609 697 609 697 586 699 c 128,-1,84
 563 701 563 701 560 711 c 0,85,86
 559 713 559 713 559 718 c 0,87,88
 559 735 559 735 577 745 c 1,89,90
 619 745 619 745 649 747.5 c 128,-1,91
 679 750 679 750 686 750 c 128,-1,92
 693 750 693 750 765 725 c 1,93,94
 772 717 772 717 772 702 c 128,-1,95
 772 687 772 687 762 678.5 c 128,-1,96
 752 670 752 670 745 670 c 1,97,-1
 715 676 l 1,98,99
 708 676 708 676 705 674 c 0,100,101
 616.786 580.001 616.786 580.001 564 510.5 c 1,102,-1
 501 430 l 1,103,-1
 617.5 228 l 2,104,105
 641 189 641 189 677 139 c 1,106,107
 699 132 699 132 719 132 c 2,108,-1
 740 133 l 1,109,110
 763 133 763 133 777 117.5 c 128,-1,111
 791 102 791 102 791 79 c 1,112,-1
 786 23 l 1,113,114
 674 23 674 23 627.5 27 c 128,-1,115
 581 31 581 31 506 31 c 1,0,-1
EndSplineSet
Validated: 1
EndChar

StartChar: Y
Encoding: 89 89 60
Width: 759
GlyphClass: 2
Flags: W
HStem: 4 69<194.728 271> 17 49<183.705 229.4 471.123 501.398> 628.5 71.5<466.81 537 662.867 729.43> 642 58<242.19 328.201>
VStem: 302 103<76.9436 289.188>
LayerCount: 2
Fore
SplineSet
425 57 m 1,0,-1
 472 66 l 1,1,2
 482 66 482 66 492.5 56 c 128,-1,3
 503 46 503 46 503 35.5 c 128,-1,4
 503 25 503 25 498 17 c 1,5,6
 367 4 367 4 339 4 c 128,-1,7
 311 4 311 4 191 14 c 1,8,9
 183 24 183 24 183 37.5 c 128,-1,10
 183 51 183 51 195.5 62 c 128,-1,11
 208 73 208 73 221 73 c 1,12,-1
 271 65 l 1,13,14
 285 65 285 65 293 74 c 1,15,16
 302 168 302 168 302 287 c 1,17,18
 265 364 265 364 195.5 462 c 128,-1,19
 126 560 126 560 94 614 c 1,20,21
 88 617 88 617 82 617 c 1,22,-1
 46 609 l 1,23,24
 41 609 41 609 34 614 c 0,25,26
 14 632 14 632 14 654 c 128,-1,27
 14 676 14 676 26 691 c 1,28,29
 129 699 129 699 148 699 c 2,30,-1
 204 697 l 2,31,32
 230 697 230 697 310 700 c 1,33,34
 331 684 331 684 331 664 c 0,35,36
 331 638 331 638 305 638 c 1,37,-1
 264 642 l 1,38,39
 248 642 248 642 242 631 c 1,40,41
 267 564 267 564 308 477 c 128,-1,42
 349 390 349 390 370 324 c 1,43,-1
 549 614 l 1,44,45
 537 619 537 619 516.5 621 c 128,-1,46
 496 623 496 623 482.5 628.5 c 0,47,48
 462 636.852 462 636.852 462 659.426 c 128,-1,49
 462 682 462 682 489 700 c 1,50,-1
 537 703.5 l 2,51,52
 558 705 558 705 566 706 c 0,53,54
 582 708 582 708 589.5 708 c 128,-1,55
 597 708 597 708 606.5 707.5 c 128,-1,56
 616 707 616 707 648.5 704.5 c 128,-1,57
 681 702 681 702 720 700 c 1,58,59
 735 687 735 687 735 672 c 128,-1,60
 735 657 735 657 728 649 c 1,61,62
 718 634 718 634 697 634 c 1,63,-1
 647 639 l 1,64,65
 629 639 629 639 617 631 c 1,66,67
 598 598 598 598 567.5 540 c 2,68,-1
 519.5 451 l 1,69,70
 470.043 363.391 470.043 363.391 415 290 c 1,71,72
 413 264 413 264 410.5 238 c 2,73,-1
 406.5 196.5 l 2,74,75
 405 181 405 181 405 157.5 c 128,-1,76
 405 134 405 134 412 68 c 0,77,78
 413 57 413 57 425 57 c 1,0,-1
EndSplineSet
Validated: 1
EndChar

StartChar: Z
Encoding: 90 90 61
Width: 768
GlyphClass: 2
Flags: W
HStem: 8 21G<120.75 132.25> 32.5 52.5<261.926 611.284> 39 46<258.002 434.413> 691 28<224.406 535.999>
VStem: 708 43<240.812 299.659>
LayerCount: 2
Fore
SplineSet
89 48 m 1,0,-1
 91 85 l 2,1,2
 91 95 91 95 90 100 c 1,3,-1
 302 389.5 l 2,4,5
 315 408 315 408 357.5 459.5 c 128,-1,6
 400 511 400 511 426 540 c 2,7,-1
 532 657 l 1,8,9
 536 668 536 668 536 677.5 c 128,-1,10
 536 687 536 687 532 691 c 1,11,-1
 250 691 l 1,12,13
 218 681 218 681 182 640 c 0,14,15
 164 620 164 620 154 601.5 c 128,-1,16
 144 583 144 583 131.5 555 c 128,-1,17
 119 527 119 527 105 503 c 1,18,19
 83 493 83 493 61.5 493 c 128,-1,20
 40 493 40 493 28 512 c 1,21,-1
 39.5 558.5 l 1,22,-1
 48.5 594.5 l 2,23,24
 58.0408 630.755 58.0408 630.755 66 648 c 2,25,-1
 105 725 l 1,26,27
 376 725 376 725 389.5 723.5 c 128,-1,28
 403 722 403 722 409.5 721 c 128,-1,29
 416 720 416 720 423.5 719 c 0,30,31
 438.5 717 438.5 717 703 717 c 1,32,33
 705 713 705 713 705 709 c 128,-1,34
 705 705 705 705 696 695 c 128,-1,35
 687 685 687 685 618.5 601.5 c 1,36,-1
 490 438.5 l 1,37,-1
 265 128 l 1,38,39
 258 107 258 107 258 99.5 c 128,-1,40
 258 92 258 92 265 85 c 1,41,-1
 572 85 l 1,42,43
 604 98 604 98 623 117.5 c 128,-1,44
 642 137 642 137 660.5 166 c 128,-1,45
 679 195 679 195 684 227 c 128,-1,46
 689 259 689 259 708 299 c 1,47,48
 712 301 712 301 720 301 c 0,49,50
 739 301 739 301 751 282 c 1,51,52
 751 231 751 231 746 204.5 c 128,-1,53
 741 178 741 178 725 137 c 1,54,-1
 715.5 110.5 l 2,55,56
 696.647 56.8424 696.647 56.8424 683.324 44.9212 c 128,-1,57
 670 33 670 33 657 26 c 1,58,59
 536 26 536 26 437.5 32.5 c 128,-1,60
 339 39 339 39 205 39 c 1,61,62
 189 37 189 37 163.5 22.5 c 128,-1,63
 138 8 138 8 126.5 8 c 128,-1,64
 115 8 115 8 102 16.5 c 128,-1,65
 89 25 89 25 89 48 c 1,0,-1
EndSplineSet
Validated: 1
EndChar

StartChar: backslash
Encoding: 92 92 63
Width: 793
GlyphClass: 2
Flags: W
HStem: 22 92<641.786 704.406> 28 65<492.004 523.151> 43.5 80.5<730.189 763.992> 670 80<41.8652 92.9053> 670 55<28.1167 92.9053> 698.5 46.5<186.547 238.609>
LayerCount: 2
Fore
SplineSet
670 114 m 1,0,-1
 718 124 l 1,1,2
 731 124 731 124 751.5 111.5 c 128,-1,3
 772 99 772 99 772 83.5 c 128,-1,4
 772 68 772 68 765.5 60 c 128,-1,5
 759 52 759 52 747.5 43.5 c 128,-1,6
 736 35 736 35 730 28 c 1,7,8
 690 22 690 22 663 22 c 128,-1,9
 636 22 636 22 595 25 c 128,-1,10
 554 28 554 28 516 28 c 1,11,12
 512 34 512 34 492 50.5 c 128,-1,13
 472 67 472 67 472 79 c 0,14,15
 472 95 472 95 487 95 c 1,16,-1
 508 93 l 1,17,18
 524 93 524 93 524 107 c 0,19,20
 524 114 524 114 516.5 124.5 c 128,-1,21
 509 135 509 135 508 139 c 1,22,23
 455 218 455 218 386 303.5 c 128,-1,24
 317 389 317 389 294.5 417.5 c 128,-1,25
 272 446 272 446 220.5 519 c 128,-1,26
 169 592 169 592 93 674 c 0,27,28
 90 676 90 676 83 676 c 1,29,-1
 52 670 l 1,30,31
 41 670 41 670 33.5 681.5 c 128,-1,32
 26 693 26 693 26 705 c 128,-1,33
 26 717 26 717 33 725 c 1,34,35
 106 750 106 750 112.5 750 c 128,-1,36
 119 750 119 750 149 747.5 c 128,-1,37
 179 745 179 745 221 745 c 1,38,39
 239 735 239 735 239 718 c 128,-1,40
 239 701 239 701 214 698.5 c 128,-1,41
 189 696 189 696 186 686 c 1,42,43
 228 640 228 640 262.5 585 c 128,-1,44
 297 530 297 530 345 477 c 1,45,-1
 407.5 412 l 2,46,47
 434 384 434 384 465 348 c 2,48,-1
 653 122 l 2,49,50
 660 114 660 114 670 114 c 1,0,-1
EndSplineSet
Validated: 1
EndChar

StartChar: bracketright
Encoding: 93 93 64
Width: 262
GlyphClass: 2
Flags: W
HStem: -5 49.5<70.25 123.746> 703 29<41.2192 112.952>
VStem: 148 70<58.9502 581.617> 166 49<364.084 647.369>
LayerCount: 2
Fore
SplineSet
215 630 m 2,0,-1
 220 300 l 1,1,-1
 218 12 l 1,2,3
 207 8 207 8 191 0 c 1,4,-1
 189 -2 l 1,5,-1
 188 -2 l 1,6,7
 181.091 4.90909 181.091 4.90909 144 8 c 1,8,-1
 139 8 l 2,9,10
 129 8 129 8 111.5 1.5 c 128,-1,11
 94 -5 94 -5 86 -5 c 128,-1,12
 78 -5 78 -5 70 0 c 0,13,14
 53 12 53 12 61 30 c 0,15,16
 67 42 67 42 91.5 44.5 c 128,-1,17
 116 47 116 47 124 57 c 0,18,19
 148 88 148 88 148 132 c 1,20,-1
 145 201 l 2,21,22
 145 211 145 211 148 243 c 128,-1,23
 151 275 151 275 154 376.5 c 128,-1,24
 157 478 157 478 161.5 524 c 128,-1,25
 166 570 166 570 166 582 c 0,26,27
 166 628 166 628 153 648 c 128,-1,28
 140 668 140 668 100 699 c 0,29,30
 95 703 95 703 86 703 c 1,31,-1
 57 699 l 1,32,33
 48 699 48 699 41 706.5 c 128,-1,34
 34 714 34 714 45.5 726 c 128,-1,35
 57 738 57 738 80 738 c 1,36,-1
 133 732 l 1,37,-1
 138 732 l 1,38,-1
 202 738 l 1,39,40
 223 738 223 738 223 726 c 0,41,42
 223 719 223 719 216 708 c 1,43,44
 215 681 215 681 215 630 c 2,0,-1
EndSplineSet
Validated: 1
EndChar

StartChar: asciicircum
Encoding: 94 94 65
Width: 346
GlyphClass: 2
Flags: W
HStem: 435 273
VStem: 20 114<443.828 509.405> 223 103<436.654 508.462>
LayerCount: 2
Fore
SplineSet
134 453 m 0,0,1
 133 442 133 442 76.5 442 c 128,-1,2
 20 442 20 442 20 455 c 2,3,-1
 20 456 l 1,4,5
 50 536 50 536 126 683 c 1,6,7
 176 708 176 708 195.5 708 c 128,-1,8
 215 708 215 708 232 698 c 1,9,10
 252 669 252 669 262 648 c 128,-1,11
 272 627 272 627 282 593 c 128,-1,12
 292 559 292 559 304 524 c 128,-1,13
 316 489 316 489 326 450 c 1,14,-1
 326 449 l 2,15,16
 326 435 326 435 277.5 435 c 128,-1,17
 229 435 229 435 223 445 c 0,18,19
 221 448 221 448 203.5 500.5 c 128,-1,20
 186 553 186 553 162 566 c 1,21,22
 144 514 144 514 134 453 c 0,0,1
EndSplineSet
Validated: 1
EndChar

StartChar: grave
Encoding: 96 96 67
Width: 288
GlyphClass: 2
Flags: W
HStem: 435 273
VStem: 141.5 102.5<436.507 508.989>
LayerCount: 2
Fore
SplineSet
44 683 m 1,0,1
 94 708 94 708 113.5 708 c 128,-1,2
 133 708 133 708 150 698 c 1,3,4
 170 669 170 669 180 648 c 128,-1,5
 190 627 190 627 200 593 c 128,-1,6
 210 559 210 559 222 524 c 128,-1,7
 234 489 234 489 244 450 c 1,8,-1
 244 449 l 2,9,10
 244 435 244 435 195.5 435 c 128,-1,11
 147 435 147 435 141.5 444 c 128,-1,12
 136 453 136 453 119.5 509 c 0,13,14
 72.9751 666.903 72.9751 666.903 44 683 c 1,0,1
EndSplineSet
Validated: 1
EndChar

StartChar: a
Encoding: 97 97 68
Width: 417
GlyphClass: 2
Flags: W
HStem: 0 88<326 366.499> 431 55<136.633 230.414>
VStem: 7 94<80.2258 181.68> 21 100<305.782 404.012> 241 81<287.283 423.764> 251 72<121.812 188>
LayerCount: 2
Fore
SplineSet
358 3 m 2,0,-1
 338 2 l 1,1,2
 320 0 320 0 308.5 0 c 128,-1,3
 297 0 297 0 286 5.5 c 128,-1,4
 275 11 275 11 271 15 c 128,-1,5
 267 19 267 19 263 25 c 128,-1,6
 259 31 259 31 255.5 34.5 c 128,-1,7
 252 38 252 38 249 44 c 0,8,9
 242 56 242 56 234 56 c 2,10,-1
 230 56 l 2,11,12
 217 56 217 56 200.5 41 c 128,-1,13
 184 26 184 26 178 22.5 c 128,-1,14
 172 19 172 19 164 14 c 0,15,16
 139 -5 139 -5 104 -5 c 128,-1,17
 69 -5 69 -5 46 10 c 128,-1,18
 23 25 23 25 15 57.5 c 128,-1,19
 7 90 7 90 7 112 c 0,20,21
 7 171 7 171 64 220 c 1,22,23
 99 248 99 248 155 271 c 0,24,25
 165 275 165 275 188.5 276.5 c 128,-1,26
 212 278 212 278 222.5 287 c 128,-1,27
 233 296 233 296 237 314 c 128,-1,28
 241 332 241 332 241 344 c 128,-1,29
 241 356 241 356 239 367 c 128,-1,30
 237 378 237 378 236 386 c 128,-1,31
 235 394 235 394 234 398 c 128,-1,32
 233 402 233 402 231 408 c 0,33,34
 227 418 227 418 218 424.5 c 128,-1,35
 209 431 209 431 201.5 431 c 128,-1,36
 194 431 194 431 169.5 425.5 c 128,-1,37
 145 420 145 420 133 404.5 c 128,-1,38
 121 389 121 389 121 358 c 2,39,-1
 121 339 l 1,40,41
 120 321 120 321 104.5 309.5 c 128,-1,42
 89 298 89 298 74 298 c 0,43,44
 21 298 21 298 21 349 c 0,45,46
 21 358 21 358 22 362 c 0,47,48
 32 420 32 420 61.5 445 c 128,-1,49
 91 470 91 470 118 477 c 128,-1,50
 145 484 145 484 190 486 c 2,51,-1
 211 487 l 1,52,53
 243 487 243 487 269 469 c 0,54,55
 306 444 306 444 314 401 c 128,-1,56
 322 358 322 358 322 290 c 2,57,-1
 322 264 l 1,58,-1
 323 220 l 1,59,-1
 324 198 l 1,60,-1
 323 157 l 2,61,62
 323 138 323 138 326 112 c 1,63,-1
 326 99 l 2,64,65
 326 88 326 88 338 88 c 128,-1,66
 350 88 350 88 366 109.5 c 128,-1,67
 382 131 382 131 393 131 c 0,68,69
 394 131 394 131 401.5 128 c 128,-1,70
 409 125 409 125 409 113 c 1,71,-1
 406 89 l 1,72,-1
 405 69 l 2,73,74
 405 58 405 58 403.5 53.5 c 128,-1,75
 402 49 402 49 401 44 c 128,-1,76
 400 39 400 39 398.5 35.5 c 128,-1,77
 397 32 397 32 394 28 c 0,78,79
 381 7 381 7 371 5 c 128,-1,80
 361 3 361 3 358 3 c 2,0,-1
251 178 m 1,81,-1
 250 188 l 2,82,83
 248 216 248 216 227 228 c 0,84,85
 219 232 219 232 198.5 226.5 c 128,-1,86
 178 221 178 221 150 204 c 0,87,88
 101 172 101 172 101 144 c 0,89,90
 101 88 101 88 133 74 c 0,91,92
 137 72 137 72 141 72 c 128,-1,93
 145 72 145 72 155 77.5 c 128,-1,94
 165 83 165 83 169 84 c 2,95,-1
 183 90 l 2,96,97
 211 101 211 101 224 116 c 0,98,99
 251 147 251 147 251 178 c 1,81,-1
EndSplineSet
Validated: 1
EndChar

StartChar: b
Encoding: 98 98 69
Width: 508
GlyphClass: 2
Flags: W
HStem: -3 43<211.075 311.904>
VStem: 68 83<130.055 362.023 451.003 670.644> 404 84<150.904 320.123>
LayerCount: 2
Fore
SplineSet
105 788 m 0,0,1
 110 791 110 791 113.5 791 c 0,2,3
 127.231 791 127.231 791 145 752.5 c 0,4,5
 148 746 148 746 149 744 c 0,6,7
 152 648 152 648 152 569.5 c 128,-1,8
 152 491 152 491 151 462 c 1,9,10
 152 451 152 451 160 451 c 128,-1,11
 168 451 168 451 188.5 461 c 128,-1,12
 209 471 209 471 218 473 c 128,-1,13
 227 475 227 475 251 481.5 c 128,-1,14
 275 488 275 488 286 489.5 c 128,-1,15
 297 491 297 491 311.5 493.5 c 128,-1,16
 326 496 326 496 336 496 c 128,-1,17
 346 496 346 496 365 487.5 c 128,-1,18
 384 479 384 479 402.5 460.5 c 128,-1,19
 421 442 421 442 430.5 426.5 c 128,-1,20
 440 411 440 411 457.5 375.5 c 128,-1,21
 475 340 475 340 481 308 c 128,-1,22
 487 276 487 276 488 227 c 1,23,-1
 488 212 l 2,24,25
 488 171 488 171 475.5 136.5 c 128,-1,26
 463 102 463 102 433 66 c 0,27,28
 427 59 427 59 418.5 47 c 128,-1,29
 410 35 410 35 404.5 28.5 c 0,30,31
 388.607 9.71725 388.607 9.71725 368 8 c 0,32,33
 284 -3 284 -3 214 -3 c 0,34,35
 100 -3 100 -3 74 27 c 1,36,37
 68 130 68 130 68 365 c 128,-1,38
 68 600 68 600 71 658 c 1,39,40
 65 667 65 667 49 670 c 128,-1,41
 33 673 33 673 20 675 c 128,-1,42
 7 677 7 677 7 684 c 0,43,44
 7 685 7 685 15.5 701.5 c 0,45,46
 34.7156 738.801 34.7156 738.801 105 788 c 0,0,1
259 426 m 1,47,48
 208.333 419.667 208.333 419.667 180.667 374.833 c 128,-1,49
 153 330 153 330 153 275 c 0,50,51
 153 155.065 153 155.065 190 93 c 1,52,53
 204.545 65.7273 204.545 65.7273 215.773 56.8636 c 0,54,55
 237.133 40 237.133 40 255.567 40 c 128,-1,56
 274 40 274 40 300.5 54 c 128,-1,57
 327 68 327 68 346 91.5 c 128,-1,58
 364.942 114.928 364.942 114.928 384.471 155.964 c 128,-1,59
 404 197 404 197 404 229 c 0,60,61
 404 278.778 404 278.778 387 310.889 c 0,62,63
 344.563 391.048 344.563 391.048 297 413 c 0,64,65
 271 426 271 426 259 426 c 1,47,48
EndSplineSet
Validated: 1
EndChar

StartChar: c
Encoding: 99 99 70
Width: 432
GlyphClass: 2
Flags: W
HStem: 4 63<222 300.906> 411 67<163.255 281.703>
VStem: 14 96<130.206 334.974> 323 52<89.257 141.265>
LayerCount: 2
Fore
SplineSet
258 4 m 2,0,-1
 226 5 l 1,1,2
 213 4 213 4 193 4 c 0,3,4
 135.607 4 135.607 4 88 47 c 1,5,6
 36 98 36 98 24 150 c 0,7,8
 14 189 14 189 14 224.5 c 128,-1,9
 14 260 14 260 27 305.5 c 128,-1,10
 40 351 40 351 56 380 c 128,-1,11
 72 409 72 409 105 434 c 0,12,13
 161 478 161 478 234 478 c 2,14,-1
 248 478 l 1,15,16
 274 477 274 477 284.5 475.5 c 0,17,18
 313.667 471.333 313.667 471.333 344.333 440.667 c 128,-1,19
 375 410 375 410 375 380 c 0,20,21
 375 371 375 371 374 366 c 0,22,23
 367 339 367 339 345 338 c 1,24,-1
 342 338 l 2,25,26
 330 338 330 338 316.5 354.5 c 128,-1,27
 303 371 303 371 297.5 375 c 128,-1,28
 292 379 292 379 283.5 387 c 0,29,30
 264.206 405.159 264.206 405.159 250.103 408.079 c 128,-1,31
 236 411 236 411 216 411 c 128,-1,32
 196 411 196 411 171.5 395 c 128,-1,33
 147 379 147 379 128.5 329 c 128,-1,34
 110 279 110 279 110 246 c 0,35,36
 110 139.278 110 139.278 159 93 c 0,37,38
 176 77 176 77 222 70 c 1,39,-1
 252 67 l 1,40,41
 282.368 67 282.368 67 303 91.5 c 0,42,43
 312.215 102.443 312.215 102.443 323 133 c 0,44,45
 328 149 328 149 342.5 149 c 128,-1,46
 357 149 357 149 366 141.5 c 128,-1,47
 375 134 375 134 375 123 c 2,48,-1
 375 121 l 2,49,50
 375 81 375 81 372 72 c 0,51,52
 366.5 55.5 366.5 55.5 357 46 c 1,53,54
 341.96 25.32 341.96 25.32 320 18 c 2,55,-1
 294 9 l 1,56,57
 276 4 276 4 258 4 c 2,0,-1
EndSplineSet
Validated: 1
EndChar

StartChar: d
Encoding: 100 100 71
Width: 444
GlyphClass: 2
Flags: W
HStem: 426 75<179.741 282.504> 697 89<288.618 338>
VStem: 10 80<158.74 322.59> 258 129<699.921 753.471> 315 70<511.794 696.999> 336 58<165.243 363.68>
LayerCount: 2
Fore
SplineSet
316 467 m 1,0,1
 315 495 315 495 315 588.5 c 128,-1,2
 315 682 315 682 319 694 c 0,3,4
 319 697 319 697 315.5 697 c 128,-1,5
 312 697 312 697 295 691 c 128,-1,6
 278 685 278 685 269 685 c 0,7,8
 258 685 258 685 258 703 c 128,-1,9
 258 721 258 721 275 746 c 128,-1,10
 292 771 292 771 309 782 c 0,11,12
 314 786 314 786 330 786 c 128,-1,13
 346 786 346 786 366.5 776 c 128,-1,14
 387 766 387 766 387 754 c 0,15,16
 387 752 387 752 385 748 c 1,17,18
 394 538 394 538 394 149 c 2,19,-1
 394 108 l 2,20,21
 394 101 394 101 410.5 84.5 c 128,-1,22
 427 68 427 68 427 62 c 2,23,-1
 427 57 l 2,24,25
 427 17 427 17 407 8 c 0,26,27
 405 7 405 7 399 7 c 2,28,-1
 366 10 l 1,29,-1
 362 10 l 2,30,31
 347 10 347 10 327 34.5 c 128,-1,32
 307 59 307 59 299.5 59 c 128,-1,33
 292 59 292 59 279 49.5 c 128,-1,34
 266 40 266 40 222 23 c 128,-1,35
 178 6 178 6 155 6 c 128,-1,36
 132 6 132 6 122.5 7.5 c 0,37,38
 101.87 10.7574 101.87 10.7574 80 42 c 2,39,-1
 64 65 l 1,40,41
 10 130.172 10 130.172 10 209 c 2,42,-1
 10 221 l 1,43,44
 13 310 13 310 37.0996 359.117 c 128,-1,45
 61.1992 408.234 61.1992 408.234 81.0996 431.617 c 128,-1,46
 101 455 101 455 134.5 477.5 c 128,-1,47
 168 500 168 500 202 501 c 1,48,-1
 206 501 l 2,49,50
 225 501 225 501 274 484 c 0,51,52
 281 482 281 482 293.5 470 c 128,-1,53
 306 458 306 458 310.5 458 c 128,-1,54
 315 458 315 458 316 467 c 1,0,1
240 425 m 0,55,56
 236 426 236 426 228.5 426 c 128,-1,57
 221 426 221 426 195.5 413.5 c 128,-1,58
 170 401 170 401 146.5 372 c 128,-1,59
 123 343 123 343 110 319 c 128,-1,60
 97 295 97 295 93.5 266 c 128,-1,61
 90 237 90 237 90 229 c 0,62,63
 90 193 90 193 108 164.5 c 128,-1,64
 126 136 126 136 145.5 122.5 c 128,-1,65
 165 109 165 109 193 98.5 c 128,-1,66
 221 88 221 88 231.5 88 c 128,-1,67
 242 88 242 88 249 90 c 128,-1,68
 256 92 256 92 259.5 94 c 128,-1,69
 263 96 263 96 266.5 98.5 c 128,-1,70
 270 101 270 101 272.5 102.5 c 128,-1,71
 275 104 275 104 278 107.5 c 128,-1,72
 281 111 281 111 282.5 112.5 c 128,-1,73
 284 114 284 114 287 119 c 128,-1,74
 290 124 290 124 291 125 c 128,-1,75
 292 126 292 126 295.5 132 c 128,-1,76
 299 138 299 138 300 139 c 0,77,78
 336 196.6 336 196.6 336 276 c 0,79,80
 336 328 336 328 309 372 c 128,-1,81
 282 416 282 416 240 425 c 0,55,56
EndSplineSet
Validated: 1
EndChar

StartChar: e
Encoding: 101 101 72
Width: 364
GlyphClass: 2
Flags: W
HStem: 4 76<154.699 290.786> 268 64<127.596 249.662> 415 61<161.442 244.712>
VStem: 14 96<127.013 268.632> 253 100<343 405.686> 296 57<84.9834 140.749>
LayerCount: 2
Fore
SplineSet
250 343 m 1,0,-1
 253 378 l 1,1,2
 253 396 253 396 240 406 c 1,3,4
 226 415 226 415 210 415 c 128,-1,5
 194 415 194 415 172.5 400.5 c 0,6,7
 126 369.14 126 369.14 126 346 c 0,8,9
 126 342 126 342 129 337 c 1,10,11
 134 332 134 332 191 332 c 128,-1,12
 248 332 248 332 250 343 c 1,0,-1
263 3 m 2,13,-1
 226 5 l 1,14,15
 213 4 213 4 193 4 c 0,16,17
 135.607 4 135.607 4 88 47 c 1,18,19
 36 98 36 98 24 150 c 0,20,21
 14 189 14 189 14 224.5 c 128,-1,22
 14 260 14 260 27 305.5 c 128,-1,23
 40 351 40 351 56 380 c 128,-1,24
 72 409 72 409 105 434 c 0,25,26
 160 476 160 476 220.132 476 c 128,-1,27
 280.263 476 280.263 476 309 456.5 c 0,28,29
 323 447 323 447 338 417 c 128,-1,30
 353 387 353 387 353 362 c 128,-1,31
 353 337 353 337 342.5 308.5 c 128,-1,32
 332 280 332 280 313 279 c 0,33,34
 192 268 192 268 152.5 268 c 128,-1,35
 113 268 113 268 112 269 c 1,36,37
 110 249 110 249 110 231 c 128,-1,38
 110 213 110 213 114.5 185 c 128,-1,39
 119 157 119 157 127 137.5 c 128,-1,40
 135 118 135 118 155 101 c 1,41,42
 164.75 91.25 164.75 91.25 175.375 89.125 c 128,-1,43
 186 87 186 87 193 85 c 128,-1,44
 200 83 200 83 217 83 c 1,45,-1
 250 80 l 1,46,47
 267 80 267 80 277 87 c 128,-1,48
 287 94 287 94 290 100 c 128,-1,49
 293 106 293 106 296 117 c 128,-1,50
 299 128 299 128 301 133 c 0,51,52
 306 149 306 149 320 149 c 128,-1,53
 334 149 334 149 343.5 141 c 128,-1,54
 353 133 353 133 353 122 c 2,55,-1
 353 121 l 1,56,57
 350 78 350 78 348.5 71.5 c 128,-1,58
 347 65 347 65 334.5 43.5 c 128,-1,59
 322 22 322 22 301.5 12.5 c 128,-1,60
 281 3 281 3 263 3 c 2,13,-1
EndSplineSet
Validated: 1
EndChar

StartChar: f
Encoding: 102 102 73
Width: 322
GlyphClass: 2
Flags: W
HStem: 0 64<14.2218 65.8092 162.686 208.81> 353 93<170 259.916> 357 81<166.594 216> 660 72<198.971 311.94>
VStem: 74 90<79.8179 344.454 463.781 620.783>
LayerCount: 2
Fore
SplineSet
164 507 m 2,0,-1
 165 451 l 1,1,-1
 165 438 l 1,2,-1
 170 438 l 2,3,4
 184 438 184 438 204.5 442 c 128,-1,5
 225 446 225 446 237 446 c 128,-1,6
 249 446 249 446 259 433 c 128,-1,7
 269 420 269 420 269 401 c 128,-1,8
 269 382 269 382 252.5 367.5 c 128,-1,9
 236 353 236 353 216 353 c 1,10,-1
 170 357 l 1,11,-1
 168 357 l 1,12,13
 162 277 162 277 162 189.5 c 128,-1,14
 162 102 162 102 163 74 c 0,15,16
 163 64 163 64 178 64 c 2,17,-1
 188 64 l 2,18,19
 203 64 203 64 209 57 c 1,20,21
 220 40 220 40 220 27.5 c 128,-1,22
 220 15 220 15 209 0 c 1,23,-1
 21 0 l 1,24,25
 7 12 7 12 7 27 c 128,-1,26
 7 42 7 42 14 53.5 c 128,-1,27
 21 65 21 65 40.5 67 c 128,-1,28
 60 69 60 69 66 78 c 1,29,30
 68 136 68 136 68.5 216 c 128,-1,31
 69 296 69 296 70 325 c 1,32,33
 66 337 66 337 51.5 346.5 c 128,-1,34
 37 356 37 356 30 365 c 1,35,36
 23 377 23 377 23 386.5 c 128,-1,37
 23 396 23 396 26 408 c 128,-1,38
 29 420 29 420 47 435.5 c 128,-1,39
 65 451 65 451 70 463 c 1,40,41
 74 488 74 488 74 512 c 2,42,-1
 74 542 l 2,43,44
 74 613 74 613 124.5 663.5 c 0,45,46
 144 683 144 683 173 702 c 128,-1,47
 202 721 202 721 252 729 c 0,48,49
 267 732 267 732 277.5 732 c 128,-1,50
 288 732 288 732 294.5 730 c 128,-1,51
 301 728 301 728 311.5 725.5 c 128,-1,52
 322 723 322 723 325 722 c 2,53,-1
 336.5 718 l 2,54,55
 360.011 709.702 360.011 709.702 366.005 702.851 c 0,56,57
 386 680 386 680 386 661.5 c 128,-1,58
 386 643 386 643 372 631 c 1,59,60
 364 626 364 626 357.5 626 c 0,61,62
 326.182 626 326.182 626 307.091 641 c 0,63,64
 282.909 660 282.909 660 254.955 660 c 128,-1,65
 227 660 227 660 212.5 649.5 c 0,66,67
 187.011 631.042 187.011 631.042 181 607 c 2,68,-1
 174 579 l 2,69,70
 164 543 164 543 164 507 c 2,0,-1
EndSplineSet
Validated: 1
EndChar

StartChar: g
Encoding: 103 103 74
Width: 515
GlyphClass: 2
Flags: W
HStem: -270 88<147 306.873> -5 57<197.125 324.456> 430 75<176.288 262.25>
VStem: 10 119<-147.296 -67.6768> 37 92<247.86 370.507> 292 107<237.51 375.622> 368 119<-140.414 -56.3398>
LayerCount: 2
Fore
SplineSet
452 490 m 2,0,-1
 482 494 l 1,1,2
 496 494 496 494 497 484 c 0,3,4
 501 454 501 454 501 434.5 c 128,-1,5
 501 415 501 415 492.5 397.5 c 128,-1,6
 484 380 484 380 481 374.5 c 0,7,8
 472.516 358.946 472.516 358.946 455 357 c 1,9,-1
 449 357 l 2,10,11
 437 357 437 357 420 374 c 128,-1,12
 403 391 403 391 386 395 c 1,13,14
 384 388 384 388 384 376 c 128,-1,15
 384 364 384 364 391.5 341 c 128,-1,16
 399 318 399 318 399 302 c 2,17,-1
 399 281 l 2,18,19
 399 243 399 243 393 231 c 128,-1,20
 387 219 387 219 376.5 205.5 c 128,-1,21
 366 192 366 192 347 182.5 c 128,-1,22
 328 173 328 173 301 164.5 c 128,-1,23
 274 156 274 156 260 148.5 c 128,-1,24
 246 141 246 141 225.5 136 c 128,-1,25
 205 131 205 131 193 124 c 128,-1,26
 181 117 181 117 178 101 c 1,27,-1
 178 97 l 2,28,29
 178 75 178 75 212 61 c 0,30,31
 233 52 233 52 248.5 52 c 128,-1,32
 264 52 264 52 290 57.5 c 128,-1,33
 316 63 316 63 329.5 63 c 128,-1,34
 343 63 343 63 364 58 c 128,-1,35
 385 53 385 53 397 49.5 c 0,36,37
 435.35 38.3147 435.35 38.3147 461.175 8.65734 c 128,-1,38
 487 -21 487 -21 487 -66 c 2,39,-1
 487 -74 l 1,40,41
 486 -114 486 -114 459 -148 c 128,-1,42
 432 -182 432 -182 404 -200 c 128,-1,43
 376 -218 376 -218 321 -242 c 0,44,45
 256.833 -270 256.833 -270 162 -270 c 0,46,47
 132 -270 132 -270 111.5 -259.5 c 128,-1,48
 91 -249 91 -249 81.5 -238.5 c 128,-1,49
 72 -228 72 -228 62.5 -214.5 c 2,50,-1
 43.5 -188.5 l 2,51,52
 18.2203 -155.237 18.2203 -155.237 14.1102 -139.619 c 128,-1,53
 10 -124 10 -124 10 -114 c 128,-1,54
 10 -104 10 -104 11.5 -96.5 c 128,-1,55
 13 -89 13 -89 19 -81 c 128,-1,56
 25 -73 25 -73 30.5 -69 c 128,-1,57
 36 -65 36 -65 47 -58 c 128,-1,58
 58 -51 58 -51 65.5 -45 c 128,-1,59
 73 -39 73 -39 93 -36 c 128,-1,60
 113 -33 113 -33 125.5 -27.5 c 128,-1,61
 138 -22 138 -22 139 -8 c 1,62,-1
 139 -7 l 2,63,64
 139 0 139 0 133.5 3 c 128,-1,65
 128 6 128 6 119.5 8.5 c 128,-1,66
 111 11 111 11 105.5 15.5 c 128,-1,67
 100 20 100 20 85.5 29 c 128,-1,68
 71 38 71 38 64 46 c 128,-1,69
 57 54 57 54 57 66 c 1,70,71
 69 87 69 87 89 107.5 c 128,-1,72
 109 128 109 128 119 140 c 1,73,74
 120 143 120 143 120 150.5 c 128,-1,75
 120 158 120 158 108 180.5 c 128,-1,76
 96 203 96 203 71 228.5 c 0,77,78
 37 263.18 37 263.18 37 296 c 0,79,80
 37 303 37 303 43.5 329.5 c 128,-1,81
 50 356 50 356 67.5 385.5 c 128,-1,82
 85 415 85 415 85 437 c 2,83,-1
 85 442 l 1,84,85
 84 453 84 453 70 464.5 c 128,-1,86
 56 476 56 476 56 483 c 128,-1,87
 56 490 56 490 57 493 c 1,88,-1
 63 493 l 2,89,90
 74 493 74 493 93 482.5 c 128,-1,91
 112 472 112 472 129.5 472 c 128,-1,92
 147 472 147 472 177.5 487 c 128,-1,93
 208 502 208 502 220.5 503.5 c 128,-1,94
 233 505 233 505 244.5 505 c 128,-1,95
 256 505 256 505 275 500 c 128,-1,96
 294 495 294 495 322 478.5 c 128,-1,97
 350 462 350 462 372 461 c 1,98,-1
 374 461 l 2,99,100
 391 461 391 461 414 475 c 128,-1,101
 437 489 437 489 452 490 c 2,0,-1
271 394.5 m 128,-1,103
 267 403 267 403 254.727 416.5 c 128,-1,104
 242.455 430 242.455 430 220.227 430 c 128,-1,105
 198 430 198 430 165 397.5 c 128,-1,106
 132 365 132 365 129 322 c 1,107,-1
 129 313 l 2,108,109
 129 278 129 278 154.5 243 c 128,-1,110
 180 208 180 208 191.5 202 c 128,-1,111
 203 196 203 196 214 196 c 2,112,-1
 220 196 l 1,113,114
 238 198 238 198 251 211.5 c 128,-1,115
 264 225 264 225 269.5 237.5 c 0,116,117
 292 288.636 292 288.636 292 314.318 c 128,-1,118
 292 340 292 340 283.5 363 c 128,-1,102
 275 386 275 386 271 394.5 c 128,-1,103
329 -32 m 0,119,120
 305.375 -5 305.375 -5 268.688 -5 c 0,121,122
 223.769 -5 223.769 -5 158 -52.5 c 0,123,124
 149 -59 149 -59 139 -73 c 128,-1,125
 129 -87 129 -87 129 -103 c 2,126,-1
 129 -106 l 1,127,128
 130 -123 130 -123 141 -136.5 c 128,-1,129
 152 -150 152 -150 163.5 -156.5 c 0,130,131
 208.615 -182 208.615 -182 235.808 -182 c 128,-1,132
 263 -182 263 -182 279.5 -177.5 c 128,-1,133
 296 -173 296 -173 306.5 -171 c 128,-1,134
 317 -169 317 -169 320.5 -168.5 c 128,-1,135
 324 -168 324 -168 332 -165 c 128,-1,136
 340 -162 340 -162 344 -159.5 c 0,137,138
 354.667 -152.833 354.667 -152.833 361.333 -140.417 c 128,-1,139
 368 -128 368 -128 368 -116 c 128,-1,140
 368 -104 368 -104 355.5 -76 c 128,-1,141
 343 -48 343 -48 329 -32 c 0,119,120
EndSplineSet
Validated: 1
EndChar

StartChar: h
Encoding: 104 104 75
Width: 485
GlyphClass: 2
Flags: W
HStem: 13 67.5<14.2882 106.712 288.253 340.809> 399 95<210.182 313.558> 727 20G<141.5 155>
VStem: 102 86<86.1224 381.264 451 659.475> 360 81<135.401 353.079>
LayerCount: 2
Fore
SplineSet
186 294 m 2,0,-1
 188 149 l 2,1,2
 188 115 188 115 187 98 c 1,3,4
 192 86 192 86 209.5 86 c 128,-1,5
 227 86 227 86 232 79 c 0,6,7
 249 56 249 56 249 41 c 128,-1,8
 249 26 249 26 239 15 c 1,9,10
 112 13 112 13 27 13 c 1,11,12
 9 27 9 27 9 39.5 c 128,-1,13
 9 52 9 52 14 62 c 0,14,15
 23 80 23 80 60.5 80.5 c 128,-1,16
 98 81 98 81 107 95 c 1,17,18
 102 234 102 234 102 409 c 2,19,-1
 102 645 l 1,20,21
 95 656 95 656 74.5 661 c 128,-1,22
 54 666 54 666 49 670.5 c 128,-1,23
 44 675 44 675 38 679.5 c 128,-1,24
 32 684 32 684 29.5 686.5 c 0,25,26
 22 694 22 694 22 702 c 1,27,28
 25.6562 720.281 25.6562 720.281 35.8281 724.641 c 128,-1,29
 46 729 46 729 50 730.5 c 128,-1,30
 54 732 54 732 65.5 733.5 c 128,-1,31
 77 735 77 735 109 741 c 128,-1,32
 141 747 141 747 142 747 c 0,33,34
 168 747 168 747 184 730 c 1,35,36
 188 655 188 655 188 560 c 2,37,-1
 188 451 l 1,38,39
 202.105 467.456 202.105 467.456 212.5 473 c 2,40,-1
 223.5 479 l 2,41,42
 227 481 227 481 237 483.5 c 128,-1,43
 247 486 247 486 250 487 c 128,-1,44
 253 488 253 488 267 490 c 128,-1,45
 281 492 281 492 285.5 493 c 128,-1,46
 290 494 290 494 300 494 c 0,47,48
 332 494 332 494 381 456 c 0,49,50
 409 434 409 434 425 384 c 128,-1,51
 441 334 441 334 441 270 c 1,52,-1
 432 101 l 1,53,-1
 432 85 l 1,54,55
 437 72 437 72 452.5 66.5 c 0,56,57
 478 57.4516 478 57.4516 478 30 c 0,58,59
 478 20 478 20 472 12 c 1,60,61
 457 13 457 13 441 13 c 2,62,-1
 382 12 l 2,63,64
 333 12 333 12 290 13 c 1,65,66
 280 23 280 23 280 37 c 128,-1,67
 280 51 280 51 288 62 c 128,-1,68
 296 73 296 73 315.5 73.5 c 128,-1,69
 335 74 335 74 341 82 c 1,70,71
 360 200 360 200 360 237 c 128,-1,72
 360 274 360 274 353 318.5 c 128,-1,73
 346 363 346 363 290 391 c 0,74,75
 272 399 272 399 261 399 c 128,-1,76
 250 399 250 399 240 396 c 128,-1,77
 230 393 230 393 223 391.5 c 128,-1,78
 216 390 216 390 212.5 389 c 128,-1,79
 209 388 209 388 203.5 386 c 128,-1,80
 198 384 198 384 195.5 381.5 c 0,81,82
 188 374 188 374 187 358 c 128,-1,83
 186 342 186 342 186 294 c 2,0,-1
EndSplineSet
Validated: 1
EndChar

StartChar: k
Encoding: 107 107 78
Width: 537
GlyphClass: 2
Flags: W
HStem: 5 46<310.22 372.903> 7 34<182.159 224.81> 391 62<255.078 326.188> 658 82<35.4062 79.8083>
VStem: 80 105<45.5371 197> 80 91<251.198 657.517>
LayerCount: 2
Fore
SplineSet
80 218 m 2,0,-1
 81 476 l 2,1,2
 81 588 81 588 80 649 c 1,3,4
 74 657 74 657 51 658 c 0,5,6
 13 659.652 13 659.652 13 689 c 0,7,8
 13 698 13 698 16 705 c 1,9,-1
 39 720 l 2,10,11
 42 722 42 722 43 723 c 128,-1,12
 44 724 44 724 46 725 c 128,-1,13
 48 726 48 726 49.5 726.5 c 128,-1,14
 51 727 51 727 68.5 733.5 c 128,-1,15
 86 740 86 740 115 740 c 2,16,-1
 124 740 l 2,17,18
 163.75 740 163.75 740 174.375 735 c 0,19,20
 198 723.882 198 723.882 198 701 c 0,21,22
 198 675.889 198 675.889 179 668.5 c 0,23,24
 170 665 170 665 168 660 c 1,25,26
 172 536 172 536 172 413 c 2,27,-1
 171 274 l 1,28,29
 172 267 172 267 179.5 260 c 128,-1,30
 187 253 187 253 194 251 c 1,31,32
 214 267 214 267 237.5 283 c 0,33,34
 287.554 317.08 287.554 317.08 320 351 c 1,35,36
 327 370 327 370 327 377 c 128,-1,37
 327 384 327 384 321.5 389.5 c 128,-1,38
 316 395 316 395 309 395 c 1,39,-1
 282 389 l 2,40,41
 280 389 280 389 274 391 c 0,42,43
 252 398 252 398 251 413 c 1,44,-1
 251 415 l 2,45,46
 251 437 251 437 280 453 c 1,47,48
 369 457 369 457 485 465 c 1,49,50
 504 452 504 452 504 433 c 0,51,52
 504 426 504 426 503 423 c 1,53,-1
 415 363 l 2,54,55
 371 334 371 334 343 313.5 c 2,56,-1
 263 252 l 1,57,58
 332 187 332 187 403 133 c 128,-1,59
 474 79 474 79 525 33 c 1,60,-1
 523 9 l 1,61,62
 478 1 478 1 450 1 c 128,-1,63
 422 1 422 1 378 3 c 128,-1,64
 334 5 334 5 299 5 c 1,65,66
 294 10 294 10 294 18 c 128,-1,67
 294 26 294 26 310 44 c 0,68,69
 317 51 317 51 331 51 c 1,70,-1
 355 49 l 1,71,72
 370 49 370 49 373 61 c 1,73,74
 302 99 302 99 278 116.5 c 128,-1,75
 254 134 254 134 185 197 c 1,76,-1
 185 153 l 2,77,78
 185 103 185 103 182 49 c 1,79,80
 187 42 187 42 203 41 c 128,-1,81
 219 40 219 40 225 32 c 0,82,83
 235 17 235 17 225 7 c 1,84,85
 182 -1 182 -1 139 -1 c 128,-1,86
 96 -1 96 -1 73 -0.5 c 128,-1,87
 50 -1.78814e-07 50 -1.78814e-07 39 0 c 1,88,89
 33 5 33 5 33 15 c 128,-1,90
 33 25 33 25 38.5 34 c 128,-1,91
 44 43 44 43 60 46 c 128,-1,92
 76 49 76 49 81 57 c 1,93,94
 80 112 80 112 80 218 c 2,0,-1
EndSplineSet
Validated: 1
EndChar

StartChar: l
Encoding: 108 108 79
Width: 281
GlyphClass: 2
Flags: W
HStem: 4 79.375<33.556 100.87 215 257.203> 618 123<45.6719 100>
VStem: 101 114<89 618>
LayerCount: 2
Fore
SplineSet
215 716 m 1,0,-1
 215 89 l 1,1,2
 216 89 216 89 230 82 c 128,-1,3
 244 75 244 75 250.5 68.5 c 128,-1,4
 257 62 257 62 263.5 52.5 c 128,-1,5
 270 43 270 43 270 37.5 c 128,-1,6
 270 32 270 32 265 9 c 1,7,-1
 39 4 l 1,8,9
 29 18 29 18 29 30.5 c 128,-1,10
 29 43 29 43 33 61 c 1,11,12
 50.75 78.75 50.75 78.75 73.875 83.375 c 128,-1,13
 97 88 97 88 101 89 c 1,14,-1
 100 618 l 1,15,-1
 81 618 l 2,16,17
 56 618 56 618 42 623 c 128,-1,18
 28 628 28 628 15 647 c 1,19,-1
 21 686 l 1,20,21
 28.3708 706.27 28.3708 706.27 39.1854 714.135 c 128,-1,22
 50 722 50 722 65 731 c 1,23,24
 86 741 86 741 115.5 741 c 128,-1,25
 145 741 145 741 215 716 c 1,0,-1
EndSplineSet
Validated: 1
EndChar

StartChar: m
Encoding: 109 109 80
Width: 711
GlyphClass: 2
Flags: W
HStem: 7 104<398.128 437.84> 7 93<255.526 303.84> 385 109.5<213.814 291.529> 385 72<184.803 228.259> 402 88<420.442 536.128>
VStem: -3 203<17.7891 93.4141> 52 105<104.534 358.316> 246 208<10.02 81.6877> 304 94<110.864 365.653> 559 97<113.625 379.352>
LayerCount: 2
Fore
SplineSet
659 250 m 2,0,-1
 656 137 l 1,1,2
 659 127 659 127 671 119 c 128,-1,3
 683 111 683 111 686 104 c 0,4,5
 701 74 701 74 701 60 c 0,6,7
 701 20.7647 701 20.7647 675 7 c 1,8,9
 652 6 652 6 628 6 c 128,-1,10
 604 6 604 6 543 7 c 1,11,12
 532 12 532 12 525 30.5 c 128,-1,13
 518 49 518 49 518 60 c 128,-1,14
 518 71 518 71 521.5 81.5 c 128,-1,15
 525 92 525 92 542 107 c 128,-1,16
 559 122 559 122 559 123 c 2,17,-1
 559 223 l 2,18,19
 559 282 559 282 558 348 c 1,20,21
 552 369 552 369 529.5 385 c 128,-1,22
 507 401 507 401 480 402 c 1,23,-1
 475 402 l 2,24,25
 458 402 458 402 434 389 c 1,26,27
 406 372 406 372 396 349 c 1,28,29
 399 287 399 287 399 249 c 2,30,-1
 398 151 l 1,31,-1
 398 119 l 1,32,33
 402 112 402 112 417.5 111 c 128,-1,34
 432.972 110.002 432.972 110.002 438 104 c 0,35,36
 454 85 454 85 454 68 c 128,-1,37
 454 51 454 51 449.5 33.5 c 128,-1,38
 445 16 445 16 427 7 c 1,39,40
 404 6 404 6 368.5 6 c 128,-1,41
 333 6 333 6 273 7 c 1,42,43
 262 12 262 12 254 33 c 128,-1,44
 246 54 246 54 246 63 c 128,-1,45
 246 72 246 72 251 82 c 128,-1,46
 256 92 256 92 277.5 100 c 128,-1,47
 299 108 299 108 304 119 c 1,48,-1
 302 227 l 2,49,50
 302 258 302 258 304 332 c 1,51,52
 301 355 301 355 292 366 c 0,53,54
 277 382 277 382 254 385 c 1,55,-1
 246 385 l 2,56,57
 222 385 222 385 194.5 369 c 128,-1,58
 167 353 167 353 157 330 c 1,59,60
 156 307 156 307 156 269 c 2,61,-1
 157 119 l 1,62,63
 161 113 161 113 171.5 108.5 c 128,-1,64
 182 104 182 104 186 99 c 0,65,66
 200 76 200 76 200 63.5 c 128,-1,67
 200 51 200 51 195.5 36 c 128,-1,68
 191 21 191 21 184 16.5 c 128,-1,69
 177 12 177 12 165 9 c 1,70,-1
 38 9 l 1,71,72
 18 15 18 15 7.5 29.5 c 128,-1,73
 -3 44 -3 44 -3 54 c 0,74,75
 -3 82.3333 -3 82.3333 21.5 95.1667 c 128,-1,76
 46 108 46 108 52 119 c 1,77,-1
 52 233 l 2,78,79
 52 305 52 305 51 385 c 1,80,81
 45 395 45 395 23.5 398.5 c 128,-1,82
 2 402 2 402 0 413 c 1,83,84
 61 468 61 468 97 504 c 1,85,86
 105.5 504 105.5 504 110.75 502.5 c 128,-1,87
 116 501 116 501 118 500.5 c 128,-1,88
 120 500 120 500 123 498 c 128,-1,89
 126 496 126 496 127 495 c 0,90,91
 133 489 133 489 137.5 486.5 c 128,-1,92
 142 484 142 484 147 472.5 c 0,93,94
 153.739 457 153.739 457 169.37 457 c 128,-1,95
 185 457 185 457 206.5 468.5 c 128,-1,96
 228 480 228 480 234.5 482 c 128,-1,97
 241 484 241 484 249 487.5 c 0,98,99
 266.143 495 266.143 495 279.072 494.5 c 128,-1,100
 292 494 292 494 311.5 484 c 128,-1,101
 331 474 331 474 337 472 c 128,-1,102
 343 470 343 470 352.5 466.5 c 0,103,104
 370.143 460 370.143 460 383 460 c 2,105,-1
 389 460 l 1,106,107
 398 461 398 461 409.5 469 c 0,108,109
 439.688 490 439.688 490 489 490 c 0,110,111
 548.083 490 548.083 490 594 461 c 1,112,113
 640 430 640 430 656 387 c 1,114,115
 659 282 659 282 659 250 c 2,0,-1
EndSplineSet
Validated: 1
EndChar

StartChar: n
Encoding: 110 110 81
Width: 470
GlyphClass: 2
Flags: W
HStem: 7 104<398.128 437.84> 7 93<255.526 303.84> 385 110<214.633 291.529> 385 72<184.803 228.259>
VStem: -3 203<17.7891 93.4141> 52 105<104.534 358.316> 246 208<10.02 81.6877> 304 94<110.864 365.653>
LayerCount: 2
Fore
SplineSet
156 269 m 2,0,-1
 157 119 l 1,1,2
 161 113 161 113 171.5 108.5 c 128,-1,3
 182 104 182 104 186 99 c 0,4,5
 200 76 200 76 200 63.5 c 128,-1,6
 200 51 200 51 195.5 36 c 128,-1,7
 191 21 191 21 184 16.5 c 128,-1,8
 177 12 177 12 165 9 c 1,9,-1
 38 9 l 1,10,11
 18 15 18 15 7.5 29.5 c 128,-1,12
 -3 44 -3 44 -3 54 c 0,13,14
 -3 82.3333 -3 82.3333 21.5 95.1667 c 128,-1,15
 46 108 46 108 52 119 c 1,16,-1
 52 233 l 2,17,18
 52 305 52 305 51 385 c 1,19,20
 45 395 45 395 23.5 398.5 c 128,-1,21
 2 402 2 402 0 413 c 1,22,23
 61 468 61 468 97 504 c 1,24,25
 105.5 504 105.5 504 110.75 502.5 c 128,-1,26
 116 501 116 501 118 500.5 c 128,-1,27
 120 500 120 500 123 498 c 128,-1,28
 126 496 126 496 127 495 c 0,29,30
 133 489 133 489 137.5 486.5 c 128,-1,31
 142 484 142 484 147 472.5 c 0,32,33
 153.739 457 153.739 457 169.37 457 c 128,-1,34
 185 457 185 457 206.5 468.5 c 128,-1,35
 228 480 228 480 234.5 482 c 128,-1,36
 241 484 241 484 249 487.5 c 0,37,38
 266.143 495 266.143 495 277.572 495 c 128,-1,39
 289 495 289 495 297.5 492 c 128,-1,40
 306 489 306 489 319.5 481.5 c 128,-1,41
 333 474 333 474 338 472 c 128,-1,42
 343 470 343 470 354 466.5 c 0,43,44
 374.429 460 374.429 460 383 448 c 0,45,46
 401 422 401 422 401 391.5 c 128,-1,47
 401 361 401 361 396 349 c 1,48,49
 399 287 399 287 399 249 c 2,50,-1
 398 151 l 1,51,-1
 398 119 l 1,52,53
 402 112 402 112 417.5 111 c 128,-1,54
 432.972 110.002 432.972 110.002 438 104 c 0,55,56
 454 85 454 85 454 68 c 128,-1,57
 454 51 454 51 449.5 33.5 c 128,-1,58
 445 16 445 16 427 7 c 1,59,60
 404 6 404 6 368.5 6 c 128,-1,61
 333 6 333 6 273 7 c 1,62,63
 262 12 262 12 254 33 c 128,-1,64
 246 54 246 54 246 63 c 128,-1,65
 246 72 246 72 251 82 c 128,-1,66
 256 92 256 92 277.5 100 c 128,-1,67
 299 108 299 108 304 119 c 1,68,-1
 302 227 l 2,69,70
 302 258 302 258 304 332 c 1,71,72
 301 355 301 355 292 366 c 0,73,74
 277 382 277 382 254 385 c 1,75,-1
 246 385 l 2,76,77
 222 385 222 385 194.5 369 c 128,-1,78
 167 353 167 353 157 330 c 1,79,80
 156 307 156 307 156 269 c 2,0,-1
EndSplineSet
Validated: 1
EndChar

StartChar: o
Encoding: 111 111 82
Width: 432
GlyphClass: 2
Flags: W
HStem: 4 63<222 300.318> 411 67<163.255 285.147>
VStem: 14 96<130.206 334.974> 342 78<124.289 339.431>
LayerCount: 2
Fore
SplineSet
258 4 m 2,0,-1
 226 5 l 1,1,2
 213 4 213 4 193 4 c 0,3,4
 135.607 4 135.607 4 88 47 c 1,5,6
 36 98 36 98 24 150 c 0,7,8
 14 189 14 189 14 224.5 c 128,-1,9
 14 260 14 260 27 305.5 c 128,-1,10
 40 351 40 351 56 380 c 128,-1,11
 72 409 72 409 105 434 c 0,12,13
 161 478 161 478 234 478 c 2,14,-1
 248 478 l 1,15,16
 274 477 274 477 284.5 475.5 c 0,17,18
 313.667 471.333 313.667 471.333 348.833 436.167 c 128,-1,19
 384 401 384 401 400 366.5 c 0,20,21
 420 323.375 420 323.375 420 226 c 0,22,23
 420 185 420 185 404 131.5 c 128,-1,24
 388 78 388 78 361.5 50.5 c 128,-1,25
 335 23 335 23 294 9 c 1,26,27
 276 4 276 4 258 4 c 2,0,-1
222 70 m 1,28,-1
 252 67 l 1,29,30
 282.368 67 282.368 67 303 91.5 c 0,31,32
 312.215 102.443 312.215 102.443 327.108 143.222 c 128,-1,33
 342 184 342 184 342 218.5 c 0,34,35
 342 318.1 342 318.1 299 374 c 1,36,37
 275 403 275 403 255.5 407 c 128,-1,38
 236 411 236 411 216 411 c 128,-1,39
 196 411 196 411 171.5 395 c 128,-1,40
 147 379 147 379 128.5 329 c 128,-1,41
 110 279 110 279 110 246 c 0,42,43
 110 139.278 110 139.278 159 93 c 0,44,45
 176 77 176 77 222 70 c 1,28,-1
EndSplineSet
Validated: 1
EndChar

StartChar: p
Encoding: 112 112 83
Width: 474
GlyphClass: 2
Flags: W
HStem: -9 85<199 303.481> 373 92<198.376 303.262>
VStem: 72 128<-196.994 -4> 72 96<93.9615 341.391> 364 84<141.64 304.888>
LayerCount: 2
Fore
SplineSet
168 334 m 2,0,-1
 168 129 l 2,1,2
 168 107 168 107 194.5 91.5 c 128,-1,3
 221 76 221 76 237.5 76 c 0,4,5
 293.538 76 293.538 76 332 126 c 0,6,7
 354 155 354 155 362 218 c 0,8,9
 364 232 364 232 364 241.5 c 128,-1,10
 364 251 364 251 359 265 c 0,11,12
 347 306 347 306 318 338 c 1,13,14
 283 373 283 373 242 373 c 0,15,16
 226 373 226 373 216.5 369 c 128,-1,17
 207 365 207 365 201 363 c 0,18,19
 172.421 353.474 172.421 353.474 169 341.5 c 0,20,21
 168 338 168 338 168 334 c 2,0,-1
256 -9 m 1,22,-1
 207 -4 l 1,23,-1
 199 -4 l 1,24,25
 198 -32 198 -32 198 -64 c 2,26,-1
 200 -178 l 1,27,28
 204 -188 204 -188 223 -197.5 c 128,-1,29
 242 -207 242 -207 246.5 -217 c 128,-1,30
 251 -227 251 -227 251 -240.5 c 128,-1,31
 251 -254 251 -254 241 -264 c 1,32,-1
 130 -264 l 2,33,34
 72 -264 72 -264 38 -262 c 1,35,36
 20 -251 20 -251 20 -234 c 1,37,-1
 21 -228 l 2,38,39
 23 -213 23 -213 45 -200.5 c 128,-1,40
 67 -188 67 -188 72 -176 c 1,41,-1
 72 -62 l 1,42,-1
 71 339 l 1,43,44
 61.1351 356.757 61.1351 356.757 52.0676 360.878 c 128,-1,45
 43 365 43 365 31 369.5 c 128,-1,46
 19 374 19 374 10 379 c 1,47,48
 15.8205 411.013 15.8205 411.013 47 430.5 c 0,49,50
 63 440.5 63 440.5 89 453.5 c 2,51,-1
 112 465 l 1,52,-1
 119 465 l 2,53,54
 127 465 127 465 130.5 462.5 c 128,-1,55
 134 460 134 460 144 448.5 c 128,-1,56
 154 437 154 437 169 425 c 1,57,58
 180 431 180 431 191.5 438.5 c 128,-1,59
 203 446 203 446 207.5 448.5 c 0,60,61
 216.179 453.321 216.179 453.321 240.089 459.161 c 128,-1,62
 264 465 264 465 283 465 c 128,-1,63
 302 465 302 465 340 456 c 0,64,65
 410.685 439.259 410.685 439.259 429 366 c 0,66,67
 430 362 430 362 432.5 350 c 128,-1,68
 435 338 435 338 441.5 310.5 c 128,-1,69
 448 283 448 283 448 238 c 2,70,-1
 448 220 l 2,71,72
 448 198 448 198 447 186 c 2,73,-1
 445 163 l 2,74,75
 442.941 140.353 442.941 140.353 434.971 120.176 c 0,76,77
 425.339 95.7948 425.339 95.7948 414.5 82 c 2,78,-1
 407 72.5 l 2,79,80
 405 70 405 70 396 61.5 c 2,81,-1
 385 51 l 2,82,83
 344 12 344 12 320 1.5 c 128,-1,84
 296 -9 296 -9 260 -9 c 2,85,-1
 256 -9 l 1,22,-1
EndSplineSet
Validated: 1
EndChar

StartChar: q
Encoding: 113 113 84
Width: 474
GlyphClass: 2
Flags: W
HStem: 2 85<160.849 267> 384 92<162.753 268.391>
VStem: 19 84<154.486 317> 266 128<-185.625 8> 299 96<106.56 370.092>
LayerCount: 2
Fore
SplineSet
299 345 m 2,0,1
 299 361.2 299 361.2 282 368 c 0,2,3
 272 372 272 372 266 374 c 128,-1,4
 260 376 260 376 250 380 c 128,-1,5
 240 384 240 384 227 384 c 0,6,7
 182.542 384 182.542 384 151.771 352 c 128,-1,8
 121 320 121 320 107 276 c 0,9,10
 103 263 103 263 103 249.5 c 128,-1,11
 103 236 103 236 104 229 c 0,12,13
 112 168 112 168 138.5 132.5 c 0,14,15
 172.465 87 172.465 87 224 87 c 0,16,17
 244 87 244 87 271 103 c 128,-1,18
 298 119 298 119 299 140 c 1,19,-1
 299 345 l 2,0,1
20 190.5 m 2,20,-1
 19 231 l 1,21,-1
 19 250 l 2,22,23
 19 300 19 300 25 325 c 2,24,-1
 34.5 364 l 2,25,26
 44.1539 402.615 44.1539 402.615 51.0769 412.308 c 128,-1,27
 58 422 58 422 65 430 c 0,28,29
 88 457 88 457 125.5 466.5 c 128,-1,30
 163 476 163 476 183.5 476 c 128,-1,31
 204 476 204 476 222 471.5 c 128,-1,32
 240 467 240 467 247 464.5 c 128,-1,33
 254 462 254 462 258.5 459.5 c 128,-1,34
 263 457 263 457 275 449.5 c 128,-1,35
 287 442 287 442 298 436 c 1,36,37
 319.333 453.778 319.333 453.778 326.167 462.889 c 0,38,39
 336 476 336 476 348 476 c 2,40,-1
 355 476 l 1,41,42
 359 474 359 474 365 470.5 c 128,-1,43
 371 467 371 467 393 458 c 1,44,45
 395 182 395 182 395 159 c 2,46,-1
 394 -165 l 1,47,48
 400 -177 400 -177 421.5 -189 c 128,-1,49
 443 -201 443 -201 446 -216 c 1,50,-1
 446 -221 l 2,51,52
 446 -239 446 -239 429 -250 c 1,53,54
 399 -252 399 -252 348 -252 c 2,55,-1
 226 -252 l 1,56,57
 215 -242 215 -242 215 -230.5 c 128,-1,58
 215 -219 215 -219 220 -207 c 128,-1,59
 225 -195 225 -195 243.5 -186 c 128,-1,60
 262 -177 262 -177 266 -167 c 1,61,-1
 268 -52 l 2,62,63
 268 -20 268 -20 267 8 c 1,64,-1
 260 8 l 1,65,-1
 211 2 l 1,66,-1
 207 2 l 1,67,68
 139.444 5.55556 139.444 5.55556 104 41 c 2,69,-1
 82 63 l 2,70,71
 80 65 80 65 76 68.5 c 128,-1,72
 72 72 72 72 70.5 73.5 c 128,-1,73
 69 75 69 75 65 78.5 c 128,-1,74
 61 82 61 82 56.5 86.5 c 128,-1,75
 52 91 52 91 50.5 93.5 c 128,-1,76
 49 96 49 96 45 102 c 128,-1,77
 41 108 41 108 39.5 111.5 c 128,-1,78
 38 115 38 115 35 122 c 128,-1,79
 32 129 32 129 28.5 139.5 c 128,-1,80
 25 150 25 150 23.5 156 c 0,81,82
 20 170 20 170 20 190.5 c 2,20,-1
EndSplineSet
Validated: 1
EndChar

StartChar: r
Encoding: 114 114 85
Width: 367
GlyphClass: 2
Flags: W
HStem: 0 21G<44 62> 460 20G<260.565 302>
VStem: 80 107<89.9111 344.5>
LayerCount: 2
Fore
SplineSet
187 166 m 1,0,-1
 186 110 l 1,1,2
 189 102 189 102 204 93.8182 c 128,-1,3
 219 85.6364 219 85.6364 219 63.3182 c 128,-1,4
 219 41 219 41 209 30 c 1,5,6
 187 24 187 24 131 15 c 128,-1,7
 75 6 75 6 49 0 c 1,8,9
 39 4 39 4 33 20 c 128,-1,10
 27 36 27 36 32.5 46.5 c 128,-1,11
 38 57 38 57 55 65.5 c 128,-1,12
 72 74 72 74 78 85 c 1,13,14
 80 114 80 114 80 160 c 2,15,-1
 79 261 l 2,16,17
 79 302 79 302 80 328 c 1,18,19
 74 341 74 341 48.5 354.5 c 128,-1,20
 23 368 23 368 23 385 c 1,21,22
 28 392 28 392 37.5 408.5 c 128,-1,23
 47 425 47 425 49.5 428.5 c 2,24,-1
 59 441.5 l 2,25,26
 66 451 66 451 71 454 c 2,27,-1
 83.5 461.5 l 2,28,29
 104.333 474 104.333 474 121.167 474 c 128,-1,30
 138 474 138 474 154 465 c 1,31,32
 168 452 168 452 171 449.5 c 128,-1,33
 174 447 174 447 180.5 445.5 c 128,-1,34
 187 444 187 444 199 438 c 1,35,36
 209 444 209 444 228.565 462 c 128,-1,37
 248.13 480 248.13 480 273 480 c 2,38,-1
 277 480 l 1,39,40
 327 476 327 476 345 406 c 0,41,42
 348 395 348 395 348 382 c 128,-1,43
 348 369 348 369 331 344.5 c 128,-1,44
 314 320 314 320 293 320 c 2,45,-1
 288 320 l 1,46,47
 275 323 275 323 267.5 346 c 128,-1,48
 260 369 260 369 248 372 c 1,49,50
 215 350 215 350 187 328 c 1,51,52
 186 280 186 280 186 232 c 2,53,-1
 187 166 l 1,0,-1
EndSplineSet
Validated: 1
EndChar

StartChar: s
Encoding: 115 115 86
Width: 314
GlyphClass: 2
Flags: W
HStem: -1 56<101.621 186.214> 406 66<109.875 203.367>
VStem: 16.5 81.5<315.948 392.477> 207 95<74.6216 173.023>
LayerCount: 2
Fore
SplineSet
25 146 m 1,0,1
 29 156 29 156 37 156 c 128,-1,2
 45 156 45 156 61.5 131 c 128,-1,3
 78 106 78 106 99 80.5 c 128,-1,4
 120 55 120 55 140 55 c 2,5,-1
 144 55 l 1,6,7
 172 58 172 58 188.5 79 c 128,-1,8
 205 100 205 100 207 129 c 1,9,-1
 207 131 l 2,10,11
 207 148.333 207 148.333 199 157.667 c 128,-1,12
 191 167 191 167 188 170 c 128,-1,13
 185 173 185 173 174 181.5 c 128,-1,14
 163 190 163 190 161 192 c 0,15,16
 144 206 144 206 97 212.5 c 128,-1,17
 50.0292 218.996 50.0292 218.996 36 245 c 0,18,19
 16 282 16 282 16 309 c 0,20,21
 16 313 16 313 16.5 321.5 c 128,-1,22
 17 330 17 330 17 336 c 0,23,24
 18 376 18 376 40 402.5 c 128,-1,25
 62 429 62 429 97.5 450.5 c 128,-1,26
 133 472 133 472 152.5 472 c 128,-1,27
 172 472 172 472 190 467 c 0,28,29
 251 451 251 451 269 404 c 0,30,31
 276 387 276 387 276 373.5 c 128,-1,32
 276 360 276 360 265.5 339 c 128,-1,33
 255 318 255 318 251 318 c 128,-1,34
 247 318 247 318 240.5 331 c 0,35,36
 219 374 219 374 211 379 c 128,-1,37
 203 384 203 384 194.5 390 c 128,-1,38
 186 396 186 396 181.5 398.5 c 0,39,40
 168 406 168 406 161 406 c 128,-1,41
 154 406 154 406 144 404 c 1,42,43
 98 389 98 389 98 352 c 0,44,45
 98 324.344 98 324.344 116.5 315.672 c 128,-1,46
 135 307 135 307 158.5 301 c 128,-1,47
 182 295 182 295 193 286 c 128,-1,48
 204 277 204 277 225.5 262 c 128,-1,49
 247 247 247 247 255.5 239.5 c 0,50,51
 282.313 215.841 282.313 215.841 292.157 185.421 c 128,-1,52
 302 155 302 155 302 125 c 128,-1,53
 302 95 302 95 283 67.5 c 0,54,55
 254.681 26.5115 254.681 26.5115 218.5 15.5 c 0,56,57
 164.286 -0.999999 164.286 -0.999999 140.643 -1 c 128,-1,58
 117 -1 117 -1 104.5 2 c 2,59,-1
 85.5 6.5 l 2,60,61
 79 8 79 8 77.5 8.5 c 128,-1,62
 76 9 76 9 70.5 10.5 c 128,-1,63
 65 12 65 12 59 14 c 128,-1,64
 53 16 53 16 51 17.5 c 128,-1,65
 49 19 49 19 45.5 21 c 128,-1,66
 42 23 42 23 39.5 25.5 c 0,67,68
 34 31 34 31 30 37 c 0,69,70
 9 69 9 69 9 92 c 128,-1,71
 9 115 9 115 25 146 c 1,0,1
EndSplineSet
Validated: 1
EndChar

StartChar: t
Encoding: 116 116 87
Width: 316
GlyphClass: 2
Flags: W
HStem: 4 21G<169 189> 373 81<163.058 294.012>
VStem: 64 87<79.0403 368.854>
LayerCount: 2
Fore
SplineSet
164 494 m 2,0,-1
 162 460 l 1,1,-1
 162 451 l 1,2,3
 196 454 196 454 213.5 454 c 128,-1,4
 231 454 231 454 252.5 451.5 c 2,5,-1
 283 448 l 1,6,7
 298 433 298 433 298 411.5 c 128,-1,8
 298 390 298 390 283 374 c 1,9,10
 266 373 266 373 245 373 c 2,11,-1
 209 374 l 2,12,13
 190 374 190 374 174 373 c 1,14,15
 159 368 159 368 152 357 c 1,16,17
 153 322 153 322 153 296.5 c 128,-1,18
 153 271 153 271 151 157 c 1,19,20
 153 148 153 148 154.5 129.5 c 128,-1,21
 156 111 156 111 158 102.5 c 128,-1,22
 160 94 160 94 168.5 84 c 128,-1,23
 177 74 177 74 192 69 c 1,24,25
 202 70 202 70 224.5 79 c 128,-1,26
 247 88 247 88 255 88 c 2,27,-1
 258 88 l 1,28,-1
 260 87 l 1,29,30
 272 84 272 84 272 76 c 128,-1,31
 272 68 272 68 263 52.5 c 128,-1,32
 254 37 254 37 250.5 34 c 2,33,-1
 226 13 l 1,34,35
 199 4 199 4 179 4 c 128,-1,36
 159 4 159 4 140 8 c 1,37,38
 94 15 94 15 64 64 c 1,39,-1
 64 355 l 1,40,41
 61 357 61 357 54 361 c 128,-1,42
 47 365 47 365 43.5 367.5 c 2,43,-1
 34.5 374 l 2,44,45
 25.8571 380.286 25.8571 380.286 21.4286 389.143 c 128,-1,46
 17 398 17 398 17 404 c 128,-1,47
 17 410 17 410 26 434 c 1,48,-1
 67.5 478 l 2,49,50
 83 494 83 494 85 495.5 c 128,-1,51
 87 497 87 497 90 500 c 0,52,53
 98 508 98 508 122 536 c 1,54,55
 126 537 126 537 136 537 c 128,-1,56
 146 537 146 537 155 522 c 128,-1,57
 164 507 164 507 164 494 c 2,0,-1
EndSplineSet
Validated: 1
EndChar

StartChar: u
Encoding: 117 117 88
Width: 438
GlyphClass: 2
Flags: W
HStem: -9 21G<309.5 344.5> 34 62<198.398 268.922> 403 74<222.5 290.747>
VStem: 46 1<171 177> 47 93<114.878 171 177 388.522> 292 85<127 402.705>
LayerCount: 2
Fore
SplineSet
248 403 m 2,0,1
 214 403 214 403 214 430 c 0,2,3
 214 450 214 450 229 460.5 c 128,-1,4
 244 471 244 471 260.5 472 c 128,-1,5
 277 473 277 473 289.5 475 c 128,-1,6
 302 477 302 477 324 477 c 128,-1,7
 346 477 346 477 359.5 471 c 128,-1,8
 373 465 373 465 377 464 c 128,-1,9
 381 463 381 463 389 459 c 0,10,11
 400 453.5 400 453.5 400 444 c 2,12,-1
 400 441 l 2,13,14
 400 434 400 434 389.5 425 c 128,-1,15
 379 416 379 416 377 410 c 1,16,-1
 377 127 l 1,17,-1
 396 100 l 2,18,19
 399 97 399 97 408.5 91 c 128,-1,20
 418 85 418 85 429 76 c 1,21,-1
 396 34 l 1,22,23
 374 10 374 10 315 -9 c 1,24,25
 304 -9 304 -9 298 -4.5 c 128,-1,26
 292 0 292 0 284.5 12.5 c 128,-1,27
 277 25 277 25 269 34 c 1,28,29
 260 35 260 35 252 32 c 128,-1,30
 244 29 244 29 237 27 c 128,-1,31
 230 25 230 25 200 12.5 c 128,-1,32
 170 0 170 0 149 0 c 2,33,-1
 144 0 l 1,34,35
 111 1 111 1 84.5 25 c 128,-1,36
 58 49 58 49 47 95 c 1,37,-1
 47 177 l 2,38,39
 47 171 47 171 46 171 c 1,40,-1
 46 375 l 1,41,42
 41 384 41 384 23 389 c 128,-1,43
 5 394 5 394 -0.5 405.5 c 128,-1,44
 -6 417 -6 417 -1 425.5 c 0,45,46
 8.3038 441.316 8.3038 441.316 20 448 c 1,47,-1
 30 456 l 2,48,49
 37 461 37 461 47 463 c 128,-1,50
 57 465 57 465 71.3334 469.167 c 128,-1,51
 85.6667 473.333 85.6667 473.333 93.8334 473.333 c 128,-1,52
 102 473.333 102 473.333 106 472 c 0,53,54
 132 466 132 466 140 449 c 1,55,56
 141 377 141 377 141 319 c 2,57,-1
 140 142 l 1,58,59
 167 96 167 96 216 96 c 0,60,61
 249 96 249 96 265 113.5 c 128,-1,62
 281 131 281 131 292 159 c 1,63,-1
 291 393 l 1,64,65
 283 403 283 403 263 403 c 2,66,-1
 248 403 l 2,0,1
EndSplineSet
Validated: 1
EndChar

StartChar: v
Encoding: 118 118 89
Width: 428
GlyphClass: 2
Flags: W
HStem: 400.5 88.5<5.625 39.8438 144.065 172.858> 421 68<239.188 286.878> 421 59<239.188 286.407>
VStem: -4 196<410.718 482.09>
LayerCount: 2
Fore
SplineSet
287 395 m 0,0,1
 287 421 287 421 267 421 c 2,2,-1
 255 421 l 2,3,4
 245 421 245 421 239 429.5 c 128,-1,5
 233 438 233 438 233 454.5 c 128,-1,6
 233 471 233 471 250.5 480 c 128,-1,7
 268 489 268 489 287 489 c 128,-1,8
 306 489 306 489 322.5 488 c 128,-1,9
 339 487 339 487 350.5 486.5 c 128,-1,10
 362 486 362 486 367 485.5 c 128,-1,11
 372 485 372 485 380 483 c 0,12,13
 396.87 478.783 396.87 478.783 406.935 465.391 c 128,-1,14
 417 452 417 452 417 439 c 0,15,16
 417 410.353 417 410.353 398.5 406 c 0,17,18
 390 404 390 404 387 402 c 1,19,20
 350 347 350 347 311 264.5 c 128,-1,21
 272 182 272 182 243 133 c 1,22,23
 232 108 232 108 229.5 72.5 c 128,-1,24
 227 37 227 37 218 15 c 1,25,26
 206 7 206 7 186 7 c 128,-1,27
 166 7 166 7 150 25 c 1,28,29
 137 52 137 52 134.5 89 c 128,-1,30
 132 126 132 126 125 151.5 c 0,31,32
 110.769 203.341 110.769 203.341 91 257 c 2,33,-1
 40 396 l 1,34,35
 35 400 35 400 30 400.5 c 128,-1,36
 25 401 25 401 23 403 c 0,37,38
 -4 430 -4 430 -4 444 c 128,-1,39
 -4 458 -4 458 0 465 c 0,40,41
 12 489 12 489 56 489 c 2,42,-1
 87 489 l 1,43,44
 97 490 97 490 117 490 c 0,45,46
 192 490 192 490 192 454 c 0,47,48
 192 433 192 433 173 410 c 0,49,50
 168.5 404 168.5 404 157.25 406.5 c 128,-1,51
 146 409 146 409 144 404 c 1,52,53
 143 396 143 396 143 386.5 c 128,-1,54
 143 377 143 377 147.5 350 c 128,-1,55
 152 323 152 323 154 297.5 c 128,-1,56
 156 272 156 272 157.5 258.5 c 0,57,58
 161.484 222.643 161.484 222.643 194 171 c 1,59,-1
 207 172 l 2,60,61
 207 173 207 173 215 185.5 c 0,62,63
 237.609 220.826 237.609 220.826 248 252 c 2,64,-1
 257 279.5 l 2,65,66
 260 289 260 289 265.5 312.5 c 128,-1,67
 271 336 271 336 274 347 c 2,68,-1
 279.5 363 l 2,69,70
 287 384.429 287 384.429 287 395 c 0,0,1
EndSplineSet
Validated: 1
EndChar

StartChar: w
Encoding: 119 119 90
Width: 659
GlyphClass: 2
Flags: W
HStem: -3 21G<190.5 199.5 458.25 466.75> 431.5 56.5<150.096 174.748>
VStem: 316 87<296 388.169> 527.545 129.455<421.995 471.326>
LayerCount: 2
Fore
SplineSet
601 487 m 2,0,-1
 616 486 l 2,1,2
 626 486 626 486 629 485 c 0,3,4
 632 483 632 483 635.5 481.5 c 128,-1,5
 639 480 639 480 647 472 c 1,6,7
 657 459 657 459 657 445.5 c 128,-1,8
 657 432 657 432 653 420 c 0,9,10
 650 408 650 408 641.5 400 c 128,-1,11
 633 392 633 392 630 387 c 1,12,13
 616 342 616 342 596.5 258.5 c 128,-1,14
 577 175 577 175 556 124 c 0,15,16
 534 72 534 72 487 11 c 1,17,18
 471 -3 471 -3 462.5 -3 c 128,-1,19
 454 -3 454 -3 448 0 c 1,20,21
 414 47 414 47 404 75 c 128,-1,22
 394 103 394 103 375 192 c 1,23,24
 373 195 373 195 368 204 c 0,25,26
 357 224 357 224 347 224 c 2,27,-1
 346 224 l 2,28,29
 332 224 332 224 320 208.5 c 128,-1,30
 308 193 308 193 307 192 c 0,31,32
 293 150 293 150 284 127.5 c 128,-1,33
 275 105 275 105 274 102 c 0,34,35
 273 98 273 98 265.5 83.5 c 128,-1,36
 258 69 258 69 256.5 67 c 128,-1,37
 255 65 255 65 243 45 c 2,38,-1
 226 17 l 1,39,40
 204 -3 204 -3 195 -3 c 128,-1,41
 186 -3 186 -3 180 0 c 1,42,43
 141 73 141 73 114 184 c 0,44,45
 87 300 87 300 59 355 c 0,46,47
 58 357 58 357 52 372 c 0,48,49
 48 382 48 382 46 387 c 0,50,51
 38 402 38 402 15 423 c 1,52,-1
 15 432 l 2,53,54
 15 465 15 465 38 480 c 1,55,56
 86 488 86 488 108 488 c 0,57,58
 142 488 142 488 169 470 c 0,59,60
 172 468 172 468 173 467.5 c 128,-1,61
 174 467 174 467 175.5 464.5 c 128,-1,62
 177 462 177 462 178 461 c 0,63,64
 179 458 179 458 179 447 c 2,65,-1
 179 434 l 1,66,67
 176 430 176 430 164.5 431.5 c 128,-1,68
 153 433 153 433 150 428 c 1,69,70
 168 385 168 385 180 341 c 128,-1,71
 192 297 192 297 202 274 c 128,-1,72
 212 251 212 251 235 224 c 1,73,74
 248 233 248 233 262.5 242 c 128,-1,75
 277 251 277 251 282 254 c 0,76,77
 295 263 295 263 299 276 c 0,78,79
 316 328 316 328 316 356 c 0,80,81
 316 378 316 378 309 388.5 c 128,-1,82
 302 399 302 399 282 412 c 0,83,84
 248 432 248 432 248 462 c 0,85,86
 248 474 248 474 254 480 c 1,87,88
 284 497 284 497 302.5 497 c 128,-1,89
 321 497 321 497 334.5 492.5 c 128,-1,90
 348 488 348 488 349.5 486 c 128,-1,91
 351 484 351 484 352 479.5 c 128,-1,92
 353 475 353 475 353.5 471 c 128,-1,93
 354 467 354 467 355.5 459 c 128,-1,94
 357 451 357 451 358 444 c 1,95,96
 362 451 362 451 365 458.5 c 128,-1,97
 368 466 368 466 373 476 c 128,-1,98
 378 486 378 486 380 487 c 128,-1,99
 382 488 382 488 396.5 492.5 c 128,-1,100
 411 497 411 497 422.5 497 c 128,-1,101
 434 497 434 497 448 489 c 1,102,103
 458 480 458 480 458 469.5 c 128,-1,104
 458 459 458 459 452.5 448.5 c 128,-1,105
 447 438 447 438 429 426.5 c 128,-1,106
 411 415 411 415 407 404.5 c 128,-1,107
 403 394 403 394 403 380 c 1,108,-1
 410 296 l 1,109,-1
 420 270 l 2,110,111
 425 257 425 257 425 254.5 c 128,-1,112
 425 252 425 252 430 245 c 0,113,114
 435 239 435 239 436 238 c 0,115,116
 444 235 444 235 474 211 c 1,117,118
 509 219 509 219 518.5 234.5 c 128,-1,119
 528 250 528 250 531 257 c 128,-1,120
 534 264 534 264 539.5 283 c 128,-1,121
 545 302 545 302 547.5 311 c 128,-1,122
 550 320 550 320 556 336 c 0,123,124
 565 362 565 362 565 376.5 c 128,-1,125
 565 391 565 391 561 403 c 128,-1,126
 557 415 557 415 548 424 c 0,127,128
 527.545 444.455 527.545 444.455 527.545 459.098 c 0,129,130
 527.545 465.932 527.545 465.932 532 471.5 c 0,131,132
 546 489 546 489 572 489 c 0,133,134
 581 489 581 489 601 487 c 2,0,-1
EndSplineSet
Validated: 1
EndChar

StartChar: x
Encoding: 120 120 91
Width: 494
GlyphClass: 2
Flags: W
HStem: 4 101<27.1998 94.7493> 4 64<169.125 198.861> 9 48<259.25 308.438> 146 190<223.522 292.663> 402 89<38.6074 117.498> 406 62<28.5288 69.3145> 417.5 73.5<205.065 232.501 415.125 471.621> 430 55<310.578 335.873>
LayerCount: 2
Fore
SplineSet
44 105 m 1,0,-1
 76 102 l 1,1,2
 87 102 87 102 95 106 c 1,3,4
 149 160 149 160 164 178 c 128,-1,5
 179 196 179 196 203 238 c 1,6,-1
 188 270.5 l 2,7,8
 179 290 179 290 175 299.5 c 0,9,10
 165.543 321.96 165.543 321.96 143.5 354.5 c 2,11,-1
 118 391 l 1,12,13
 102 402 102 402 77 402 c 2,14,-1
 70 402 l 2,15,16
 48 402 48 402 34 406 c 1,17,18
 28 414 28 414 28 435.5 c 128,-1,19
 28 457 28 457 36 468 c 1,20,21
 57 473 57 473 73.5 478.5 c 2,22,-1
 96 486 l 2,23,24
 111 491 111 491 144 491 c 2,25,-1
 162 491 l 2,26,27
 218 491 218 491 233 468 c 0,28,29
 240 458 240 458 240 445.5 c 128,-1,30
 240 433 240 433 235 425.5 c 128,-1,31
 230 418 230 418 218.5 417.5 c 128,-1,32
 207 417 207 417 205 411 c 1,33,34
 211 398 211 398 215 382.5 c 128,-1,35
 219 367 219 367 223.5 358.5 c 128,-1,36
 228 350 228 350 239 343 c 128,-1,37
 250 336 250 336 260.5 336 c 128,-1,38
 271 336 271 336 283 340.5 c 128,-1,39
 295 345 295 345 300 348.5 c 128,-1,40
 305 352 305 352 307.5 356 c 0,41,42
 319.783 375.652 319.783 375.652 337 396 c 1,43,44
 342 414 342 414 336 423 c 1,45,46
 332 427 332 427 320.5 430 c 128,-1,47
 309 433 309 433 307.5 438 c 128,-1,48
 306 443 306 443 306 449 c 0,49,50
 306 466 306 466 336 485 c 1,51,52
 344 486 344 486 359.5 488.5 c 128,-1,53
 375 491 375 491 384 491 c 2,54,-1
 393 491 l 1,55,-1
 406 490 l 1,56,-1
 431 491 l 1,57,58
 460 491 460 491 472 472 c 0,59,60
 476 467 476 467 476 452 c 128,-1,61
 476 437 476 437 466 419 c 0,62,63
 463 412 463 412 455 412 c 2,64,-1
 439 414 l 2,65,66
 432 414 432 414 426 407 c 128,-1,67
 420 400 420 400 394.5 374.5 c 0,68,69
 340.625 320.625 340.625 320.625 300 267 c 1,70,71
 314 231 314 231 336.5 203.5 c 128,-1,72
 359 176 359 176 392.5 142.5 c 128,-1,73
 426 109 426 109 448 80 c 1,74,75
 459 51 459 51 459 43.5 c 128,-1,76
 459 36 459 36 453 27 c 1,77,78
 420.8 13.2 420.8 13.2 398.4 11.6 c 128,-1,79
 376 10 376 10 353 7.5 c 128,-1,80
 330 5 330 5 307 5 c 128,-1,81
 284 5 284 5 265 9 c 1,82,83
 259 14 259 14 259 30 c 2,84,-1
 260 49 l 2,85,86
 260 57 260 57 275 57 c 1,87,-1
 289 56 l 1,88,89
 309 56 309 56 309 72 c 0,90,91
 309 78 309 78 305 90.5 c 2,92,-1
 300 106 l 1,93,94
 294.706 127.177 294.706 127.177 280 136 c 0,95,96
 275 139 275 139 260 145 c 1,97,98
 252 146 252 146 242 146 c 128,-1,99
 232 146 232 146 218 145 c 1,100,101
 210 137 210 137 202 132.5 c 0,102,103
 184.571 122.696 184.571 122.696 173 101 c 0,104,105
 172 98 172 98 169.5 94 c 128,-1,106
 167 90 167 90 167 87.5 c 128,-1,107
 167 85 167 85 169 72 c 1,108,109
 173 68 173 68 179 68 c 2,110,-1
 198 71 l 1,111,112
 212 71 212 71 212 56 c 0,113,114
 212 50 212 50 206 38 c 128,-1,115
 200 26 200 26 195 22 c 128,-1,116
 190 18 190 18 186.5 16.5 c 128,-1,117
 183 15 183 15 174.5 12.5 c 128,-1,118
 166 10 166 10 160 9 c 128,-1,119
 154 8 154 8 140.5 7 c 128,-1,120
 127 6 127 6 117 5 c 128,-1,121
 107 4 107 4 91.5 4 c 128,-1,122
 76 4 76 4 59.5 8.5 c 128,-1,123
 43 13 43 13 38.5 15.5 c 0,124,125
 27.5714 21.5714 27.5714 21.5714 19.7857 39.7857 c 128,-1,126
 12 58 12 58 12 72 c 128,-1,127
 12 86 12 86 21 95.5 c 128,-1,128
 30 105 30 105 44 105 c 1,0,-1
EndSplineSet
Validated: 1
EndChar

StartChar: y
Encoding: 121 121 92
Width: 491
GlyphClass: 2
Flags: W
HStem: -252 145<41.3134 120.548> 419 77<174.005 207.227 301.068 335.812> 419 55<290.479 317.76>
LayerCount: 2
Fore
SplineSet
391 495 m 2,0,-1
 411 496 l 1,1,2
 439 496 439 496 457 485 c 1,3,4
 478 462 478 462 478 445 c 128,-1,5
 478 428 478 428 474 420 c 128,-1,6
 470 412 470 412 470 411.5 c 128,-1,7
 470 411 470 411 468 410.5 c 128,-1,8
 466 410 466 410 464.5 410.5 c 128,-1,9
 463 411 463 411 456.5 409 c 2,10,-1
 441 404 l 1,11,-1
 295.5 97 l 1,12,-1
 225.5 -41.5 l 1,13,-1
 117 -245 l 1,14,15
 99 -252 99 -252 77 -252 c 128,-1,16
 55 -252 55 -252 9 -218 c 1,17,18
 0 -205 0 -205 0 -190 c 128,-1,19
 0 -175 0 -175 9 -150 c 1,20,21
 12 -127 12 -127 19.5 -117 c 128,-1,22
 27 -107 27 -107 38.5 -101.5 c 128,-1,23
 50 -96 50 -96 57 -96 c 128,-1,24
 64 -96 64 -96 78 -101.5 c 128,-1,25
 92 -107 92 -107 99 -107 c 128,-1,26
 106 -107 106 -107 112 -104 c 0,27,28
 141 -88 141 -88 153 -63 c 128,-1,29
 165 -38 165 -38 170 -12.5 c 128,-1,30
 175 13 175 13 177 22.5 c 128,-1,31
 179 32 179 32 179 47 c 128,-1,32
 179 62 179 62 166.376 125.372 c 128,-1,33
 153.752 188.744 153.752 188.744 134.376 246.872 c 128,-1,34
 115 305 115 305 74 388 c 1,35,36
 48 392 48 392 35.5 400 c 128,-1,37
 23 408 23 408 16.5 422 c 128,-1,38
 10 436 10 436 10 443.5 c 128,-1,39
 10 451 10 451 21 463 c 1,40,-1
 39 473.5 l 2,41,42
 63.1151 487.065 63.1151 487.065 77.0576 488.532 c 128,-1,43
 91 490 91 490 93 490.5 c 0,44,45
 99 492 99 492 125 493 c 128,-1,46
 151 494 151 494 163 494 c 0,47,48
 196 494 196 494 212 477 c 128,-1,49
 228 460 228 460 228 443 c 128,-1,50
 228 426 228 426 222 419.5 c 128,-1,51
 216 413 216 413 210 413 c 2,52,-1
 190 415 l 2,53,54
 184 415 184 415 179 409.5 c 128,-1,55
 174 404 174 404 174 396 c 1,56,-1
 180 366 l 1,57,58
 190 300 190 300 231 207 c 1,59,60
 242 201 242 201 254.5 201 c 128,-1,61
 267 201 267 201 283 212 c 1,62,63
 312 268 312 268 323 297 c 128,-1,64
 334 326 334 326 339 372 c 2,65,-1
 342 396 l 1,66,67
 342 408 342 408 336 414.5 c 128,-1,68
 330 421 330 421 324 421 c 2,69,-1
 309 419 l 2,70,71
 303 419 303 419 296.5 427 c 128,-1,72
 290 435 290 435 290 448 c 128,-1,73
 290 461 290 461 300 474 c 1,74,75
 334 492 334 492 391 495 c 2,0,-1
EndSplineSet
Validated: 1
EndChar

StartChar: z
Encoding: 122 122 93
Width: 466
GlyphClass: 2
Flags: W
HStem: 9 83<213.397 305.913> 430 44<132.223 249.654>
LayerCount: 2
Fore
SplineSet
193 9 m 1,0,-1
 116 7 l 1,1,2
 75 7 75 7 0 17 c 1,3,4
 -2 19 -2 19 -2 29.5 c 128,-1,5
 -2 40 -2 40 15 68 c 1,6,-1
 175.5 259 l 2,7,8
 205 295 205 295 243 347 c 1,9,10
 256 380 256 380 256 390.5 c 128,-1,11
 256 401 256 401 248 410 c 0,12,13
 231 430 231 430 205.5 430 c 128,-1,14
 180 430 180 430 151 417.5 c 128,-1,15
 122 405 122 405 109 390.5 c 128,-1,16
 96 376 96 376 89.5 361.5 c 0,17,18
 72.4528 323.472 72.4528 323.472 35 301 c 1,19,20
 26 303 26 303 23 309.5 c 128,-1,21
 20 316 20 316 20 331 c 2,22,-1
 16 399 l 1,23,24
 16 434 16 434 25 470 c 1,25,26
 53 474 53 474 70 474 c 1,27,-1
 121 470 l 1,28,-1
 301 477 l 1,29,30
 347 477 347 477 400 470 c 1,31,32
 412 459 412 459 412 448 c 128,-1,33
 412 437 412 437 400 396 c 1,34,-1
 201 135 l 1,35,-1
 200 126 l 1,36,37
 200 109 200 109 212 101 c 1,38,39
 257 92 257 92 264.5 92 c 128,-1,40
 272 92 272 92 307 101 c 1,41,42
 338 115 338 115 363 162 c 128,-1,43
 388 209 388 209 404 222 c 1,44,45
 427 215 427 215 434 194.5 c 0,46,47
 446 159.357 446 159.357 446 98.6786 c 128,-1,48
 446 38 446 38 410 11 c 1,49,-1
 364 11 l 1,50,-1
 230 9 l 1,51,-1
 193 9 l 1,0,-1
EndSplineSet
Validated: 1
EndChar

StartChar: bar
Encoding: 124 124 95
Width: 255
GlyphClass: 2
Flags: W
VStem: 78 101<36.6572 46 47 600.252>
LayerCount: 2
Fore
SplineSet
179 208 m 1,0,1
 179 119 179 119 196 34 c 1,2,3
 196 16 196 16 164 16 c 128,-1,4
 132 16 132 16 104.5 25.5 c 128,-1,5
 77 35 77 35 77 46 c 1,6,-1
 78 47 l 1,7,-1
 78 88 l 2,8,9
 78 178 78 178 74 331.5 c 128,-1,10
 70 485 70 485 70 696 c 1,11,12
 68 699 68 699 68 704 c 0,13,14
 68 720 68 720 94 720 c 128,-1,15
 120 720 120 720 132 714 c 0,16,17
 163 698 163 698 172.5 627.5 c 128,-1,18
 182 557 182 557 182 448 c 2,19,-1
 182 402 l 1,20,-1
 179 208 l 1,0,1
EndSplineSet
Validated: 1
EndChar

StartChar: braceright
Encoding: 125 125 96
Width: 256
GlyphClass: 2
Flags: W
HStem: -6 49.5<78.375 131.808> 699 47<51.6572 107.843>
VStem: 71 56<230.524 331.162 415.32 462> 128 55<578.395 699.514> 141 56<52.4387 154.414>
LayerCount: 2
Fore
SplineSet
95 705 m 1,0,-1
 64 699 l 1,1,2
 57 699 57 699 49.5 706.5 c 128,-1,3
 42 714 42 714 51 723 c 0,4,5
 72 746 72 746 97 746 c 128,-1,6
 122 746 122 746 141 732 c 1,7,8
 183 697 183 697 183 645.5 c 128,-1,9
 183 594 183 594 161 558 c 1,10,-1
 148.5 539.5 l 2,11,12
 125 504.809 125 504.809 125 481 c 0,13,14
 125 440.636 125 440.636 150 414.5 c 0,15,16
 166.923 396.808 166.923 396.808 189.462 379.904 c 128,-1,17
 212 363 212 363 219 357 c 1,18,19
 207 353 207 353 190 348.5 c 128,-1,20
 173 344 173 344 168 342 c 2,21,-1
 154.5 336.5 l 2,22,23
 146 333 146 333 143 327.5 c 0,24,25
 135.5 313.75 135.5 313.75 131.25 298.375 c 128,-1,26
 127 283 127 283 127 279 c 0,27,28
 127 261 127 261 148 232 c 128,-1,29
 169 203 169 203 171 198 c 0,30,31
 197 146 197 146 197 107 c 128,-1,32
 197 68 197 68 166.5 31 c 128,-1,33
 136 -6 136 -6 102 -6 c 0,34,35
 90 -6 90 -6 78 0 c 0,36,37
 59 9 59 9 69 30 c 0,38,39
 74 42 74 42 100 43.5 c 128,-1,40
 126 45 126 45 132 57 c 0,41,42
 141 76 141 76 141 97 c 128,-1,43
 141 118 141 118 113.5 163.5 c 0,44,45
 71 233.818 71 233.818 71 278 c 0,46,47
 71 331 71 331 141 363 c 1,48,49
 68 391 68 391 68 451 c 1,50,-1
 69 462 l 2,51,52
 74 510 74 510 101 568 c 128,-1,53
 128 626 128 626 128 649.5 c 128,-1,54
 128 673 128 673 108 699 c 0,55,56
 103 705 103 705 95 705 c 1,0,-1
EndSplineSet
Validated: 1
EndChar

StartChar: asciitilde
Encoding: 126 126 97
Width: 346
GlyphClass: 2
Flags: W
HStem: 294 66<173.439 259.858> 344 60<81.3752 164.402>
VStem: 16 314<344.835 359.999>
LayerCount: 2
Fore
SplineSet
122 404 m 2,0,1
 138.857 404 138.857 404 156.929 392.5 c 128,-1,2
 175 381 175 381 181 378.5 c 128,-1,3
 187 376 187 376 202 368 c 128,-1,4
 217 360 217 360 226 360 c 2,5,-1
 231 360 l 1,6,7
 244 361 244 361 258.5 380.5 c 128,-1,8
 273 400 273 400 287 400 c 0,9,10
 327 398 327 398 330 368 c 1,11,-1
 330 367 l 2,12,13
 330 356.5 330 356.5 318.5 350.75 c 128,-1,14
 307 345 307 345 302 341 c 128,-1,15
 297 337 297 337 284.5 325.5 c 128,-1,16
 272 314 272 314 265.5 309 c 0,17,18
 246 294 246 294 222 294 c 2,19,-1
 218 294 l 2,20,21
 197 294 197 294 168 319 c 128,-1,22
 139 344 139 344 117 344 c 2,23,-1
 115 344 l 1,24,25
 101 343 101 343 84.5 325.5 c 128,-1,26
 68 308 68 308 56 308 c 2,27,-1
 51 308 l 1,28,29
 36 310 36 310 26 321 c 128,-1,30
 16 332 16 332 16 343 c 128,-1,31
 16 354 16 354 20 360 c 128,-1,32
 24 366 24 366 27 368.5 c 0,33,34
 36 376 36 376 52 384 c 1,35,36
 86 404 86 404 113 404 c 2,37,-1
 122 404 l 2,0,1
EndSplineSet
Validated: 1
EndChar

StartChar: uni007F
Encoding: 127 127 98
Width: 1597
GlyphClass: 2
Flags: W
HStem: 13 48<248.809 514.161 1068.95 1328.6> 196 48<210.802 299.365> 323 85<496 543.654> 341 54<411.705 459.309> 367 63<243.765 318.231> 517 90<380.062 581.015> 570 54<1222.57 1363.13> 725 68<394.328 565.562> 755 39<1159.78 1385.33>
VStem: 24 51<196.288 456.42> 319 61<428.823 484.848> 324 81<245.905 329.14> 722 89<293.522 457.133> 953 68<231.188 488.84> 1133.5 57.5<194.533 479.01> 1157.5 24<650.746 711.843> 1507 69<353.947 627.973>
LayerCount: 2
Fore
SplineSet
1141 498 m 2,0,-1
 1142 521 l 1,1,2
 1142 551 1142 551 1135.5 562 c 128,-1,3
 1129 573 1129 573 1118.5 573 c 128,-1,4
 1108 573 1108 573 1103 571 c 128,-1,5
 1098 569 1098 569 1092 564.5 c 128,-1,6
 1086 560 1086 560 1082 558 c 128,-1,7
 1078 556 1078 556 1067 552 c 0,8,9
 1046 546 1046 546 1044 533 c 0,10,11
 1034 465 1034 465 1029 380 c 0,12,13
 1024 285 1024 285 1021 261 c 1,14,-1
 1021 258 l 2,15,16
 1021 248 1021 248 1027.5 241.5 c 128,-1,17
 1034 235 1034 235 1051.5 227.5 c 128,-1,18
 1069 220 1069 220 1073 218 c 128,-1,19
 1077 216 1077 216 1087 209.5 c 128,-1,20
 1097 203 1097 203 1105 198.5 c 128,-1,21
 1113 194 1113 194 1118 194 c 128,-1,22
 1123 194 1123 194 1126 201.5 c 128,-1,23
 1129 209 1129 209 1130.5 226 c 128,-1,24
 1132 243 1132 243 1132.5 259.5 c 128,-1,25
 1133 276 1133 276 1133.5 305 c 128,-1,26
 1134 334 1134 334 1137 400.5 c 128,-1,27
 1140 467 1140 467 1141 498 c 2,0,-1
318 543 m 1,28,-1
 317 568 l 1,29,30
 317 595 317 595 326.5 601 c 128,-1,31
 336 607 336 607 376 607 c 2,32,-1
 424 606 l 1,33,-1
 489 602 l 1,34,35
 530 602 530 602 544 607 c 128,-1,36
 558 612 558 612 572 621 c 2,37,-1
 592 633 l 2,38,39
 595 635 595 635 596.5 632.5 c 128,-1,40
 598 630 598 630 600 625 c 128,-1,41
 602 620 602 620 603.5 618 c 128,-1,42
 605 616 605 616 608 614 c 0,43,44
 610 611 610 611 612 609 c 0,45,46
 621 596 621 596 606 592 c 0,47,48
 593 589 593 589 593 579 c 0,49,50
 593 570 593 570 611 560 c 0,51,52
 629.481 549.865 629.481 549.865 629.481 539.02 c 0,53,54
 629.481 531.673 629.481 531.673 621 524 c 0,55,56
 617 521 617 521 616 520 c 0,57,58
 597 501 597 501 581.5 501 c 128,-1,59
 566 501 566 501 547 509 c 128,-1,60
 528 517 528 517 477 517 c 128,-1,61
 426 517 426 517 387 502 c 0,62,63
 380 499 380 499 380 493.5 c 128,-1,64
 380 488 380 488 384 476.5 c 128,-1,65
 388 465 388 465 389 459 c 0,66,67
 391 416 391 416 394.5 405.5 c 128,-1,68
 398 395 398 395 412 395 c 1,69,-1
 478 405 l 1,70,-1
 496 404 l 1,71,-1
 548 408 l 1,72,73
 563 408 563 408 572 402 c 0,74,75
 583 394 583 394 583 386 c 128,-1,76
 583 378 583 378 578 374.5 c 128,-1,77
 573 371 573 371 565.5 367.5 c 128,-1,78
 558 364 558 364 554 360 c 128,-1,79
 550 356 550 356 544 346 c 0,80,81
 533 323 533 323 513 323 c 1,82,-1
 432 341 l 1,83,84
 418 341 418 341 411.5 329.5 c 128,-1,85
 405 318 405 318 405 303 c 2,86,-1
 405 285 l 1,87,-1
 400 224 l 1,88,89
 400 200 400 200 404.5 188.5 c 128,-1,90
 409 177 409 177 409 174.5 c 128,-1,91
 409 172 409 172 405 168.5 c 128,-1,92
 401 165 401 165 394 161 c 128,-1,93
 387 157 387 157 384 154 c 2,94,-1
 374 144 l 2,95,96
 362 132 362 132 353 132 c 2,97,-1
 351 132 l 2,98,99
 338 132 338 132 328.5 144 c 128,-1,100
 319 156 319 156 313.5 160.5 c 128,-1,101
 308 165 308 165 298 176 c 0,102,103
 278 196 278 196 262.5 196 c 128,-1,104
 247 196 247 196 226 184 c 0,105,106
 199 167 199 167 194 159 c 0,107,108
 192 156 192 156 190 146 c 0,109,110
 188 137 188 137 182.5 136 c 128,-1,111
 177 135 177 135 173 143 c 128,-1,112
 169 151 169 151 167 152 c 128,-1,113
 165 153 165 153 160 154 c 128,-1,114
 155 155 155 155 152.5 156.5 c 128,-1,115
 150 158 150 158 151 161 c 0,116,117
 169 226 169 226 242 240 c 0,118,119
 263 244 263 244 277 244 c 2,120,-1
 283 244 l 2,121,122
 325 244 325 244 325 271 c 1,123,-1
 324 296 l 1,124,-1
 324 319 l 2,125,126
 324 357 324 357 296 366 c 0,127,128
 293 367 293 367 283.5 367 c 128,-1,129
 274 367 274 367 252 360 c 2,130,-1
 230 354 l 1,131,132
 218 354 218 354 218 369 c 0,133,134
 218 371 218 371 223.5 377.5 c 128,-1,135
 229 384 229 384 238.5 399.5 c 128,-1,136
 248 415 248 415 256.5 422 c 128,-1,137
 265 429 265 429 277 430 c 128,-1,138
 289 431 289 431 296 429 c 128,-1,139
 303 427 303 427 305 430 c 1,140,141
 319 441 319 441 319 461 c 1,142,-1
 315 505 l 1,143,-1
 318 543 l 1,28,-1
200 101.5 m 128,-1,145
 216 96 216 96 240 86 c 0,146,147
 297 63 297 63 372.5 63 c 128,-1,148
 448 63 448 63 494 76.5 c 128,-1,149
 540 90 540 90 573 114.5 c 128,-1,150
 606 139 606 139 623 157 c 128,-1,151
 640 175 640 175 659 200 c 128,-1,152
 678 225 678 225 688 240 c 128,-1,153
 698 255 698 255 710 287.5 c 128,-1,154
 722 320 722 320 722 345.5 c 128,-1,155
 722 371 722 371 719 386.5 c 128,-1,156
 716 402 716 402 708.5 427.5 c 128,-1,157
 701 453 701 453 698 464 c 128,-1,158
 695 475 695 475 688 507 c 128,-1,159
 681 539 681 539 678 550 c 0,160,161
 666 590 666 590 642.5 625.5 c 128,-1,162
 619 661 619 661 599.5 680 c 128,-1,163
 580 699 580 699 546.5 712 c 128,-1,164
 513 725 513 725 483 725 c 128,-1,165
 453 725 453 725 413 714 c 0,166,167
 337 693 337 693 282 649 c 1,168,-1
 218 596 l 2,169,170
 186 569 186 569 168 551 c 128,-1,171
 150 533 150 533 124 501 c 0,172,173
 75 439 75 439 75 353 c 0,174,175
 75 290 75 290 84 246.5 c 128,-1,176
 93 203 93 203 101.5 187.5 c 128,-1,177
 110 172 110 172 122 156 c 128,-1,178
 134 140 134 140 141.5 132.5 c 128,-1,179
 149 125 149 125 160 119 c 128,-1,180
 171 113 171 113 177.5 110 c 128,-1,144
 184 107 184 107 200 101.5 c 128,-1,145
1117 721 m 0,181,182
 1082 705 1082 705 1027 672 c 0,183,184
 969 637 969 637 936 597 c 2,185,-1
 878 527 l 1,186,187
 845 486 845 486 835 461 c 0,188,189
 811 402 811 402 811 360 c 128,-1,190
 811 318 811 318 844 261 c 0,191,192
 876 205 876 205 904.5 175.5 c 128,-1,193
 933 146 933 146 964.5 127 c 128,-1,194
 996 108 996 108 1011 101.5 c 128,-1,195
 1026 95 1026 95 1044 90 c 128,-1,196
 1062 85 1062 85 1072 82.5 c 128,-1,197
 1082 80 1082 80 1107 76 c 128,-1,198
 1132 72 1132 72 1161.5 66.5 c 128,-1,199
 1191 61 1191 61 1211 61 c 0,200,201
 1363 61 1363 61 1424 168 c 0,202,203
 1450 212 1450 212 1464.5 244.5 c 128,-1,204
 1479 277 1479 277 1493 348.5 c 128,-1,205
 1507 420 1507 420 1507 510.5 c 128,-1,206
 1507 601 1507 601 1466 672 c 0,207,208
 1452 697 1452 697 1433.5 711 c 128,-1,209
 1415 725 1415 725 1374 740 c 128,-1,210
 1333 755 1333 755 1293.5 755 c 128,-1,211
 1254 755 1254 755 1201 745 c 128,-1,212
 1148 735 1148 735 1117 721 c 0,181,182
447 10 m 1,213,-1
 365 9 l 1,214,215
 262 9 262 9 158 45 c 0,216,217
 103 64 103 64 72 108 c 0,218,219
 65 118 65 118 60 130 c 2,220,-1
 51 148 l 2,221,222
 48 154 48 154 44 170 c 2,223,-1
 40 190 l 2,224,225
 39 195 39 195 35.5 215.5 c 128,-1,226
 32 236 32 236 28 258.5 c 128,-1,227
 24 281 24 281 24 315 c 0,228,229
 24 474 24 474 120 583 c 0,230,231
 158 626 158 626 191 652 c 0,232,233
 225 678 225 678 282 714 c 0,234,235
 407 793 407 793 506 793 c 2,236,-1
 527 793 l 2,237,238
 609 793 609 793 652 765 c 0,239,240
 686 743 686 743 703 706 c 0,241,242
 711 689 711 689 719 670 c 0,243,244
 733 637 733 637 738 627 c 0,245,246
 749 601 749 601 758 569 c 0,247,248
 771 522 771 522 776 502 c 0,249,250
 782 474 782 474 783 474 c 2,251,-1
 818 530 l 2,252,253
 884 635 884 635 941 679 c 0,254,255
 998 722 998 722 1078.5 753.5 c 128,-1,256
 1159 785 1159 785 1215.5 789.5 c 128,-1,257
 1272 794 1272 794 1290 794 c 0,258,259
 1437 794 1437 794 1506 708 c 1,260,261
 1532 678 1532 678 1544.5 651.5 c 128,-1,262
 1557 625 1557 625 1566.5 579 c 128,-1,263
 1576 533 1576 533 1576 502 c 128,-1,264
 1576 471 1576 471 1572 446 c 0,265,266
 1568 414 1568 414 1553 351 c 2,267,-1
 1540 294 l 2,268,269
 1531 255 1531 255 1519 233 c 2,270,-1
 1506 209 l 2,271,272
 1502 200 1502 200 1490 184 c 2,273,-1
 1472 162 l 2,274,275
 1468 156 1468 156 1452 137 c 2,276,-1
 1430 112 l 2,277,278
 1385 59 1385 59 1342 40 c 0,279,280
 1280 13 1280 13 1109 13 c 0,281,282
 980 13 980 13 902 60 c 0,283,284
 864 83 864 83 851 94 c 0,285,286
 833 108 833 108 818 123 c 128,-1,287
 803 138 803 138 774 256 c 0,288,289
 765 292 765 292 759 292 c 0,290,291
 757 292 757 292 751 279 c 2,292,-1
 738 250 l 2,293,294
 731 235 731 235 728 231 c 2,295,-1
 634 108 l 2,296,297
 608 74 608 74 596 62 c 0,298,299
 580 46 580 46 546 28 c 128,-1,300
 512 10 512 10 473 10 c 2,301,-1
 447 10 l 1,213,-1
1269 625 m 1,302,-1
 1323 621 l 1,303,304
 1348 621 1348 621 1360.5 630 c 128,-1,305
 1373 639 1373 639 1379.5 641.5 c 128,-1,306
 1386 644 1386 644 1398.5 651 c 128,-1,307
 1411 658 1411 658 1417 658 c 0,308,309
 1436 658 1436 658 1436 640 c 0,310,311
 1436 624 1436 624 1422 617 c 0,312,313
 1407 610 1407 610 1407 596.5 c 128,-1,314
 1407 583 1407 583 1429 563 c 128,-1,315
 1451 543 1451 543 1451 529.5 c 128,-1,316
 1451 516 1451 516 1439.5 504.5 c 128,-1,317
 1428 493 1428 493 1419 493 c 128,-1,318
 1410 493 1410 493 1405.5 498.5 c 128,-1,319
 1401 504 1401 504 1389 513 c 128,-1,320
 1377 522 1377 522 1370 535.5 c 128,-1,321
 1363 549 1363 549 1358 555 c 0,322,323
 1347 570 1347 570 1284.5 570 c 128,-1,324
 1222 570 1222 570 1216 532 c 1,325,326
 1191 404 1191 404 1191 252 c 0,327,328
 1191 175 1191 175 1196 171 c 0,329,330
 1198 170 1198 170 1203 170 c 2,331,-1
 1238 176 l 1,332,-1
 1241 176 l 1,333,-1
 1272 180 l 1,334,335
 1296 180 1296 180 1296 172 c 0,336,337
 1296 167 1296 167 1277 158 c 0,338,339
 1258 150 1258 150 1252.5 147 c 128,-1,340
 1247 144 1247 144 1229.5 142.5 c 128,-1,341
 1212 141 1212 141 1202 135 c 128,-1,342
 1192 129 1192 129 1181 116.5 c 128,-1,343
 1170 104 1170 104 1162.5 94.5 c 128,-1,344
 1155 85 1155 85 1151.5 85 c 128,-1,345
 1148 85 1148 85 1146 88 c 0,346,347
 1133 104 1133 104 1118 114 c 2,348,-1
 1083 138 l 2,349,350
 1069 147 1069 147 1045.5 160.5 c 128,-1,351
 1022 174 1022 174 1011.5 182.5 c 128,-1,352
 1001 191 1001 191 985 198 c 128,-1,353
 969 205 969 205 961 212 c 128,-1,354
 953 219 953 219 953 231 c 0,355,356
 953 295 953 295 955 323.5 c 128,-1,357
 957 352 957 352 958 378 c 0,358,359
 958 423 958 423 966 457 c 128,-1,360
 974 491 974 491 982 505 c 128,-1,361
 990 519 990 519 997.5 526.5 c 128,-1,362
 1005 534 1005 534 1021 548.5 c 128,-1,363
 1037 563 1037 563 1048 574 c 0,364,365
 1060 586 1060 586 1092.5 604.5 c 128,-1,366
 1125 623 1125 623 1137 637.5 c 128,-1,367
 1149 652 1149 652 1152 671.5 c 128,-1,368
 1155 691 1155 691 1157.5 704 c 128,-1,369
 1160 717 1160 717 1167.5 717 c 128,-1,370
 1175 717 1175 717 1178 712 c 128,-1,371
 1181 707 1181 707 1181.5 697.5 c 128,-1,372
 1182 688 1182 688 1184 683.5 c 128,-1,373
 1186 679 1186 679 1187 663 c 0,374,375
 1189 624 1189 624 1242 624 c 1,376,-1
 1269 625 l 1,302,-1
EndSplineSet
Validated: 1
EndChar

StartChar: cent
Encoding: 162 162 101
Width: 314
GlyphClass: 2
Flags: W
HStem: 221 44<199 236.562> 222 56<118.885 140>
VStem: 29 68<297.906 473.126> 133 80<281.09 493 551.775 667.019> 140 59<278 491.233> 146 39<117.5 212.576> 249 37<279.301 318.328>
LayerCount: 2
Fore
SplineSet
133 493 m 1,0,1
 120 481 120 481 108.5 448.5 c 128,-1,2
 97 416 97 416 97 389 c 128,-1,3
 97 362 97 362 101.5 342 c 128,-1,4
 106 322 106 322 112 310.5 c 128,-1,5
 118 299 118 299 124.5 291 c 0,6,7
 135.062 278 135.062 278 140 278 c 1,8,-1
 140 304 l 1,9,10
 139 340 139 340 136.5 401 c 128,-1,11
 134 462 134 462 133 493 c 1,0,1
140 222 m 1,12,13
 89.5263 229.211 89.5263 229.211 59.2632 274.605 c 128,-1,14
 29 320 29 320 29 377 c 0,15,16
 29 409.684 29 409.684 41.5 447.842 c 0,17,18
 67.2527 526.456 67.2527 526.456 132 550 c 1,19,20
 132 607 132 607 133 640 c 1,21,22
 153 674 153 674 174 674 c 128,-1,23
 195 674 195 674 213 650 c 1,24,25
 214 614 214 614 214 557 c 1,26,27
 242 554 242 554 264 531.5 c 128,-1,28
 286 509 286 509 286 484 c 128,-1,29
 286 459 286 459 264 459 c 2,30,-1
 261 459 l 2,31,32
 251.714 459 251.714 459 243.857 470 c 128,-1,33
 236 481 236 481 232 484 c 0,34,35
 228 486 228 486 225 489 c 128,-1,36
 222 492 222 492 218.5 495 c 128,-1,37
 215 498 215 498 213 500 c 1,38,39
 209 359 209 359 199 265 c 1,40,41
 233 265 233 265 249 312 c 0,42,43
 254 324 254 324 263.5 324 c 128,-1,44
 273 324 273 324 279.5 318.5 c 128,-1,45
 286 313 286 313 286 305 c 2,46,-1
 286 304 l 1,47,48
 284 267 284 267 281.5 262.5 c 128,-1,49
 279 258 279 258 271 247 c 128,-1,50
 263 236 263 236 242 228.5 c 128,-1,51
 221 221 221 221 205 221 c 2,52,-1
 193 221 l 1,53,-1
 185 140 l 1,54,55
 170 116 170 116 160.5 116 c 128,-1,56
 151 116 151 116 146 121 c 1,57,58
 140 182 140 182 140 222 c 1,12,13
EndSplineSet
Validated: 1
EndChar

StartChar: sterling
Encoding: 163 163 102
Width: 708
GlyphClass: 2
Flags: W
HStem: 38 71<36.3826 140.58> 38 35<394.379 501.281> 321 126<87.9183 197> 324 136<328 460.338> 632 107<269.5 405.236>
VStem: 197 131<245.58 321> 207 119<460 603.61> 552 99<145.892 223.888 225.108 268.656> 558 112<102.859 223.888>
LayerCount: 2
Fore
SplineSet
328 460 m 1,0,-1
 345 461 l 2,1,2
 353 461 353 461 366.5 459.5 c 128,-1,3
 380 458 380 458 399 457 c 128,-1,4
 418 456 418 456 427 455 c 0,5,6
 453.6 452.044 453.6 452.044 470 432 c 1,7,8
 490 410 490 410 490 390.5 c 0,9,10
 490 352.815 490 352.815 435 335.5 c 0,11,12
 408 327 408 327 388.5 326 c 128,-1,13
 369 325 369 325 328 324 c 1,14,15
 328 298 328 298 300 231 c 128,-1,16
 272 164 272 164 268 95 c 1,17,18
 358 73 358 73 414 73 c 128,-1,19
 470 73 470 73 558 112 c 1,20,-1
 558 120 l 2,21,22
 558 144 558 144 552 174.5 c 128,-1,23
 546 205 546 205 546 224.5 c 128,-1,24
 546 244 546 244 551 256 c 128,-1,25
 556 268 556 268 562 270.5 c 128,-1,26
 568 273 568 273 579 273 c 2,27,-1
 637 268 l 2,28,29
 646 268 646 268 651 269 c 1,30,31
 670 173 670 173 670 145 c 128,-1,32
 670 117 670 117 660 24 c 1,33,34
 624 38 624 38 600 38 c 0,35,36
 520 38 520 38 428 30 c 128,-1,37
 336 22 336 22 269 22 c 128,-1,38
 202 22 202 22 41 38 c 1,39,40
 26 54 26 54 26 62 c 128,-1,41
 26 70 26 70 49 109 c 1,42,-1
 70 110 l 1,43,-1
 105 108 l 2,44,45
 116 108 116 108 134.522 124.036 c 128,-1,46
 153.045 140.072 153.045 140.072 167 162.5 c 128,-1,47
 181 185 181 185 187 218 c 0,48,49
 193.8 255.4 193.8 255.4 197 321 c 1,50,51
 138 321 138 321 96.5 339 c 128,-1,52
 55 357 55 357 55 383 c 128,-1,53
 55 409 55 409 74 423 c 0,54,55
 106 447 106 447 175 447 c 2,56,-1
 201 447 l 1,57,-1
 207 526 l 1,58,59
 207 560 207 560 198 581 c 128,-1,60
 189 602 189 602 178.5 609 c 0,61,62
 150 628 150 628 150 652 c 0,63,64
 150 698 150 698 195.5 718.5 c 128,-1,65
 241 739 241 739 298 739 c 0,66,67
 395 739 395 739 467.5 677 c 128,-1,68
 540 615 540 615 540 565 c 0,69,70
 540 551 540 551 530 551 c 1,71,72
 483.2 560.36 483.2 560.36 454.6 581.68 c 128,-1,73
 426 603 426 603 411.5 617.5 c 128,-1,74
 397 632 397 632 378.5 632 c 128,-1,75
 360 632 360 632 348 623.5 c 128,-1,76
 336 615 336 615 332.5 607.5 c 128,-1,77
 329 600 329 600 326 586 c 1,78,79
 328 484 328 484 328 460 c 1,0,-1
EndSplineSet
Validated: 1
EndChar

StartChar: currency
Encoding: 164 164 103
Width: 314
GlyphClass: 2
Flags: W
HStem: 227 33<26.1406 80.75 265.095 282.936> 227 16<213.095 231.676> 250 30<140.917 197.649> 425 28<147.344 197.676> 446 33<26.1318 67.532> 455.5 23.5<114.064 127.68 265.189 283> 463.5 15.5<212.126 231.676>
VStem: 26 105<227.094 251.938 454.093 478.906> 81 42<292.69 408.938> 219 33<293.095 397.765>
LayerCount: 2
Fore
SplineSet
121 352 m 1,0,-1
 123 332 l 2,1,2
 123 327 123 327 131 310.5 c 128,-1,3
 139 294 139 294 142 291 c 0,4,5
 153 280 153 280 170 280 c 128,-1,6
 187 280 187 280 192 282.5 c 128,-1,7
 197 285 197 285 202.5 293 c 0,8,9
 219 317 219 317 219 347.5 c 128,-1,10
 219 378 219 378 213 390 c 0,11,12
 193 425 193 425 173 425 c 2,13,-1
 170 425 l 2,14,15
 158 425 158 425 147 418 c 0,16,17
 142 414 142 414 131.5 392.5 c 128,-1,18
 121 371 121 371 121 352 c 1,0,-1
232 248 m 1,19,-1
 218 264 l 1,20,21
 201 250 201 250 166 250 c 0,22,23
 159 250 159 250 142.5 254.5 c 128,-1,24
 126 259 126 259 119 266 c 1,25,26
 113 254 113 254 114.5 252 c 128,-1,27
 116 250 116 250 123.5 251 c 128,-1,28
 131 252 131 252 131 248 c 128,-1,29
 131 244 131 244 129 240.5 c 128,-1,30
 127 237 127 237 122.5 233.5 c 128,-1,31
 118 230 118 230 116 227 c 1,32,-1
 68 225 l 2,33,34
 53 225 53 225 41 227 c 1,35,36
 39 229 39 229 35 232 c 0,37,38
 26 238.75 26 238.75 26 245 c 0,39,40
 26 254 26 254 41 260 c 0,41,42
 45 262 45 262 55.5 258.5 c 128,-1,43
 66 255 66 255 68 260 c 1,44,-1
 94 292 l 1,45,46
 81 314 81 314 81 345 c 128,-1,47
 81 376 81 376 98 410 c 1,48,-1
 68 446 l 1,49,50
 66 451 66 451 55.5 447.5 c 128,-1,51
 45 444 45 444 41 446 c 0,52,53
 26 452 26 452 26 461 c 0,54,55
 26 467.25 26 467.25 32.5 472.125 c 128,-1,56
 39 477 39 477 41 479 c 1,57,58
 53 481 53 481 68 481 c 2,59,-1
 116 479 l 1,60,61
 118 476 118 476 122.5 472.5 c 0,62,63
 131 465.889 131 465.889 131 458 c 1,64,65
 130 454 130 454 123 455.5 c 128,-1,66
 116 457 116 457 114 454 c 1,67,68
 113 449 113 449 113 448.5 c 128,-1,69
 113 448 113 448 121 436 c 1,70,71
 143 453 143 453 172.5 453 c 128,-1,72
 202 453 202 453 217 441 c 1,73,-1
 232 459 l 1,74,75
 231 463 231 463 223.5 463.5 c 128,-1,76
 216 464 216 464 212 469 c 128,-1,77
 208 474 208 474 220 479 c 1,78,79
 234 479 234 479 245 480 c 2,80,-1
 256 481 l 2,81,82
 260 481 260 481 286 472 c 1,83,84
 289.667 466.5 289.667 466.5 284 458 c 1,85,-1
 283 454 l 1,86,87
 271 457 271 457 265 454 c 1,88,89
 256 445 256 445 235 421 c 1,90,91
 252 399 252 399 252 354 c 128,-1,92
 252 309 252 309 236 284 c 1,93,-1
 265 252 l 1,94,95
 268 251 268 251 274.5 253 c 128,-1,96
 281 255 281 255 283 252 c 0,97,98
 292 243 292 243 286 234 c 1,99,100
 260 225 260 225 256 225 c 2,101,-1
 245 226 l 2,102,103
 234 227 234 227 220 227 c 1,104,105
 210 233 210 233 213 237.5 c 128,-1,106
 216 242 216 242 223.5 243 c 128,-1,107
 231 244 231 244 232 248 c 1,19,-1
EndSplineSet
Validated: 1
EndChar

StartChar: yen
Encoding: 165 165 104
Width: 759
GlyphClass: 2
Flags: W
HStem: 4 69<194.728 271> 17 49<184.125 229.4 471.123 500.847> 90 94<210.73 294> 92 102<409.086 536.845> 234 94<206.222 281> 237.5 99.5<449.08 538.791> 628.5 71.5<466.81 537 662.867 725.716> 642 58<242.19 328.201>
LayerCount: 2
Fore
SplineSet
305 638 m 1,0,-1
 264 642 l 1,1,2
 248 642 248 642 242 631 c 1,3,4
 267 565 267 565 307 480 c 128,-1,5
 347 395 347 395 367 332 c 1,6,-1
 376 333 l 1,7,-1
 549 614 l 1,8,9
 537 619 537 619 516.5 621 c 128,-1,10
 496 623 496 623 482.5 628.5 c 0,11,12
 462 636.852 462 636.852 462 659.426 c 128,-1,13
 462 682 462 682 489 700 c 1,14,-1
 537 703.5 l 2,15,16
 558 705 558 705 566 706 c 0,17,18
 582 708 582 708 589.5 708 c 128,-1,19
 597 708 597 708 606.5 707.5 c 128,-1,20
 616 707 616 707 648.5 704.5 c 128,-1,21
 681 702 681 702 720 700 c 1,22,23
 735 687 735 687 735 672.5 c 128,-1,24
 735 658 735 658 726 646 c 128,-1,25
 717 634 717 634 697 634 c 1,26,-1
 647 639 l 1,27,28
 629 639 629 639 617 631 c 1,29,-1
 503.5 423.5 l 1,30,31
 478 379 478 379 449 337 c 1,32,-1
 454 337 l 2,33,34
 471 337 471 337 480 335.5 c 128,-1,35
 489 334 489 334 499 332.5 c 128,-1,36
 509 331 509 331 513.5 329 c 2,37,-1
 524.5 324 l 2,38,39
 531 321 531 321 536 317 c 0,40,41
 555 301 555 301 555 287 c 128,-1,42
 555 273 555 273 547 265.5 c 128,-1,43
 539 258 539 258 533.5 254.5 c 128,-1,44
 528 251 528 251 520.5 248.5 c 128,-1,45
 513 246 513 246 508 244 c 128,-1,46
 503 242 503 242 493.5 240.5 c 128,-1,47
 484 239 484 239 479 238.5 c 128,-1,48
 474 238 474 238 462 237.5 c 128,-1,49
 450 237 450 237 446 236.5 c 128,-1,50
 442 236 442 236 428 236 c 2,51,-1
 410 236 l 1,52,53
 408 219 408 219 406 193 c 1,54,55
 414 194 414 194 446 194 c 128,-1,56
 478 194 478 194 507.5 184.5 c 128,-1,57
 537 175 537 175 546 164 c 128,-1,58
 555 153 555 153 555 141 c 128,-1,59
 555 129 555 129 547 121.5 c 0,60,61
 534.323 109.615 534.323 109.615 520 104.5 c 2,62,-1
 507.5 100 l 2,63,64
 493.329 94.8471 493.329 94.8471 471.165 93.9235 c 128,-1,65
 449 93 449 93 445 92.5 c 128,-1,66
 441 92 441 92 427 92 c 2,67,-1
 409 92 l 1,68,69
 413 61 413 61 416 59 c 128,-1,70
 419 57 419 57 425 57 c 1,71,-1
 472 66 l 1,72,73
 486 66 486 66 494.5 54.5 c 128,-1,74
 503 43 503 43 503 34 c 128,-1,75
 503 25 503 25 498 17 c 1,76,77
 367 4 367 4 339 4 c 128,-1,78
 311 4 311 4 191 14 c 1,79,80
 183 24 183 24 183 36 c 128,-1,81
 183 48 183 48 194 60.5 c 128,-1,82
 205 73 205 73 221 73 c 1,83,-1
 271 65 l 1,84,85
 285 65 285 65 293 74 c 1,86,-1
 294 90 l 1,87,88
 254 91 254 91 220.5 105 c 128,-1,89
 187 119 187 119 187 138 c 0,90,91
 187 153 187 153 210 168.5 c 128,-1,92
 233 184 233 184 301 184 c 1,93,-1
 302 234 l 1,94,95
 252 234 252 234 219.5 249 c 128,-1,96
 187 264 187 264 187 283 c 128,-1,97
 187 302 187 302 214 315 c 128,-1,98
 241 328 241 328 281 328 c 1,99,100
 251 385 251 385 189.5 470.5 c 128,-1,101
 128 556 128 556 94 614 c 1,102,103
 88 617 88 617 82 617 c 1,104,-1
 46 609 l 1,105,106
 35 609 35 609 24.5 624.5 c 128,-1,107
 14 640 14 640 14 658 c 128,-1,108
 14 676 14 676 26 691 c 1,109,110
 129 699 129 699 148 699 c 2,111,-1
 204 697 l 2,112,113
 230 697 230 697 310 700 c 1,114,115
 331 684 331 684 331 664 c 0,116,117
 331 638 331 638 305 638 c 1,0,-1
EndSplineSet
Validated: 1
EndChar

StartChar: brokenbar
Encoding: 166 166 105
Width: 255
GlyphClass: 2
Flags: W
HStem: 16 291<80.5574 178.742>
VStem: 75 104<47.0312 306 437.141 682.306> 78 118<26.9935 46 47 202.717>
LayerCount: 2
Fore
SplineSet
104 304 m 2,0,-1
 171 307 l 1,1,-1
 181 307 l 1,2,3
 179 235 179 235 179 204.5 c 0,4,5
 179 147.4 179 147.4 185.5 98 c 2,6,-1
 190 64.5 l 2,7,8
 192 50 192 50 194 42.5 c 128,-1,9
 196 35 196 35 196 34 c 0,10,11
 196 16 196 16 164 16 c 128,-1,12
 132 16 132 16 104.5 25.5 c 128,-1,13
 77 35 77 35 77 46 c 1,14,-1
 78 47 l 1,15,-1
 78 49 l 2,16,17
 78 196 78 196 75 306 c 1,18,19
 84 304 84 304 104 304 c 2,0,-1
182 442 m 1,20,21
 174 441 174 441 158.5 437.5 c 0,22,23
 132.956 431.732 132.956 431.732 72 428 c 1,24,25
 70 556 70 556 70 696 c 1,26,27
 68 699 68 699 68 704 c 0,28,29
 68 720 68 720 95 720 c 128,-1,30
 122 720 122 720 134.5 712 c 128,-1,31
 147 704 147 704 159 677.5 c 0,32,33
 182 626.708 182 626.708 182 442 c 1,20,21
EndSplineSet
Validated: 1
EndChar

StartChar: section
Encoding: 167 167 106
Width: 643
GlyphClass: 2
Flags: W
HStem: -235 71<322.75 392.223> 623 86<296.632 354.747>
VStem: 116 161<262.336 356.691> 215 71<492.007 615.948> 228 58<475.137 605.496> 396 91<-160.691 -24.7139> 466 60<98.9541 175.294>
LayerCount: 2
Fore
SplineSet
352 604 m 128,-1,1
 336 623 336 623 328 623 c 128,-1,2
 320 623 320 623 312 618.5 c 128,-1,3
 304 614 304 614 295 599 c 128,-1,4
 286 584 286 584 286 552.5 c 128,-1,5
 286 521 286 521 299.5 491.5 c 128,-1,6
 313 462 313 462 330 447 c 2,7,-1
 371.5 410.5 l 2,8,9
 396 389 396 389 410 368 c 128,-1,10
 424 347 424 347 449 316.5 c 2,11,-1
 488.5 267.5 l 2,12,13
 503 249 503 249 514.5 218 c 128,-1,14
 526 187 526 187 526 155 c 128,-1,15
 526 123 526 123 513.5 93 c 128,-1,16
 501 63 501 63 491.5 49.5 c 128,-1,17
 482 36 482 36 454 0 c 1,18,19
 487 -59 487 -59 487 -102 c 0,20,21
 487 -140.172 487 -140.172 461.5 -181.5 c 0,22,23
 447 -205 447 -205 414.5 -220 c 128,-1,24
 382 -235 382 -235 342.5 -235 c 128,-1,25
 303 -235 303 -235 279 -226 c 128,-1,26
 255 -217 255 -217 244.5 -203.5 c 0,27,28
 225 -178.429 225 -178.429 225 -161.714 c 128,-1,29
 225 -145 225 -145 241 -128.5 c 128,-1,30
 257 -112 257 -112 278 -112 c 128,-1,31
 299 -112 299 -112 316 -116 c 128,-1,32
 333 -120 333 -120 348.5 -142 c 128,-1,33
 364 -164 364 -164 373 -164 c 128,-1,34
 382 -164 382 -164 389 -158 c 128,-1,35
 396 -152 396 -152 396 -142 c 128,-1,36
 396 -132 396 -132 391 -99 c 1,37,38
 387 -57 387 -57 375 -28 c 128,-1,39
 363 1 363 1 346.5 28.5 c 128,-1,40
 330 56 330 56 315 84 c 128,-1,41
 300 112 300 112 293 121.5 c 2,42,-1
 271.5 149.5 l 2,43,44
 249.01 178.194 249.01 178.194 196 210 c 1,45,46
 116 256 116 256 116 338 c 0,47,48
 116 389.758 116 389.758 155.5 412.5 c 2,49,-1
 188.5 431.5 l 2,50,51
 228 454.242 228 454.242 228 509 c 0,52,53
 228 526 228 526 221.5 558 c 128,-1,54
 215 590 215 590 215 606 c 0,55,56
 215 646 215 646 247.5 677.5 c 128,-1,57
 280 709 280 709 332 709 c 0,58,59
 389.8 709 389.8 709 424 680.5 c 0,60,61
 445 663 445 663 445 636.5 c 128,-1,62
 445 610 445 610 421 597.5 c 128,-1,63
 397 585 397 585 382.5 585 c 128,-1,0
 368 585 368 585 352 604 c 128,-1,1
298 351 m 1,64,65
 292 357 292 357 287 357 c 0,66,67
 277 357 277 357 277 328 c 0,68,69
 277 269 277 269 298 225 c 0,70,71
 307 207 307 207 333.5 192.5 c 128,-1,72
 360 178 360 178 367 168.5 c 128,-1,73
 374 159 374 159 377.5 145 c 128,-1,74
 381 131 381 131 391 123.5 c 128,-1,75
 401 116 401 116 421.5 107 c 128,-1,76
 442 98 442 98 454 98 c 128,-1,77
 466 98 466 98 466 106 c 0,78,79
 466 109 466 109 465 111 c 2,80,-1
 459.5 130 l 2,81,82
 456 142 456 142 454.5 145.5 c 128,-1,83
 453 149 453 149 450.5 157.5 c 128,-1,84
 448 166 448 166 446.5 169 c 128,-1,85
 445 172 445 172 442.5 178 c 0,86,87
 436.429 192.571 436.429 192.571 428.714 200.286 c 128,-1,88
 421 208 421 208 416.5 213 c 2,89,-1
 406 225 l 1,90,91
 363 251 363 251 342.5 276 c 128,-1,92
 322 301 322 301 298 351 c 1,64,65
EndSplineSet
Validated: 1
EndChar

StartChar: dieresis
Encoding: 168 168 107
Width: 365
GlyphClass: 2
Flags: W
HStem: 348 132<92.1084 173.817 242.108 323.817>
VStem: 76.25 115.5<360.547 456.796> 226.25 115.5<360.547 456.796>
LayerCount: 2
Fore
SplineSet
176.75 453 m 128,-1,1
 191.75 426 191.75 426 191.75 404.625 c 128,-1,2
 191.75 383.25 191.75 383.25 174.875 365.625 c 128,-1,3
 158 348 158 348 137.75 348 c 128,-1,4
 117.5 348 117.5 348 108.125 350.25 c 128,-1,5
 98.75 352.5 98.75 352.5 93.875 358.5 c 0,6,7
 76.25 380.192 76.25 380.192 76.25 407.596 c 128,-1,8
 76.25 435 76.25 435 91.625 457.5 c 128,-1,9
 107 480 107 480 134.375 480 c 128,-1,0
 161.75 480 161.75 480 176.75 453 c 128,-1,1
326.75 453 m 128,-1,11
 341.75 426 341.75 426 341.75 404.625 c 128,-1,12
 341.75 383.25 341.75 383.25 324.875 365.625 c 128,-1,13
 308 348 308 348 287.75 348 c 128,-1,14
 267.5 348 267.5 348 258.125 350.25 c 128,-1,15
 248.75 352.5 248.75 352.5 243.875 358.5 c 0,16,17
 226.25 380.192 226.25 380.192 226.25 407.596 c 128,-1,18
 226.25 435 226.25 435 241.625 457.5 c 128,-1,19
 257 480 257 480 284.375 480 c 128,-1,10
 311.75 480 311.75 480 326.75 453 c 128,-1,11
EndSplineSet
Validated: 1
EndChar

StartChar: copyright
Encoding: 169 169 108
Width: 432
GlyphClass: 2
Flags: W
HStem: 4 66<159.659 300.601> 120 34<192.452 260.289> 323 34<195.316 266.938> 411 67<162.656 283.32>
VStem: 13 96<125.263 335.049> 126 48<166.254 307.018> 280 26<160.3 191.388> 341 78<124.916 340.845>
LayerCount: 2
Fore
SplineSet
269.5 353.5 m 128,-1,1
 279 350 279 350 293 336 c 128,-1,2
 307 322 307 322 307 304.5 c 128,-1,3
 307 287 307 287 291 287 c 0,4,5
 283 287 283 287 277 295 c 128,-1,6
 271 303 271 303 268 305 c 2,7,-1
 260 313 l 2,8,9
 250 323 250 323 237 323 c 128,-1,10
 224 323 224 323 217.5 321 c 128,-1,11
 211 319 211 319 206.5 316 c 128,-1,12
 202 313 202 313 198 309 c 128,-1,13
 194 305 194 305 192 301.5 c 128,-1,14
 190 298 190 298 188 294 c 0,15,16
 174 261 174 261 174 241 c 128,-1,17
 174 221 174 221 176.5 208 c 128,-1,18
 179 195 179 195 182.5 187 c 128,-1,19
 186 179 186 179 191 172.5 c 128,-1,20
 196 166 196 166 200 162 c 0,21,22
 206 158 206 158 210 157 c 0,23,24
 222 154 222 154 226 154 c 1,25,26
 236.154 151.231 236.154 151.231 244.284 151.231 c 0,27,28
 253.769 151.231 253.769 151.231 260.5 155 c 0,29,30
 273 162 273 162 280 184 c 0,31,32
 284 195 284 195 295.5 191.5 c 128,-1,33
 307 188 307 188 306 172.5 c 128,-1,34
 305 157 305 157 304.5 153.5 c 128,-1,35
 304 150 304 150 297 141 c 1,36,37
 284 120 284 120 246 120 c 2,38,-1
 215 120 l 2,39,40
 183 120 183 120 154.5 149.5 c 128,-1,41
 126 179 126 179 126 230 c 0,42,43
 126 280 126 280 156 321 c 0,44,45
 167 336 167 336 188 346.5 c 128,-1,46
 209 357 209 357 234.5 357 c 128,-1,0
 260 357 260 357 269.5 353.5 c 128,-1,1
257 4 m 1,47,-1
 225 5 l 1,48,49
 212 4 212 4 192 4 c 0,50,51
 133 4 133 4 84 49 c 0,52,53
 13 115 13 115 13 223 c 0,54,55
 13 260 13 260 26 305.5 c 128,-1,56
 39 351 39 351 55 380 c 128,-1,57
 71 409 71 409 104 434 c 0,58,59
 160 478 160 478 233 478 c 0,60,61
 279 478 279 478 300 470.5 c 128,-1,62
 321 463 321 463 344 440 c 0,63,64
 389 395 389 395 404 354.5 c 128,-1,65
 419 314 419 314 419 228.5 c 128,-1,66
 419 143 419 143 377.5 73.5 c 128,-1,67
 336 4 336 4 257 4 c 1,47,-1
221 70 m 1,68,-1
 251 67 l 1,69,70
 288 67 288 67 304 96 c 0,71,72
 316 116 316 116 322 133 c 0,73,74
 341 187 341 187 341 227 c 0,75,76
 341 321 341 321 298 374 c 0,77,78
 268 411 268 411 223 411 c 0,79,80
 157 411 157 411 132 339 c 1,81,82
 109 279 109 279 109 235 c 0,83,84
 109 100 109 100 192 75 c 0,85,86
 204 71 204 71 219 70 c 1,87,-1
 221 70 l 1,68,-1
EndSplineSet
Validated: 1
EndChar

StartChar: ordfeminine
Encoding: 170 170 109
Width: 280
GlyphClass: 2
Flags: W
HStem: 200 95<42.1882 176.75> 203 102<46.604 233.494> 340 38<193.563 220.84> 533 25<106.507 148.101>
VStem: 30 220<215.152 286.998> 50 42<373.159 430.04> 57 44<473.023 530.464> 160 32<388.318 442.994 465.895 530.776>
LayerCount: 2
Fore
SplineSet
231 389 m 0,0,1
 227.053 349.533 227.053 349.533 221.027 345.767 c 128,-1,2
 215 342 215 342 214 341.5 c 0,3,4
 211 340 211 340 199 340 c 2,5,-1
 191 340 l 2,6,7
 169.111 340 169.111 340 164 351.5 c 0,8,9
 158.75 363.312 158.75 363.312 152 365 c 1,10,-1
 150 365 l 2,11,12
 146 365 146 365 129.5 351 c 128,-1,13
 113 337 113 337 90.5 337 c 128,-1,14
 68 337 68 337 59 354 c 128,-1,15
 50 371 50 371 50 388 c 0,16,17
 50 435 50 435 117 461 c 0,18,19
 121 463 121 463 128 463.5 c 128,-1,20
 135 464 135 464 139.5 464.5 c 0,21,22
 155 466.222 155 466.222 155 495.111 c 128,-1,23
 155 524 155 524 145 531 c 0,24,25
 143 533 143 533 135 533 c 0,26,27
 101 533 101 533 101 499.5 c 2,28,-1
 101 492 l 1,29,30
 99 473 99 473 78 473 c 128,-1,31
 57 473 57 473 57 497 c 0,32,33
 57 558 57 558 142 558 c 0,34,35
 181 558 181 558 189 518 c 0,36,37
 192 504 192 504 192 479 c 2,38,-1
 192 414 l 2,39,40
 192 400 192 400 193 394.5 c 128,-1,41
 194 389 194 389 193.5 386 c 128,-1,42
 193 383 193 383 193.5 382 c 0,43,44
 195.5 378 195.5 378 199.75 378 c 128,-1,45
 204 378 204 378 211.5 388 c 128,-1,46
 219 398 219 398 225 398 c 128,-1,47
 231 398 231 398 231 389 c 0,0,1
140 385.5 m 128,-1,49
 160 398 160 398 160 417.5 c 0,50,51
 160 443 160 443 144 443 c 0,52,53
 131 443 131 443 111.5 429.5 c 128,-1,54
 92 416 92 416 92 404 c 0,55,56
 92 379 92 379 107 373 c 1,57,-1
 108 373 l 2,58,48
 120 373 120 373 140 385.5 c 128,-1,49
155 203 m 1,59,-1
 104 200 l 1,60,61
 75 200 75 200 57 211 c 0,62,63
 30 227.5 30 227.5 30 245.75 c 128,-1,64
 30 264 30 264 40.5 276.5 c 128,-1,65
 51 289 51 289 64 292 c 128,-1,66
 77 295 77 295 97 295 c 0,67,68
 120.75 295 120.75 295 144.5 300 c 2,69,-1
 161.5 303.5 l 2,70,71
 169 305 169 305 177 305 c 0,72,73
 218 305 218 305 234 289 c 128,-1,74
 250 273 250 273 250 256.5 c 128,-1,75
 250 240 250 240 244 231.5 c 128,-1,76
 238 223 238 223 231.5 218 c 128,-1,77
 225 213 225 213 220 210 c 128,-1,78
 215 207 215 207 204.5 205.5 c 0,79,80
 187 203 187 203 172 203 c 2,81,-1
 155 203 l 1,59,-1
EndSplineSet
Validated: 1
EndChar

StartChar: logicalnot
Encoding: 172 172 111
Width: 346
GlyphClass: 2
Flags: W
HStem: 187 127<49.125 201.301> 190 136<56.2676 201.257>
VStem: 200.5 125.5<102.502 189.391> 205 109<102.502 177.107>
LayerCount: 2
Fore
SplineSet
192 190 m 1,0,-1
 123 187 l 1,1,2
 61 187 61 187 33 226 c 0,3,4
 24 239 24 239 24 255 c 0,5,6
 24 272 24 272 39 289 c 128,-1,7
 54 306 54 306 70 310 c 128,-1,8
 86 314 86 314 109 314 c 2,9,-1
 114 314 l 1,10,11
 115 313 115 313 134 314 c 0,12,13
 157 315 157 315 170 320 c 0,14,15
 186 326 186 326 209 326 c 0,16,17
 234 326 234 326 248 324 c 2,18,-1
 260 322 l 2,19,20
 264 321 264 321 269 320 c 0,21,22
 276 319 276 319 284 315 c 0,23,24
 298 307 298 307 303 298 c 0,25,26
 326 257 326 257 326 225 c 0,27,28
 326 208 326 208 320.5 171.5 c 128,-1,29
 315 135 315 135 314 118 c 0,30,31
 312 86 312 86 261 86 c 0,32,33
 231 86 231 86 220 102 c 128,-1,34
 209 118 209 118 205 141.5 c 128,-1,35
 201 165 201 165 200.5 177.5 c 128,-1,36
 200 190 200 190 193 190 c 2,37,-1
 192 190 l 1,0,-1
EndSplineSet
Validated: 1
EndChar

StartChar: registered
Encoding: 174 174 113
Width: 432
GlyphClass: 2
Flags: W
HStem: 4 66<160.659 301.601> 112 32.5<157.58 179.905> 411 67<167.753 284.309>
VStem: 14 96<125.348 334.974> 181 53<136.391 276> 342 78<124.853 340.394>
LayerCount: 2
Fore
SplineSet
258 4 m 1,0,-1
 226 5 l 1,1,2
 213 4 213 4 193 4 c 0,3,4
 134 4 134 4 85.5 49 c 0,5,6
 14 115.34 14 115.34 14 223 c 0,7,8
 14 260 14 260 27 305.5 c 128,-1,9
 40 351 40 351 56 380 c 128,-1,10
 72 409 72 409 105 434 c 0,11,12
 161 478 161 478 234 478 c 0,13,14
 278 478 278 478 299 470.5 c 128,-1,15
 320 463 320 463 346 439.5 c 128,-1,16
 372 416 372 416 398 370 c 0,17,18
 406 357 406 357 410 345.5 c 0,19,20
 420 316.75 420 316.75 420 229.875 c 128,-1,21
 420 143 420 143 378.5 73.5 c 128,-1,22
 337 4 337 4 258 4 c 1,0,-1
222 70 m 1,23,-1
 252 67 l 1,24,25
 288.793 67 288.793 67 305.5 95.5 c 0,26,27
 317.091 115.273 317.091 115.273 323 133 c 0,28,29
 342 184 342 184 342 227 c 0,30,31
 342 319 342 319 299 374 c 0,32,33
 269 411 269 411 224 411 c 0,34,35
 196 411 196 411 171.5 395 c 128,-1,36
 147 379 147 379 128.5 329 c 128,-1,37
 110 279 110 279 110 235 c 0,38,39
 110 100 110 100 193 75 c 0,40,41
 205 71 205 71 220 70 c 1,42,-1
 222 70 l 1,23,-1
166 112 m 1,43,44
 160 114 160 114 157.5 121.5 c 128,-1,45
 155 129 155 129 157.5 134.5 c 128,-1,46
 160 140 160 140 168.5 144.5 c 128,-1,47
 177 149 177 149 180 154 c 1,48,49
 181 171 181 171 181 196 c 2,50,-1
 181 276 l 1,51,52
 178 282 178 282 165 288.5 c 128,-1,53
 152 295 152 295 152 304 c 1,54,55
 155 308 155 308 159 314.5 c 2,56,-1
 168.5 330 l 2,57,58
 174 338.8 174 338.8 188.5 344.9 c 128,-1,59
 203 351 203 351 218 344 c 1,60,61
 226.5 335.5 226.5 335.5 230.25 334.25 c 128,-1,62
 234 333 234 333 240 330 c 1,63,64
 246 333 246 333 252.5 339 c 0,65,66
 266.583 352 266.583 352 280 352 c 0,67,68
 304 352 304 352 314 314 c 0,69,70
 318 302 318 302 308 286 c 1,71,72
 296 270 296 270 285 272 c 0,73,74
 278 273 278 273 274.5 284.5 c 128,-1,75
 271 296 271 296 265 298 c 1,76,-1
 234 276 l 1,77,-1
 234 166 l 1,78,79
 236 162 236 162 241.5 159 c 128,-1,80
 247 156 247 156 248 152 c 0,81,82
 255 137 255 137 246 126 c 1,83,84
 234 123 234 123 206 119 c 128,-1,85
 178 115 178 115 166 112 c 1,43,44
EndSplineSet
Validated: 1
EndChar

StartChar: macron
Encoding: 175 175 114
Width: 346
GlyphClass: 2
Flags: W
HStem: 371 96<42.0308 297.335> 374 102<142.136 297.335>
VStem: 24 295<390.523 452.673>
LayerCount: 2
Fore
SplineSet
192 374 m 1,0,-1
 123 371 l 1,1,2
 63 371 63 371 33 401 c 0,3,4
 24 410 24 410 24 423 c 128,-1,5
 24 436 24 436 38 447 c 0,6,7
 62 467 62 467 109 467 c 0,8,9
 114 467 114 467 114 466.5 c 128,-1,10
 114 466 114 466 131 466 c 128,-1,11
 148 466 148 466 168.5 471 c 128,-1,12
 189 476 189 476 204 476 c 2,13,-1
 221 476 l 2,14,15
 277 476 277 476 298 459.5 c 128,-1,16
 319 443 319 443 319 423.5 c 128,-1,17
 319 404 319 404 292 386 c 0,18,19
 283 380 283 380 276 379 c 2,20,-1
 255 376 l 2,21,22
 241 374 241 374 223 374 c 2,23,-1
 192 374 l 1,0,-1
EndSplineSet
Validated: 1
EndChar

